<?xml version="1.0" encoding="UTF-8" standalone="no"?>
<svg
   xmlns:dc="http://purl.org/dc/elements/1.1/"
   xmlns:cc="http://creativecommons.org/ns#"
   xmlns:rdf="http://www.w3.org/1999/02/22-rdf-syntax-ns#"
   xmlns:svg="http://www.w3.org/2000/svg"
   xmlns="http://www.w3.org/2000/svg"
   xmlns:sodipodi="http://sodipodi.sourceforge.net/DTD/sodipodi-0.dtd"
   xmlns:inkscape="http://www.inkscape.org/namespaces/inkscape"
   width="700"
   height="700"
   viewBox="0 0 700 700"
   version="1.1"
   id="svg59"
   sodipodi:docname="3m-logo-2021.svg"
   inkscape:version="0.92.4 (5da689c313, 2019-01-14)"
   inkscape:export-filename="G:\Users\suitedoalex\sites\3m-logo-0.png"
   inkscape:export-xdpi="561.73712"
   inkscape:export-ydpi="561.73712">
  <metadata
     id="metadata65">
    <rdf:RDF>
      <cc:Work
         rdf:about="">
        <dc:format>image/svg+xml</dc:format>
        <dc:type
           rdf:resource="http://purl.org/dc/dcmitype/StillImage" />
        <dc:title>Trifecta 3M 001 Lockup CMYK Pos</dc:title>
      </cc:Work>
    </rdf:RDF>
  </metadata>
  <defs
     id="defs63" />
  <sodipodi:namedview
     pagecolor="#ffffff"
     bordercolor="#666666"
     borderopacity="1"
     objecttolerance="10"
     gridtolerance="10"
     guidetolerance="10"
     inkscape:pageopacity="0"
     inkscape:pageshadow="2"
     inkscape:window-width="1600"
     inkscape:window-height="837"
     id="namedview61"
     showgrid="false"
     inkscape:zoom="0.52515723"
     inkscape:cx="12.924528"
     inkscape:cy="270.0786"
     inkscape:window-x="-8"
     inkscape:window-y="-8"
     inkscape:window-maximized="1"
     inkscape:current-layer="svg59" />
  <title
     id="title2">Trifecta 3M 001 Lockup CMYK Pos</title>
  <g
     id="Page-1"
     style="fill:none;fill-rule:evenodd;stroke:none;stroke-width:1"
     transform="matrix(4.1835764,0,0,4.1835764,22.195909,798.70206)"
     inkscape:export-filename="G:\Users\suitedoalex\sites\3m-logo-4.png"
     inkscape:export-xdpi="58.571571"
     inkscape:export-ydpi="58.571571">
    <g
       id="Trifecta-3M-001-Lockup-CMYK-Pos"
       style="fill-rule:nonzero">
      <path
         d="M 38.839251,0.57806045 35.278404,15.117768 31.705907,0.57806045 H 21.229172 V 5.9466876 C 19.971032,1.2481648 15.532594,0.06769023 11.42034,0.00145898 6.4110781,-0.06477226 1.1571782,2.1130671 0.96302081,8.7595677 H 7.8944408 c 0,-2.0064172 1.5338436,-3.1557242 3.2618442,-3.1284525 2.1202,-0.015584 3.098753,0.8921739 3.149234,2.3103018 -0.07378,1.2272261 -0.796046,2.084336 -3.133701,2.084336 H 8.841929 v 4.82709 h 2.116316 c 1.199893,0 2.87353,0.65452 2.939543,2.372637 0.08155,2.045377 -1.339686,2.949238 -3.08322,2.964822 C 7.6964002,20.077319 7.1915909,17.669619 7.1915909,15.604762 H 0 c 0.03106519,1.390856 -0.31065187,10.460642 10.966011,10.39441 5.40146,0.05065 9.171997,-2.228486 10.278694,-5.368627 v 4.811506 H 28.3431 V 9.7608284 l 3.836551,15.6851186 h 6.201388 L 42.233122,9.7764122 V 25.46153 h 7.07898 V 0.57806045 Z M 21.248588,15.082704 c -0.881475,-1.834995 -2.124082,-2.637562 -2.826932,-2.890799 1.46783,-0.654521 2.240577,-1.542799 2.826932,-3.3154586 z"
         id="Shape"
         inkscape:connector-curvature="0"
         style="fill:#ff0000" />
      <g
         id="Group"
         transform="translate(56.356688)"
         style="fill:#000000">
        <g
           id="g48">
          <path
             d="M 5.8983351,3.3833333 C 5.8011952,2.8544444 5.3660084,2.0222222 4.1459312,2.0222222 c -0.9092295,0 -1.5076114,0.5833334 -1.5076114,1.225 0,0.5288889 0.3380469,0.9527778 1.0452254,1.0888889 l 1.3444163,0.2605556 c 1.7524039,0.3422222 2.6927182,1.4855555 2.6927182,2.8427777 0,1.4855556 -1.2395052,2.9788886 -3.4814942,2.9788886 -2.5567223,0 -3.68354524,-1.6488886 -3.83508349,-3.0216663 L 2.1448491,6.9338889 c 0.081598,0.9566667 0.7460345,1.8122222 2.1059932,1.8122222 1.0063694,0 1.5620097,-0.5055555 1.5620097,-1.1861111 0,-0.5561111 -0.4196444,-0.9955556 -1.1695645,-1.1433333 L 3.2949856,6.1444444 C 1.7601751,5.8333333 0.76934806,4.8377778 0.76934806,3.3833333 c 0,-1.715 1.53481054,-3.02166663 3.35715514,-3.02166663 2.3391289,0 3.2367017,1.41555553 3.4542951,2.50833333 z"
             id="Path"
             inkscape:connector-curvature="0" />
          <path
             d="m 10.359,6.8677778 c 0,1.2133333 0.788776,1.8938889 1.713548,1.8938889 0.924771,0 1.387157,-0.6144445 1.53481,-1.1277778 l 1.589209,0.5288889 c -0.299191,1.1161111 -1.344416,2.2594442 -3.124019,2.2594442 -1.973883,0 -3.5242363,-1.497222 -3.5242363,-3.5505553 0,-2.0688889 1.5231543,-3.5544445 3.4659523,-3.5544445 1.822344,0 2.855913,1.1277778 3.139561,2.2594445 L 13.533532,6.1211111 C 13.370337,5.565 12.950692,4.9933333 12.053119,4.9933333 c -0.917,-0.00389 -1.694119,0.665 -1.694119,1.8744445 z"
             id="path6"
             inkscape:connector-curvature="0" />
          <path
             d="m 17.306446,0.20222222 c 0.625581,0 1.115166,0.50555556 1.115166,1.12777778 0,0.5988889 -0.489585,1.1005556 -1.115166,1.1005556 -0.610039,0 -1.115167,-0.5016667 -1.115167,-1.1005556 0,-0.62611111 0.505128,-1.12777778 1.115167,-1.12777778 z M 16.408873,10.216111 V 3.5233333 h 1.806802 v 6.6927777 z"
             id="path8"
             inkscape:connector-curvature="0" />
          <path
             d="m 26.076236,8.2988889 c -0.338047,1.155 -1.398814,2.1194441 -3.046307,2.1194441 -1.834002,0 -3.454295,-1.318333 -3.454295,-3.5777774 0,-2.1388889 1.577552,-3.5272223 3.2911,-3.5272223 2.067137,0 3.306642,1.3222223 3.306642,3.4688889 0,0.2605556 -0.0272,0.5327778 -0.0272,0.56 h -4.787054 c 0.03885,0.8827778 0.788776,1.5244445 1.686348,1.5244445 0.843175,0 1.305561,-0.42 1.523154,-1.0188889 z M 24.389888,6.1055556 c -0.0272,-0.665 -0.462386,-1.3183334 -1.495955,-1.3183334 -0.936429,0 -1.453213,0.7077778 -1.495955,1.3183334 z"
             id="path10"
             inkscape:connector-curvature="0" />
          <path
             d="M 29.254654,10.216111 H 27.447852 V 3.5233333 h 1.752404 v 0.8283334 c 0.407987,-0.6961111 1.20842,-1.0033334 1.931141,-1.0033334 1.65915,0 2.420727,1.1822223 2.420727,2.6522223 V 10.216111 H 31.745321 V 6.3077778 c 0,-0.7466667 -0.365246,-1.3338889 -1.235619,-1.3338889 -0.788776,0 -1.251162,0.6144444 -1.251162,1.3883333 v 3.8538888 z"
             id="path12"
             inkscape:connector-curvature="0" />
          <path
             d="m 36.489634,6.8677778 c 0,1.2133333 0.788776,1.8938889 1.713548,1.8938889 0.924772,0 1.387158,-0.6144445 1.534811,-1.1277778 l 1.589209,0.5288889 c -0.299191,1.1161111 -1.344417,2.2594442 -3.127905,2.2594442 -1.973883,0 -3.52035,-1.497222 -3.52035,-3.5505553 0,-2.0688889 1.523153,-3.5544445 3.465951,-3.5544445 1.822345,0 2.855913,1.1277778 3.139562,2.2594445 L 39.664166,6.1211111 C 39.500971,5.565 39.081327,4.9933333 38.183754,4.9933333 c -0.917,-0.00389 -1.69412,0.665 -1.69412,1.8744445 z"
             id="path14"
             inkscape:connector-curvature="0" />
          <path
             d="m 48.550525,8.2988889 c -0.341932,1.155 -1.4027,2.1194441 -3.046307,2.1194441 -1.834002,0 -3.454296,-1.318333 -3.454296,-3.5777774 0,-2.1388889 1.577553,-3.5272223 3.291101,-3.5272223 2.067137,0 3.302756,1.3222223 3.302756,3.4688889 0,0.2605556 -0.0272,0.5327778 -0.0272,0.56 h -4.787054 c 0.04274,0.8827778 0.788776,1.5244445 1.686348,1.5244445 0.843175,0 1.305561,-0.42 1.523154,-1.0188889 z M 46.864176,6.1055556 c -0.0272,-0.665 -0.462386,-1.3183334 -1.495954,-1.3183334 -0.936429,0 -1.453213,0.7077778 -1.495955,1.3183334 z"
             id="path16"
             inkscape:connector-curvature="0" />
          <path
             d="m 50.982908,7.8361111 c 0.691636,0 1.251162,0.5561111 1.251162,1.2405556 0,0.6766666 -0.559526,1.2366663 -1.251162,1.2366663 -0.679979,0 -1.235619,-0.5599997 -1.235619,-1.2366663 0,-0.6844445 0.55564,-1.2405556 1.235619,-1.2405556 z"
             id="path18"
             inkscape:connector-curvature="0" />
          <path
             d="m 6.8386494,22.998889 h -3.916681 l -0.8004328,2.205 H 0.13599587 L 3.8350835,15.555556 h 2.1759339 l 3.6680028,9.648333 h -2.039938 z m -3.2911,-1.715 h 2.665519 L 4.8803089,17.636111 Z"
             id="path20"
             inkscape:connector-curvature="0" />
          <path
             d="m 10.68539,27.79 v -9.282778 h 1.756289 v 0.816667 c 0.299191,-0.517222 1.045226,-0.968333 2.051595,-0.968333 1.958341,0 3.085163,1.497222 3.085163,3.484444 0,2.026111 -1.262818,3.527222 -3.155104,3.527222 -0.924772,0 -1.604751,-0.369444 -1.931141,-0.816666 V 27.79 Z m 3.454295,-7.812778 c -0.924772,0 -1.670807,0.696111 -1.670807,1.878334 0,1.182222 0.746035,1.89 1.670807,1.89 0.924772,0 1.659149,-0.692223 1.659149,-1.89 -0.0039,-1.186112 -0.734377,-1.878334 -1.659149,-1.878334 z"
             id="path22"
             inkscape:connector-curvature="0" />
          <path
             d="m 18.775201,27.79 v -9.282778 h 1.756289 v 0.816667 c 0.299191,-0.517222 1.045226,-0.968333 2.051595,-0.968333 1.958341,0 3.085164,1.497222 3.085164,3.484444 0,2.026111 -1.262819,3.527222 -3.155104,3.527222 -0.924772,0 -1.604752,-0.369444 -1.927256,-0.816666 V 27.79 Z m 3.454295,-7.812778 c -0.924772,0 -1.670806,0.696111 -1.670806,1.878334 0,1.182222 0.746034,1.89 1.670806,1.89 0.924772,0 1.65915,-0.692223 1.65915,-1.89 0,-1.186112 -0.734378,-1.878334 -1.65915,-1.878334 z"
             id="path24"
             inkscape:connector-curvature="0" />
          <polygon
             id="polygon26"
             points="28.702899,25.2 26.892212,25.2 26.892212,15.349444 28.702899,15.349444 " />
          <path
             d="m 31.457787,15.186111 c 0.625581,0 1.115166,0.505556 1.115166,1.127778 0,0.598889 -0.489585,1.100555 -1.115166,1.100555 -0.613924,0 -1.115166,-0.501666 -1.115166,-1.100555 0,-0.622222 0.505128,-1.127778 1.115166,-1.127778 z M 30.5641,25.2 v -6.692778 h 1.806802 V 25.2 Z"
             id="path28"
             inkscape:connector-curvature="0" />
          <path
             d="m 40.281976,23.282778 c -0.338047,1.158889 -1.398814,2.123333 -3.046307,2.123333 -1.834002,0 -3.454295,-1.318333 -3.454295,-3.577778 0,-2.138889 1.577552,-3.527222 3.2911,-3.527222 2.067137,0 3.302757,1.322222 3.302757,3.468889 0,0.260556 -0.0272,0.532778 -0.0272,0.56 h -4.783169 c 0.04274,0.882778 0.788776,1.524444 1.686349,1.524444 0.843175,0 1.305561,-0.42 1.523154,-1.018888 z m -1.682463,-2.189445 c -0.0272,-0.665 -0.462386,-1.318333 -1.495955,-1.318333 -0.940314,0 -1.457098,0.707778 -1.495954,1.318333 z"
             id="path30"
             inkscape:connector-curvature="0" />
          <path
             d="m 48.169737,23.990556 c 0,0.451111 0.0272,0.941111 0.0544,1.213333 h -1.72909 c -0.0272,-0.136111 -0.06606,-0.462778 -0.06606,-0.773889 -0.29919,0.528889 -0.97917,0.941111 -1.876742,0.941111 -1.903943,0 -3.263901,-1.497222 -3.263901,-3.527222 0,-1.96 1.321102,-3.5 3.209502,-3.5 1.154022,0 1.698006,0.478333 1.8884,0.832222 v -3.826667 h 1.783489 z m -3.399897,-0.245 c 0.924772,0 1.643607,-0.707778 1.643607,-1.917223 0,-1.193889 -0.722721,-1.862777 -1.643607,-1.862777 -0.924772,0 -1.65915,0.680555 -1.65915,1.878333 0,1.193889 0.707179,1.901667 1.65915,1.901667 z"
             id="path32"
             inkscape:connector-curvature="0" />
          <path
             d="m 55.280378,18.507222 h 1.344416 v 1.606111 h -1.344416 v 2.8 c 0,0.587223 0.271991,0.777778 0.788776,0.777778 0.217593,0 0.462386,-0.02722 0.55564,-0.05444 v 1.497222 c -0.163195,0.06611 -0.489585,0.163333 -1.018026,0.163333 -1.305561,0 -2.121536,-0.777778 -2.121536,-2.072778 v -3.111111 h -1.20842 v -1.606111 h 0.341932 c 0.707179,0 1.033569,-0.462778 1.033569,-1.061666 v -0.941112 h 1.63195 v 2.002778 z"
             id="path34"
             inkscape:connector-curvature="0" />
          <path
             d="m 64.539754,21.855556 c 0,2.053333 -1.507612,3.550555 -3.508694,3.550555 -1.997196,0 -3.504808,-1.497222 -3.504808,-3.550555 0,-2.068889 1.507612,-3.554445 3.504808,-3.554445 1.997197,0 3.508694,1.485556 3.508694,3.554445 z m -1.806803,0 c 0,-1.267778 -0.815975,-1.905556 -1.701891,-1.905556 -0.88203,0 -1.698005,0.637778 -1.698005,1.905556 0,1.252222 0.815975,1.901666 1.698005,1.901666 0.885916,0 1.701891,-0.637778 1.701891,-1.901666 z"
             id="path36"
             inkscape:connector-curvature="0" />
          <polygon
             id="polygon38"
             points="68.510833,15.555556 70.387576,15.555556 70.387576,23.403333 74.68116,23.403333 74.68116,25.2 68.510833,25.2 " />
          <path
             d="m 76.818238,15.186111 c 0.625581,0 1.11128,0.505556 1.11128,1.127778 0,0.598889 -0.489585,1.100555 -1.11128,1.100555 -0.613925,0 -1.115166,-0.501666 -1.115166,-1.100555 -0.0039,-0.622222 0.501241,-1.127778 1.115166,-1.127778 z M 75.916779,25.2 v -6.692778 h 1.810688 V 25.2 Z"
             id="path40"
             inkscape:connector-curvature="0" />
          <path
             d="m 81.993852,17.772222 v 0.735 h 1.507611 v 1.551667 H 81.993852 V 25.2 h -1.822345 v -5.141111 h -1.115166 v -1.551667 h 1.115166 V 17.745 c 0,-1.512778 0.951971,-2.488889 2.432384,-2.488889 0.380788,0 0.74992,0.06611 0.897572,0.136111 v 1.524445 c -0.09714,-0.03111 -0.271991,-0.07 -0.571182,-0.07 -0.404102,0 -0.936429,0.178889 -0.936429,0.925555 z"
             id="path42"
             inkscape:connector-curvature="0" />
          <path
             d="m 90.425596,23.282778 c -0.341933,1.158889 -1.4027,2.123333 -3.046308,2.123333 -1.834001,0 -3.454295,-1.318333 -3.454295,-3.577778 0,-2.138889 1.573667,-3.527222 3.2911,-3.527222 2.067138,0 3.302757,1.322222 3.302757,3.468889 0,0.260556 -0.0272,0.532778 -0.0272,0.56 h -4.787055 c 0.03886,0.882778 0.788776,1.524444 1.686349,1.524444 0.843175,0 1.30556,-0.42 1.523154,-1.018888 z m -1.686349,-2.189445 c -0.0272,-0.665 -0.462386,-1.318333 -1.495955,-1.318333 -0.936428,0 -1.453213,0.707778 -1.495954,1.318333 z"
             id="path44"
             inkscape:connector-curvature="0" />
          <path
             d="m 92.857979,22.823889 c 0.691636,0 1.251162,0.556111 1.251162,1.236667 0,0.680555 -0.559526,1.240555 -1.251162,1.240555 -0.679979,0 -1.23562,-0.56 -1.23562,-1.240555 0,-0.680556 0.555641,-1.236667 1.23562,-1.236667 z"
             id="path46"
             inkscape:connector-curvature="0" />
        </g>
        <g
           transform="translate(94.031429,15.555556)"
           id="g54">
          <polygon
             points="5.7584536,2.9438889 5.7584536,0.89833333 4.9308216,2.9438889 4.4373509,2.9438889 3.6097189,0.90222222 3.6097189,2.9438889 3.050193,2.9438889 3.050193,0 3.8311979,0 4.6938003,2.135 5.5369747,0 6.3218651,0 6.3218651,2.9438889 "
             id="polygon50" />
          <polygon
             points="0.077711925,0.54833333 0.077711925,0 2.5178664,0 2.5178664,0.54833333 1.5853233,0.54833333 1.5853233,2.9438889 1.0063694,2.9438889 1.0063694,0.54833333 "
             id="polygon52" />
        </g>
      </g>
    </g>
  </g>
  <g
     id="Page-1-5"
     style="fill:none;fill-rule:evenodd;stroke:none;stroke-width:1"
     transform="matrix(4.1835764,0,0,4.1835764,-310.66637,194.38418)"
     inkscape:export-filename="G:\Users\suitedoalex\sites\3m-logo-5.png"
     inkscape:export-xdpi="84.521439"
     inkscape:export-ydpi="84.521439">
    <g
       id="Trifecta-3M-001-Lockup-CMYK-Pos-3"
       style="fill-rule:nonzero">
      <path
         d="M 189.15374,9.8408424 181.31192,41.860657 173.44447,9.8408424 H 150.37225 V 21.663806 C 147.60154,11.316567 137.82706,8.7168889 128.77093,8.5710325 117.73938,8.4251788 106.16907,13.221284 105.74148,27.858421 h 15.2646 c 0,-4.418596 3.37787,-6.949637 7.18333,-6.889578 4.66917,-0.03431 6.82419,1.964775 6.93536,5.087822 -0.16253,2.702637 -1.75309,4.590192 -6.90114,4.590192 h -5.13096 v 10.630374 h 4.66061 c 2.64246,0 6.32818,1.441405 6.47357,5.225097 0.1797,4.504396 -2.95031,6.494908 -6.78996,6.529227 -6.86694,-0.248815 -7.97865,-5.551129 -7.97865,-10.098424 h -15.83755 c 0.0685,3.062988 -0.68413,23.036764 24.1497,22.890906 11.89527,0.111543 20.19888,-4.907644 22.63606,-11.822964 v 10.596054 h 15.63233 V 30.063431 l 8.44897,34.542275 h 13.6569 l 8.48318,-34.507956 v 34.542274 h 15.58956 V 9.8408424 Z M 150.41502,41.783438 c -1.94123,-4.041085 -4.67772,-5.808524 -6.22556,-6.366211 3.23251,-1.441407 4.93426,-3.397602 6.22556,-7.301411 z"
         id="Shape-8"
         inkscape:connector-curvature="0"
         style="fill:#ff0000;stroke-width:2.20223236" />
    </g>
  </g>
</svg>
