<svg width="29" height="33" viewBox="0 0 29 33" fill="none" xmlns="http://www.w3.org/2000/svg">
<g clip-path="url(#clip0_78_2154)">
<path d="M13.0207 5.34418L15.5562 9.73645C15.8429 9.7306 16.1296 9.72866 16.4202 9.72866C17.1613 9.72866 17.8947 9.74621 18.6144 9.77742L13.0207 0.0898438L6.875 10.735C7.94186 10.4912 9.07503 10.2884 10.2589 10.1285L13.0226 5.34418H13.0207ZM8.46846 9.59018L13.0207 1.70671L17.1886 8.92704C16.9312 8.92314 16.6757 8.92119 16.4182 8.92119C16.2856 8.92119 16.153 8.92119 16.0184 8.92119L13.7189 4.9385L13.0187 3.72536L12.3185 4.9385L9.75377 9.38148C9.32078 9.44389 8.88975 9.51216 8.46846 9.58823V9.59018Z" fill="#B8B8B8"/>
<path d="M9.25088 24.2675C6.0815 22.8749 4.14282 21.0104 4.14282 18.9625C4.14282 18.2798 4.35736 17.6187 4.76109 16.9887H22.7768L19.4943 11.3053C20.7426 11.2019 22.0357 11.1473 23.36 11.1473C25.1446 11.1473 26.8707 11.2467 28.509 11.432C28.4154 11.4008 28.3179 11.3716 28.2203 11.3423C28.3159 11.3716 28.4134 11.4008 28.509 11.432C28.6182 11.4437 28.7274 11.4574 28.8386 11.471C28.55 11.3969 28.2555 11.3287 27.957 11.2604C25.2811 10.6636 22.2015 10.3223 18.9248 10.3184C18.9053 10.3184 18.8858 10.3184 18.8663 10.3184C18.1212 10.3184 17.3859 10.3359 16.6624 10.371C16.4205 10.3827 16.1826 10.3964 15.9446 10.41C13.6607 10.5524 11.5153 10.8625 9.5844 11.3053C9.41666 11.3443 9.25283 11.3833 9.089 11.4223C7.94412 11.7031 6.88116 12.0327 5.91572 12.4033C2.35626 13.7686 0.140625 15.6936 0.140625 17.8254C0.140625 20.5618 3.7937 22.9569 9.25478 24.2695L9.25088 24.2675ZM16.6507 11.6349L18.2246 14.3596H7.8232C10.0252 13.1308 13.0892 12.1732 16.6507 11.6349Z" fill="#B8B8B8"/>
<path d="M1.87531 29.6463C1.97478 29.6015 2.06059 29.5391 2.13471 29.463C2.20882 29.385 2.26733 29.2972 2.30829 29.1977C2.3512 29.0983 2.37071 28.993 2.37071 28.8818V28.6594H1.8558V28.835C1.8558 28.9052 1.84605 28.9637 1.8246 29.0125C1.80509 29.0593 1.77974 29.0963 1.74853 29.1236C1.71538 29.1509 1.67832 29.1704 1.63931 29.1821C1.6003 29.1938 1.56519 29.1997 1.53009 29.1997C1.41306 29.1997 1.33115 29.1646 1.28629 29.0944C1.24143 29.0242 1.21803 28.9364 1.21803 28.833V26.9977C1.21803 26.8768 1.23948 26.7773 1.28044 26.6974C1.32335 26.6193 1.40721 26.5784 1.53594 26.5784C1.63346 26.5784 1.71147 26.6154 1.76803 26.6895C1.8246 26.7637 1.85385 26.8514 1.85385 26.9509V27.1225H2.36875V26.9216C2.36875 26.7968 2.3473 26.6817 2.30634 26.5764C2.26343 26.4711 2.20687 26.3794 2.13276 26.3014C1.98063 26.1434 1.78559 26.0635 1.54179 26.0635C1.41697 26.0635 1.30384 26.0849 1.20047 26.1259C1.0971 26.1688 1.00934 26.2254 0.935222 26.2995C0.861107 26.3736 0.804545 26.4614 0.763587 26.5608C0.722628 26.6622 0.703125 26.7715 0.703125 26.8885V28.8662C0.703125 29.03 0.728479 29.1665 0.781139 29.2719C0.8338 29.3772 0.900114 29.465 0.98008 29.5313C1.06005 29.5995 1.15171 29.6463 1.25313 29.6717C1.35455 29.699 1.45402 29.7126 1.55154 29.7126C1.66661 29.7126 1.77194 29.6892 1.8714 29.6444L1.87531 29.6463Z" fill="#B8B8B8"/>
<path d="M6.49953 26.9412C6.49953 26.7968 6.47417 26.6681 6.42346 26.5589C6.37275 26.4477 6.3084 26.356 6.22648 26.2819C6.14261 26.2117 6.049 26.1571 5.94757 26.12C5.8442 26.083 5.74083 26.0654 5.63746 26.0654C5.53409 26.0654 5.43072 26.083 5.32735 26.12C5.22398 26.1571 5.13231 26.2117 5.05234 26.2819C4.96848 26.356 4.90021 26.4477 4.85145 26.5589C4.80074 26.67 4.77539 26.7968 4.77539 26.9412V28.8369C4.77539 28.9891 4.80074 29.1178 4.85145 29.2251C4.90216 29.3323 4.96848 29.422 5.05234 29.4923C5.13231 29.5664 5.22398 29.621 5.32735 29.658C5.43072 29.6951 5.53409 29.7127 5.63746 29.7127C5.74083 29.7127 5.8442 29.6932 5.94757 29.658C6.05095 29.621 6.14261 29.5664 6.22648 29.4923C6.30644 29.422 6.37275 29.3323 6.42346 29.2251C6.47417 29.1178 6.49953 28.9871 6.49953 28.8369V26.9412ZM5.98463 28.8369C5.98463 28.9618 5.94952 29.0534 5.88126 29.1119C5.81299 29.1704 5.73108 29.1997 5.63746 29.1997C5.54384 29.1997 5.46192 29.1704 5.39366 29.1119C5.3254 29.0534 5.29029 28.9618 5.29029 28.8369V26.9412C5.29029 26.8163 5.3254 26.7247 5.39366 26.6662C5.46192 26.6076 5.54384 26.5784 5.63746 26.5784C5.73108 26.5784 5.81299 26.6076 5.88126 26.6662C5.94952 26.7247 5.98463 26.8163 5.98463 26.9412V28.8369Z" fill="#B8B8B8"/>
<path d="M10.137 27.9944H10.1253L9.4661 26.0928H8.9707V29.6834H9.4856V27.501H9.49535L10.0005 29.0437H10.258L10.767 27.501H10.7768V29.6834H11.2917V26.0928H10.7924L10.137 27.9944Z" fill="#B8B8B8"/>
<path d="M15.2304 26.3463C15.1426 26.2527 15.0451 26.1864 14.9378 26.1493C14.8306 26.1123 14.7057 26.0947 14.5653 26.0947H13.793V29.6854H14.3079V28.2831H14.5692C14.7604 28.2831 14.9164 28.2499 15.0334 28.1855C15.1504 28.1192 15.246 28.0276 15.3162 27.9105C15.3767 27.813 15.4157 27.7097 15.4352 27.5985C15.4527 27.4873 15.4625 27.3508 15.4625 27.1908C15.4625 26.9763 15.4449 26.8047 15.4118 26.6798C15.3786 26.5531 15.3182 26.4438 15.2304 26.3502V26.3463ZM14.971 27.4405C14.9651 27.5146 14.9495 27.577 14.9222 27.6277C14.8949 27.6823 14.854 27.7233 14.7955 27.7545C14.7389 27.7857 14.657 27.7994 14.5536 27.7994H14.3059V26.5784H14.5731C14.6745 26.5784 14.7506 26.594 14.8052 26.6233C14.8598 26.6545 14.8988 26.6974 14.9261 26.754C14.9534 26.8105 14.969 26.8768 14.971 26.9529C14.9749 27.029 14.9768 27.1089 14.9768 27.1928C14.9768 27.2845 14.9749 27.3664 14.9691 27.4405H14.971Z" fill="#B8B8B8"/>
<path d="M18.245 26.0928L17.4434 29.6834H17.9583L18.1104 28.9111H18.8106L18.9627 29.6834H19.4776L18.676 26.0928H18.2469H18.245ZM18.2001 28.4274L18.4517 27.1265H18.4615L18.7131 28.4274H18.1982H18.2001Z" fill="#B8B8B8"/>
<path d="M23.519 29.6834V26.0928H23.006V28.2577H22.9943L22.2181 26.0928H21.7246V29.6834H22.2395V27.5263H22.2493L23.0353 29.6834H23.519Z" fill="#B8B8B8"/>
<path d="M26.9963 29.6834V28.166L27.7024 26.0928H27.1563L26.7428 27.5205H26.733L26.3195 26.0928H25.7754L26.4814 28.166V29.6834H26.9963Z" fill="#B8B8B8"/>
<path d="M1.13805 32.0786V31.1775H1.42281V31.0352H0.693359V31.1775H0.980066V32.0786H1.13805Z" fill="#B8B8B8"/>
<path d="M2.57564 31.0352L2.19727 32.0767H2.365L2.44497 31.8426H2.84089L2.92086 32.0767H3.08664L2.70827 31.0352H2.57564ZM2.48982 31.7041L2.64 31.2497H2.6439L2.79408 31.7041H2.48982Z" fill="#B8B8B8"/>
<path d="M4.22431 31.2614C4.24186 31.2399 4.26332 31.2224 4.29063 31.2087C4.31793 31.1951 4.34914 31.1873 4.3862 31.1873C4.43691 31.1873 4.47982 31.2029 4.51492 31.2302C4.54808 31.2594 4.57148 31.2945 4.58513 31.3375H4.75287C4.73532 31.2497 4.69631 31.1775 4.63195 31.119C4.56953 31.0605 4.48567 31.0312 4.3862 31.0293C4.30428 31.0293 4.23601 31.0488 4.1814 31.0878C4.12484 31.1249 4.08583 31.1678 4.06048 31.2165C4.04488 31.2419 4.03318 31.275 4.02537 31.316C4.01757 31.357 4.01367 31.4389 4.01367 31.5598C4.01367 31.6807 4.01757 31.7587 4.02537 31.8016C4.02927 31.8231 4.03318 31.8426 4.03903 31.8582C4.04488 31.8719 4.05268 31.8875 4.06048 31.9031C4.08583 31.9518 4.12679 31.9928 4.1814 32.0298C4.23601 32.0689 4.30428 32.0884 4.3862 32.0903C4.49152 32.0884 4.58123 32.0532 4.65145 31.983C4.72166 31.9128 4.75677 31.8251 4.75872 31.7197V31.5071H4.38815V31.6573H4.60074V31.7119C4.60074 31.7782 4.57929 31.829 4.54028 31.8699C4.49932 31.9128 4.44861 31.9323 4.38815 31.9323C4.35109 31.9323 4.31988 31.9245 4.29258 31.9089C4.26527 31.8953 4.24382 31.8777 4.22626 31.8563C4.20676 31.8348 4.19311 31.8036 4.18531 31.7685C4.17751 31.7314 4.17361 31.6632 4.17361 31.5598C4.17361 31.4564 4.17751 31.3882 4.18531 31.3511C4.19116 31.316 4.20481 31.2867 4.22626 31.2653L4.22431 31.2614Z" fill="#B8B8B8"/>
<path d="M5.82227 31.0352V32.0786H6.48735V31.9284H5.98025V31.0352H5.82227Z" fill="#B8B8B8"/>
<path d="M7.67361 31.0352H7.51562V32.0767H7.67361V31.0352Z" fill="#B8B8B8"/>
<path d="M8.77148 31.0352V32.0786H8.92947V31.3375H8.93141L9.40341 32.0786H9.55164V31.0352H9.39365V31.7763H9.39172L8.91971 31.0352H8.77148Z" fill="#B8B8B8"/>
<path d="M11.3155 31.1853V31.0352H10.6504V32.0786H11.3155V31.9284H10.8084V31.6222H11.2414V31.4818H10.8084V31.1853H11.3155Z" fill="#B8B8B8"/>
<path d="M13.582 31.2146C13.5664 31.2399 13.5547 31.2731 13.5469 31.3141C13.5391 31.355 13.5371 31.4369 13.5371 31.5579C13.5371 31.6788 13.541 31.7568 13.5469 31.7997C13.5508 31.8212 13.5547 31.8407 13.5605 31.8563C13.5664 31.8699 13.5742 31.8855 13.582 31.9011C13.6073 31.9499 13.6483 31.9909 13.7029 32.028C13.7575 32.067 13.8258 32.0865 13.9077 32.0885C14.013 32.0865 14.1027 32.0513 14.1729 31.9811C14.2432 31.9109 14.2783 31.8231 14.2802 31.7178V31.5052H13.9096V31.6554H14.1222V31.71C14.1222 31.7763 14.1008 31.827 14.0598 31.868C14.0189 31.9109 13.9681 31.9305 13.9077 31.9305C13.8706 31.9305 13.8394 31.9226 13.8121 31.907C13.7848 31.8933 13.7634 31.8758 13.7458 31.8543C13.7263 31.8329 13.7126 31.8018 13.7048 31.7666C13.697 31.7296 13.6931 31.6612 13.6931 31.5579C13.6931 31.4545 13.697 31.3862 13.7048 31.3492C13.7107 31.3141 13.7243 31.2848 13.7458 31.2633C13.7634 31.2419 13.7848 31.2243 13.8121 31.2107C13.8394 31.197 13.8706 31.1892 13.9077 31.1892C13.9584 31.1892 14.0013 31.2048 14.0364 31.2321C14.0696 31.2614 14.093 31.2965 14.1066 31.3394H14.2744C14.2568 31.2516 14.2178 31.1795 14.1534 31.121C14.0891 31.0625 14.0072 31.0333 13.9077 31.0312C13.8258 31.0312 13.7575 31.0508 13.7029 31.0898C13.6463 31.1268 13.6073 31.1697 13.582 31.2185V31.2146Z" fill="#B8B8B8"/>
<path d="M15.3535 31.2146C15.3379 31.2399 15.3261 31.2731 15.3183 31.3141C15.3105 31.355 15.3066 31.4369 15.3066 31.5578C15.3066 31.6788 15.3105 31.7568 15.3183 31.7997C15.3222 31.8211 15.3261 31.8407 15.332 31.8563C15.3378 31.8699 15.3457 31.8855 15.3535 31.9011C15.3788 31.9499 15.4198 31.9908 15.4744 32.0279C15.529 32.0669 15.5972 32.0864 15.6792 32.0884C15.763 32.0864 15.8313 32.0669 15.8859 32.0279C15.9405 31.9908 15.9795 31.9479 16.0049 31.9011C16.0224 31.8758 16.0341 31.8426 16.0419 31.7997C16.0478 31.7587 16.0517 31.6768 16.0517 31.5578C16.0517 31.4389 16.0478 31.355 16.0419 31.3141C16.0361 31.2731 16.0224 31.2399 16.0049 31.2146C15.9815 31.1658 15.9405 31.1229 15.8859 31.0859C15.8313 31.0469 15.7611 31.0273 15.6792 31.0273C15.5972 31.0273 15.529 31.0469 15.4744 31.0859C15.4178 31.1229 15.3788 31.1658 15.3535 31.2146ZM15.4783 31.3472C15.4841 31.3121 15.4978 31.2828 15.5192 31.2614C15.5368 31.2399 15.5582 31.2224 15.5855 31.2087C15.6128 31.1951 15.6441 31.1873 15.6811 31.1873C15.7182 31.1873 15.7513 31.1951 15.7786 31.2087C15.804 31.2224 15.8254 31.2419 15.8411 31.2614C15.8625 31.2828 15.8762 31.3121 15.884 31.3472C15.8918 31.3843 15.8957 31.4545 15.8957 31.5559C15.8957 31.6573 15.8918 31.7275 15.884 31.7646C15.8762 31.8016 15.8625 31.8309 15.8411 31.8524C15.8254 31.8738 15.804 31.8914 15.7786 31.905C15.7513 31.9206 15.7182 31.9284 15.6811 31.9284C15.6441 31.9284 15.6128 31.9206 15.5855 31.905C15.5582 31.8914 15.5368 31.8738 15.5192 31.8524C15.4978 31.8309 15.4861 31.7997 15.4783 31.7646C15.4705 31.7275 15.4666 31.6593 15.4666 31.5559C15.4666 31.4525 15.4705 31.3843 15.4783 31.3472Z" fill="#B8B8B8"/>
<path d="M17.1172 32.0786H17.7823V31.9284H17.2752V31.6222H17.7082V31.4818H17.2752V31.1853H17.7823V31.0352H17.1172V32.0786Z" fill="#B8B8B8"/>
<path d="M19.1166 31.9284C19.0016 31.9284 18.904 31.8933 18.8202 31.8251L18.7168 31.944C18.828 32.0396 18.9606 32.0864 19.1147 32.0864C19.3526 32.0845 19.4755 31.983 19.4813 31.7841C19.4813 31.71 19.4579 31.6456 19.4111 31.5891C19.3643 31.5325 19.2922 31.4974 19.1946 31.4837C19.1459 31.4779 19.1069 31.472 19.0776 31.4681C19.0269 31.4584 18.9879 31.4408 18.9645 31.4174C18.9411 31.394 18.9294 31.3667 18.9294 31.3355C18.9294 31.2848 18.9469 31.2477 18.982 31.2224C19.0152 31.199 19.0542 31.1853 19.103 31.1853C19.1966 31.1853 19.2824 31.2146 19.3604 31.2653L19.4482 31.1346C19.3526 31.0664 19.2395 31.0293 19.1108 31.0273C19.0035 31.0273 18.9196 31.0566 18.8611 31.1112C18.8007 31.1678 18.7695 31.2399 18.7695 31.3316C18.7695 31.4077 18.7929 31.472 18.8416 31.5247C18.8884 31.5754 18.9567 31.6086 19.0464 31.6242C19.0971 31.632 19.142 31.6378 19.1849 31.6437C19.2766 31.6593 19.3214 31.7061 19.3214 31.7841C19.3214 31.8797 19.2512 31.9265 19.1147 31.9284H19.1166Z" fill="#B8B8B8"/>
<path d="M22.4834 32.0786V31.0352H22.3254V31.4818H21.9138V31.0352H21.7559V32.0786H21.9138V31.6222H22.3254V32.0786H22.4834Z" fill="#B8B8B8"/>
<path d="M24.2491 31.1853V31.0352H23.584V32.0786H24.2491V31.9284H23.742V31.6222H24.175V31.4818H23.742V31.1853H24.2491Z" fill="#B8B8B8"/>
<path d="M25.7981 31.6164C25.9307 31.5657 25.997 31.4701 25.999 31.3277C25.997 31.2321 25.9619 31.158 25.8956 31.1054C25.841 31.0605 25.7708 31.0371 25.683 31.0371H25.2754V32.0786H25.4334V31.6339H25.6343L25.8488 32.0786H26.036L25.7942 31.6164H25.7981ZM25.4353 31.4935V31.1775H25.683C25.7337 31.1775 25.7727 31.1873 25.7981 31.2087C25.8312 31.2321 25.8488 31.2731 25.8508 31.3258C25.8508 31.3706 25.8371 31.4096 25.8078 31.4408C25.7786 31.474 25.7337 31.4915 25.6752 31.4915H25.4373L25.4353 31.4935Z" fill="#B8B8B8"/>
<path d="M27.7139 31.1853V31.0352H27.0488V32.0786H27.7139V31.9284H27.2068V31.6222H27.6398V31.4818H27.2068V31.1853H27.7139Z" fill="#B8B8B8"/>
</g>
<defs>
<clipPath id="clip0_78_2154">
<rect width="29" height="33" fill="white"/>
</clipPath>
</defs>
</svg>
