<svg width="29" height="33" viewBox="0 0 29 33" fill="none" xmlns="http://www.w3.org/2000/svg">
<g clip-path="url(#clip0_78_2110)">
<path d="M0.60725 32.3016H0.794865V31.2322H1.13467V31.0654H0.269531V31.2322H0.60725V32.3016Z" fill="#B8B8B8"/>
<path d="M3.17682 31.0654H3.02047L2.57227 32.3016H2.77031L2.86411 32.0265H3.33317L3.42907 32.3016H3.62712L3.1789 31.0654H3.17682ZM2.91832 31.8597L3.09761 31.3198H3.09969L3.27898 31.8597H2.91623H2.91832Z" fill="#B8B8B8"/>
<path d="M5.50017 31.3321C5.52101 31.3071 5.54603 31.2862 5.5773 31.2675C5.60857 31.2508 5.6461 31.2424 5.69197 31.2404C5.75242 31.2404 5.80245 31.2591 5.84414 31.2925C5.88375 31.3279 5.91293 31.3696 5.92752 31.4196H6.12557C6.10473 31.3154 6.05886 31.2299 5.98382 31.1591C5.90877 31.0903 5.81079 31.0548 5.69197 31.0527C5.59399 31.0527 5.51267 31.0778 5.44805 31.1215C5.38134 31.1653 5.33339 31.2174 5.3042 31.2737C5.28544 31.3029 5.27085 31.3425 5.26251 31.3925C5.25417 31.4405 5.25 31.5364 5.25 31.6802C5.25 31.8241 5.25417 31.9179 5.26251 31.9679C5.26668 31.995 5.27293 32.0159 5.27919 32.0346C5.28753 32.0513 5.29378 32.0701 5.3042 32.0888C5.33339 32.1451 5.38134 32.1972 5.44805 32.2389C5.51267 32.2848 5.59399 32.3077 5.69197 32.3098C5.81705 32.3077 5.92337 32.2639 6.00467 32.1826C6.08806 32.0992 6.12975 31.995 6.13183 31.872V31.6198H5.69197V31.797H5.94421V31.8616C5.94421 31.9387 5.91919 32.0013 5.87125 32.0492C5.8233 32.0992 5.76284 32.1243 5.68988 32.1243C5.6461 32.1243 5.60857 32.1159 5.57521 32.0972C5.54394 32.0805 5.51684 32.0617 5.49808 32.0346C5.47306 32.0075 5.45847 31.9742 5.45013 31.9304C5.4418 31.8866 5.43554 31.8053 5.43554 31.6844C5.43554 31.5635 5.43971 31.4801 5.45013 31.4363C5.45847 31.3946 5.47515 31.3613 5.49808 31.3342L5.50017 31.3321Z" fill="#B8B8B8"/>
<path d="M8.46875 31.0654V32.3016H9.25886V32.1245H8.65638V31.0654H8.46875Z" fill="#B8B8B8"/>
<path d="M11.1857 31.0654H10.998V32.3016H11.1857V31.0654Z" fill="#B8B8B8"/>
<path d="M13.0098 31.0654V32.3016H13.1974V31.424H13.1995L13.7602 32.3016H13.9375V31.0654H13.7498V31.9452H13.7457L13.187 31.0654H13.0098Z" fill="#B8B8B8"/>
<path d="M16.5478 31.2426V31.0654H15.7598V32.3016H16.5478V32.1245H15.9474V31.7617H16.4602V31.5949H15.9474V31.2426H16.5478Z" fill="#B8B8B8"/>
<path d="M20.3259 32.3016V31.0654H20.1404V31.5949H19.6505V31.0654H19.4629V32.3016H19.6505V31.7617H20.1404V32.3016H20.3259Z" fill="#B8B8B8"/>
<path d="M22.9404 31.2426V31.0654H22.1523V32.3016H22.9404V32.1245H22.34V31.7617H22.8528V31.5949H22.34V31.2426H22.9404Z" fill="#B8B8B8"/>
<path d="M25.2987 31.7534C25.4551 31.6929 25.5364 31.5783 25.5384 31.4115C25.5343 31.2968 25.4947 31.2093 25.4155 31.1467C25.3487 31.0925 25.2654 31.0654 25.1632 31.0654H24.6816V32.3016H24.8693V31.7742H25.109L25.3654 32.3016H25.5885L25.3008 31.7534H25.2987ZM24.8693 31.6075V31.2322H25.1632C25.2237 31.2322 25.2695 31.2447 25.3008 31.2718C25.3404 31.301 25.3613 31.3469 25.3633 31.4115C25.3633 31.4636 25.3467 31.5095 25.3112 31.547C25.2779 31.5866 25.2237 31.6075 25.1549 31.6075H24.8714H24.8693Z" fill="#B8B8B8"/>
<path d="M28.0907 31.2426V31.0654H27.3027V32.3016H28.0907V32.1245H27.4903V31.7617H28.0032V31.5949H27.4903V31.2426H28.0907Z" fill="#B8B8B8"/>
<path d="M1.57662 29.6081C1.86014 29.6081 2.11239 29.533 2.33128 29.3829C2.55226 29.2328 2.70444 29.0244 2.792 28.7575H2.05194C1.95604 28.9431 1.7997 29.0369 1.58706 29.0369C1.37442 29.0369 1.20555 28.9702 1.08464 28.8367C0.961643 28.7033 0.901186 28.5261 0.901186 28.3031C0.901186 28.08 0.961643 27.9028 1.08464 27.7694C1.20764 27.636 1.37442 27.5693 1.58706 27.5693C1.7997 27.5693 1.95604 27.6631 2.05194 27.8486H2.792C2.70444 27.5818 2.55017 27.3733 2.33128 27.2232C2.1103 27.0731 1.85806 26.998 1.57662 26.998C1.2118 26.998 0.901194 27.121 0.648946 27.367C0.396699 27.613 0.269531 27.9236 0.269531 28.3031C0.269531 28.6825 0.396699 28.9931 0.648946 29.2391C0.901194 29.4851 1.2118 29.6081 1.57662 29.6081Z" fill="#B8B8B8"/>
<path d="M7.10808 28.305C7.10808 27.9277 6.983 27.615 6.73284 27.369C6.48268 27.123 6.17414 27 5.80724 27C5.44033 27 5.12971 27.123 4.87746 27.369C4.62521 27.615 4.49805 27.9256 4.49805 28.305C4.49805 28.6844 4.62521 28.995 4.87746 29.2431C5.12971 29.4891 5.44033 29.6142 5.80515 29.6142C6.16997 29.6142 6.47851 29.4912 6.73075 29.2431C6.983 28.9971 7.10808 28.6844 7.10808 28.305ZM6.29296 28.8387C6.16997 28.9721 6.00736 29.0388 5.80307 29.0388C5.59877 29.0388 5.43407 28.9721 5.31316 28.8387C5.19016 28.7053 5.12971 28.5281 5.12971 28.305C5.12971 28.082 5.19016 27.9048 5.31316 27.7713C5.43615 27.6379 5.59877 27.5712 5.80307 27.5712C6.00736 27.5712 6.17205 27.6379 6.29296 27.7713C6.41596 27.9048 6.47642 28.082 6.47642 28.305C6.47642 28.5281 6.41596 28.7053 6.29296 28.8387Z" fill="#B8B8B8"/>
<path d="M11.8482 27.0381H11.1374L10.4077 28.7955L9.6739 27.0381H8.96094V29.5877H9.58217V28.1492L10.1742 29.5877H10.6349L11.227 28.1492V29.5877H11.8482V27.0381Z" fill="#B8B8B8"/>
<path d="M14.4689 28.5955H14.8546C15.0318 28.5955 15.1839 28.5705 15.3132 28.5183C15.4424 28.4662 15.5404 28.3995 15.605 28.3161C15.728 28.1556 15.7906 27.9909 15.7906 27.8179C15.7906 27.6032 15.7072 27.4176 15.5446 27.2655C15.3799 27.1133 15.1506 27.0361 14.8546 27.0361H13.8477V29.5857H14.4689V28.5934V28.5955ZM14.4689 27.5094H14.8546C14.9463 27.5094 15.0213 27.5385 15.0755 27.5969C15.1318 27.6553 15.1589 27.7303 15.1589 27.82C15.1589 27.9096 15.1318 27.9847 15.0776 28.0389C15.0234 28.0952 14.9484 28.1223 14.8546 28.1223H14.4689V27.5094Z" fill="#B8B8B8"/>
<path d="M18.2629 27.0293L17.377 29.5872H18.0378L18.1796 29.1578H19.0947L19.2365 29.5872H19.9015L19.0197 27.0293H18.265H18.2629ZM18.3359 28.6866L18.6382 27.7777L18.9405 28.6866H18.338H18.3359Z" fill="#B8B8B8"/>
<path d="M23.9408 29.5872V27.0293H23.3196V28.6387L22.2814 27.0293H21.6602V29.5872H22.2814V27.9778L23.3196 29.5872H23.9408Z" fill="#B8B8B8"/>
<path d="M26.6025 28.7663V29.5877H27.2238V28.7663L28.1056 27.0381H27.401L26.9152 28.1888L26.4253 27.0381H25.7207L26.6025 28.7663Z" fill="#B8B8B8"/>
<path d="M15.8875 3.39355C16.2794 3.94391 16.5963 4.55056 16.8235 5.20098C17.107 5.23851 17.3885 5.29062 17.6616 5.35525C17.7074 5.36567 17.7533 5.37818 17.7991 5.3886C17.8096 5.39069 17.8221 5.39486 17.8325 5.39694C17.8909 5.41155 17.9492 5.42821 18.0076 5.44489C18.0076 5.44489 18.0076 5.44489 18.0097 5.44489C18.066 5.45948 18.1223 5.47616 18.1765 5.49492C18.2244 5.50952 18.2724 5.52411 18.3203 5.54079C18.3704 5.55746 18.4183 5.57414 18.4683 5.59082C18.5142 5.60541 18.5601 5.62209 18.6059 5.64085C18.6518 5.65753 18.6956 5.67421 18.7414 5.69297C19.0062 5.79512 19.2647 5.91186 19.5149 6.04111C19.5753 6.07238 19.6337 6.10157 19.692 6.13492C19.7921 6.18912 19.8901 6.24541 19.9881 6.30378C20.0298 6.3288 20.0715 6.35382 20.1111 6.37883C20.1298 6.38925 20.1507 6.40176 20.1694 6.41427C20.2132 6.44137 20.257 6.47056 20.2987 6.49974C20.3404 6.52684 20.3821 6.55395 20.4217 6.58313C20.9012 6.91043 21.3431 7.28984 21.7434 7.70886C21.7913 7.75681 21.8351 7.80476 21.8789 7.85479C21.9164 7.8944 21.9519 7.9361 21.9873 7.9757C22.0457 8.04241 22.102 8.10913 22.1582 8.17793C22.1937 8.21754 22.2249 8.25922 22.2583 8.30092C22.3021 8.3572 22.3459 8.41349 22.3876 8.46978C22.4272 8.52398 22.4668 8.57818 22.5043 8.63238C22.5439 8.68658 22.5814 8.74079 22.619 8.79707C22.694 8.90756 22.7649 9.01806 22.8337 9.13272C22.8691 9.189 22.9025 9.24738 22.9358 9.30575C22.9692 9.36412 23.0025 9.42248 23.0338 9.48085C23.1026 9.60802 23.1693 9.73727 23.2298 9.86652C23.2548 9.91864 23.2798 9.97075 23.3027 10.0229C23.3257 10.075 23.3486 10.1271 23.3715 10.1792C23.3924 10.2251 23.4111 10.2709 23.4299 10.3189C23.4466 10.3627 23.4653 10.4044 23.482 10.4481C23.5237 10.5566 23.5654 10.667 23.6008 10.7775C23.6238 10.8422 23.6446 10.9068 23.6634 10.9714C23.6634 10.9714 23.6634 10.9756 23.6655 10.9797C23.6842 11.0423 23.703 11.1048 23.7197 11.1674C23.7718 11.3466 23.8156 11.528 23.8552 11.7115C23.8656 11.7573 23.8739 11.8053 23.8844 11.8511C23.8885 11.8782 23.8948 11.9053 23.899 11.9304C23.9052 11.9658 23.9115 12.0012 23.9177 12.0388C23.9261 12.0909 23.9344 12.1409 23.9427 12.193C23.9511 12.2452 23.9594 12.2973 23.9657 12.3494C23.9677 12.3723 23.9719 12.3952 23.974 12.4182C23.9782 12.4557 23.9824 12.4953 23.9865 12.5328C23.9907 12.5704 23.9949 12.6058 23.9969 12.6433C24.0032 12.6996 24.0074 12.7559 24.0115 12.8122C24.0157 12.8789 24.0199 12.9456 24.024 13.0123C24.0282 13.0832 24.0303 13.1541 24.0324 13.225C24.0324 13.2958 24.0345 13.3667 24.0345 13.4376C24.0345 18.0156 20.3091 21.7409 15.7311 21.7409C15.6603 21.7409 15.5873 21.7409 15.5164 21.7388C15.4455 21.7388 15.3747 21.7347 15.3038 21.7305C15.235 21.7284 15.1641 21.7242 15.0953 21.718H15.087C15.0223 21.7138 14.9577 21.7076 14.8931 21.7013C14.8368 21.6951 14.7826 21.6888 14.7263 21.6825C14.6909 21.6784 14.6575 21.6742 14.6221 21.67C14.572 21.6638 14.5241 21.6575 14.4761 21.6492C14.472 21.6492 14.4678 21.6492 14.4636 21.6492C14.4136 21.6429 14.3657 21.6346 14.3177 21.6263C14.276 21.62 14.2343 21.6117 14.1947 21.6033C14.1343 21.5929 14.0738 21.5804 14.0154 21.5679C13.6923 21.4991 13.3734 21.4115 13.0627 21.3052C13.0023 21.2844 12.9418 21.2635 12.8814 21.2406C12.823 21.2197 12.7646 21.1968 12.7042 21.1739C12.6249 21.1426 12.5457 21.1093 12.4665 21.0759C12.4165 21.0551 12.3664 21.0342 12.3185 21.0113C12.2664 20.9883 12.2122 20.9612 12.158 20.9362C12.0913 20.9029 12.0225 20.8716 11.9558 20.8362C11.9016 20.807 11.8453 20.7799 11.7911 20.7486C11.7285 20.7132 11.666 20.6798 11.6035 20.6423C11.5451 20.6089 11.4888 20.5756 11.4304 20.5401C11.4304 20.5401 11.4283 20.5401 11.4263 20.5401C11.3199 20.4776 11.2178 20.4109 11.1156 20.3421C11.1073 20.3379 11.099 20.3317 11.0927 20.3254C11.0385 20.2879 10.9843 20.2504 10.9301 20.2128C10.8759 20.1753 10.8217 20.1357 10.7696 20.0961C10.7154 20.0565 10.6633 20.0169 10.6111 19.9752C10.5674 19.9418 10.5257 19.9085 10.484 19.873C10.4173 19.8188 10.3505 19.7625 10.2838 19.7063C10.2401 19.6687 10.1963 19.6291 10.1546 19.5916C10.1046 19.5457 10.0566 19.502 10.0087 19.454C9.96071 19.4081 9.91276 19.3623 9.86481 19.3143C9.77309 19.2226 9.68345 19.1288 9.59589 19.0329C9.55003 18.9808 9.50209 18.9287 9.45831 18.8766C9.37075 18.7765 9.28736 18.6764 9.20606 18.5722C9.15603 18.5096 9.10807 18.445 9.06013 18.3804C9.03094 18.3429 9.00385 18.3053 8.97675 18.2657C8.96841 18.2532 8.95798 18.2407 8.94965 18.2282C8.91629 18.1803 8.88293 18.1323 8.84957 18.0844C8.81622 18.0364 8.78703 17.9906 8.75576 17.9426C8.71198 17.8759 8.6682 17.8071 8.62651 17.7383C8.5598 17.6278 8.49517 17.5152 8.43263 17.4006C8.31172 17.1817 8.20333 16.9545 8.10326 16.721C8.08033 16.6668 8.0574 16.6147 8.03655 16.5605C8.03655 16.5605 8.03655 16.5563 8.03446 16.5521C8.01779 16.5104 8.00111 16.4708 7.98652 16.4312C7.97193 16.3937 7.95733 16.3562 7.94274 16.3186C7.92814 16.279 7.91355 16.2394 7.90104 16.1998C7.88019 16.1435 7.86144 16.0872 7.84267 16.0309C7.82391 15.9747 7.80515 15.9163 7.78847 15.8579C7.78639 15.8537 7.7843 15.8475 7.7843 15.8412C7.76762 15.787 7.75094 15.7287 7.73427 15.6724C7.71759 15.6119 7.70091 15.5515 7.68424 15.491C7.63837 15.3076 7.59668 15.122 7.56332 14.9365C7.5529 14.8739 7.54247 14.8114 7.53205 14.7489C7.52162 14.6863 7.51328 14.6238 7.50494 14.5592C6.85452 14.334 6.2458 14.0171 5.69336 13.6273C5.78717 19.0913 10.2463 23.4921 15.7332 23.4921C21.2201 23.4921 25.7752 18.9975 25.7752 13.4501C25.7752 7.90274 21.3598 3.48945 15.8833 3.41023L15.8875 3.39355ZM7.47368 12.6454C7.47993 12.585 7.48618 12.5224 7.49244 12.462C7.49869 12.4015 7.50704 12.339 7.51538 12.2785C7.52372 12.218 7.53206 12.1576 7.54248 12.0971C7.55082 12.0367 7.56332 11.9762 7.57374 11.9179C7.6196 11.6781 7.67381 11.4405 7.73844 11.2091C7.75303 11.1528 7.77179 11.0944 7.78847 11.036C7.80098 10.9902 7.81557 10.9464 7.83017 10.9005C7.83434 10.8818 7.84058 10.8609 7.84892 10.8442C7.8656 10.7942 7.88228 10.7442 7.90104 10.6941C7.91563 10.6504 7.93022 10.6066 7.94898 10.5628C7.95941 10.5357 7.96984 10.5086 7.98026 10.4815C8.01778 10.3835 8.05531 10.2897 8.09491 10.1938C8.14286 10.0833 8.19082 9.97285 8.24502 9.86444C8.27003 9.81233 8.29505 9.7602 8.32006 9.71017C8.33466 9.67681 8.35342 9.64555 8.3701 9.6122C8.38886 9.57259 8.4097 9.53505 8.43055 9.49753C8.4368 9.48502 8.44515 9.47043 8.45349 9.45792C8.48059 9.4058 8.50977 9.35577 8.53895 9.30365C8.56606 9.25779 8.59316 9.21194 8.61817 9.16607C8.64319 9.12646 8.66612 9.08684 8.69113 9.04932C8.71406 9.01388 8.737 8.97844 8.75993 8.94092C8.85583 8.7929 8.95589 8.64698 9.06013 8.50731C9.09557 8.45936 9.13101 8.41349 9.16645 8.36554C9.19355 8.3301 9.22066 8.29466 9.24984 8.25922C9.33323 8.15499 9.4187 8.05075 9.50834 7.95069C9.54378 7.90899 9.5813 7.8673 9.61882 7.82769C9.69804 7.74013 9.77935 7.65675 9.86274 7.57336C9.8961 7.54 9.92945 7.50665 9.96489 7.47329C10.0191 7.42118 10.0712 7.36906 10.1254 7.32111C10.165 7.28359 10.2046 7.24815 10.2463 7.21271C10.3193 7.14808 10.3943 7.08554 10.4673 7.023C10.5048 6.99173 10.5444 6.96046 10.5819 6.92919C10.7487 6.79577 10.9218 6.6686 11.099 6.54978C11.149 6.51434 11.2011 6.48098 11.2532 6.44763C11.2949 6.42053 11.3345 6.39551 11.3762 6.37049C11.4075 6.35173 11.4388 6.33088 11.47 6.31421C11.5159 6.28502 11.5618 6.25792 11.6097 6.2329C11.6681 6.19746 11.7264 6.16619 11.7848 6.13492C11.8432 6.10157 11.9036 6.0703 11.962 6.04111C12.0204 6.00984 12.0808 5.98066 12.1413 5.95147C12.1455 5.95147 12.1476 5.94939 12.1517 5.9473C12.258 5.89518 12.3664 5.84724 12.4749 5.79929C12.5562 5.76385 12.6375 5.73049 12.7208 5.69922C12.775 5.67629 12.8293 5.65544 12.8855 5.63668C12.9335 5.61792 12.9835 5.60124 13.0315 5.58456C13.0565 5.57623 13.0815 5.56789 13.1065 5.55746C13.1607 5.54079 13.2149 5.52202 13.2691 5.50535C13.3337 5.4845 13.3984 5.46574 13.4651 5.44697C13.5297 5.42821 13.5964 5.40945 13.6631 5.39277C13.7215 5.37818 13.7799 5.36359 13.8382 5.34899C13.882 5.33857 13.9279 5.32815 13.9717 5.31981C13.9904 5.31564 14.0113 5.31147 14.03 5.3073C14.0634 5.30105 14.0967 5.29479 14.1322 5.28645C14.1906 5.27603 14.251 5.26352 14.3094 5.2531C14.3532 5.24684 14.3948 5.23851 14.4365 5.23225C14.4824 5.22391 14.5262 5.21766 14.572 5.21141C14.6888 5.19473 14.8055 5.18013 14.9244 5.16971C14.6325 4.57557 14.2343 4.03981 13.759 3.58535C9.78976 4.37961 6.66482 7.51082 5.88515 11.4842C6.33961 11.9595 6.87537 12.3536 7.47159 12.6454H7.47368Z" fill="#B8B8B8"/>
<path d="M17.1134 6.28319C16.6672 6.19771 16.2086 6.15185 15.7375 6.15185C15.5915 6.15185 15.4456 6.15602 15.3038 6.16436C15.431 6.63133 15.4998 7.12332 15.4998 7.62781C15.4998 10.7048 12.9961 13.2085 9.91909 13.2085C9.41876 13.2085 8.93303 13.1418 8.47231 13.0167C8.46606 13.1543 8.46189 13.2898 8.46189 13.4295C8.46189 13.9069 8.50776 14.3739 8.5974 14.8263C9.02685 14.9055 9.4688 14.9451 9.92326 14.9451C13.9655 14.9451 17.2426 11.668 17.2426 7.62573C17.2426 7.16501 17.1988 6.7168 17.1196 6.27902L17.1134 6.28319ZM9.917 0.310547C5.87479 0.310547 2.59766 3.58768 2.59766 7.6299C2.59766 9.62703 3.39817 11.4366 4.69277 12.7562C4.74072 11.9577 4.87205 11.176 5.08469 10.4213C4.6073 9.59993 4.33629 8.64514 4.33629 7.6299C4.33629 4.55289 6.84 2.04918 9.917 2.04918C10.9281 2.04918 11.8787 2.31811 12.6959 2.79133C13.4506 2.57661 14.2302 2.44319 15.0287 2.39315C13.7111 1.10482 11.9058 0.310547 9.917 0.310547Z" fill="#B8B8B8"/>
</g>
<defs>
<clipPath id="clip0_78_2110">
<rect width="29" height="33" fill="white"/>
</clipPath>
</defs>
</svg>
