<svg width="36" height="33" viewBox="0 0 36 33" fill="none" xmlns="http://www.w3.org/2000/svg">
<g clip-path="url(#clip0_78_2268)">
<path d="M10.9852 22.8443V22.8402L10.1418 21.3807L3.46219 9.81055H1.77539L9.29842 22.8402V22.8443H9.30047H10.9832H10.9852Z" fill="#5E29D6"/>
<path d="M17.7234 22.8443V22.8402L16.88 21.3807L16.0387 19.9231L15.1953 18.4636L14.3539 17.004L13.5105 15.5444L10.2004 9.81055H8.51562L12.6671 17.004L13.5105 18.4636L14.3539 19.9231L15.1953 21.3807L16.0387 22.8402L16.0366 22.8443H16.0387H17.7214H17.7234Z" fill="#5E29D6"/>
<path d="M20.2491 21.3807L19.4078 19.9231L18.5644 18.4636L17.7231 17.004L16.8796 15.5444L16.0383 14.0869L15.1949 12.6273L13.5695 9.81055H11.8848L14.3515 14.0849L16.0383 17.004L16.8796 18.4636L17.7231 19.9231L18.5644 21.3807L19.4078 22.8402L19.4057 22.8443H19.4078H21.0905H21.0925V22.8402L20.2491 21.3807Z" fill="#5E29D6"/>
<path d="M23.8811 0.5H22.1963L16.0469 11.153L16.8882 12.6126L23.8811 0.5Z" fill="#5E29D6"/>
<path d="M12.6695 22.8443H14.3522H14.3543V22.8402L13.5109 21.3807L12.6695 19.9231L11.8261 18.4636L6.83124 9.81055H5.14648L10.9827 19.9211L11.8261 21.3807L12.6695 22.8402L12.6675 22.8443H12.6695Z" fill="#5E29D6"/>
<path d="M18.5738 15.5297L27.2514 0.5H25.5666L17.7324 14.0701L17.7406 14.0865L18.5738 15.5297Z" fill="#5E29D6"/>
<path d="M20.2574 18.4488L30.6197 0.5H28.935L19.416 16.9893L19.4242 17.0036L20.2574 18.4488Z" fill="#5E29D6"/>
<path d="M33.99 0.5H32.3052L21.1016 19.9063L21.1097 19.9227L21.9429 21.3659L33.99 0.5Z" fill="#5E29D6"/>
<path d="M2.85324 28.9359C2.68743 29.0894 2.46019 29.1836 2.21454 29.1836C1.69254 29.1836 1.27084 28.7659 1.27084 28.2439C1.27084 27.7219 1.69254 27.3043 2.21454 27.3043C2.45815 27.3043 2.68743 27.4005 2.85324 27.5561L3.29745 27.1078C3.01496 26.8376 2.6342 26.6738 2.21659 26.6738C1.35068 26.6738 0.646484 27.378 0.646484 28.2439C0.646484 29.1099 1.35068 29.8141 2.21659 29.8141C2.6342 29.8141 3.017 29.6482 3.29745 29.3801L2.85324 28.9359Z" fill="#5E29D6"/>
<path d="M7.43534 26.6738C6.56943 26.6738 5.86523 27.378 5.86523 28.2439C5.86523 29.1099 6.56943 29.8141 7.43534 29.8141C8.30126 29.8141 9.00546 29.1099 9.00546 28.2439C9.00546 27.378 8.30126 26.6738 7.43534 26.6738ZM7.43534 29.1876C6.91334 29.1876 6.49164 28.7659 6.49164 28.2439C6.49164 27.7219 6.91334 27.3043 7.43534 27.3043C7.95735 27.3043 8.37496 27.726 8.37496 28.2439C8.37496 28.7619 7.95326 29.1876 7.43534 29.1876Z" fill="#5E29D6"/>
<path d="M13.374 28.9686L12.4548 26.6738H11.7793V29.8141H12.4057V28.2439L13.0342 29.8141H13.7097L14.3402 28.2439V29.8141H14.9646V26.6738H14.289L13.374 28.9686Z" fill="#5E29D6"/>
<path d="M18.6184 26.6738H17.7402V29.8141H18.3666V28.5592H18.6225C19.1404 28.5592 19.558 28.1375 19.558 27.6196C19.558 27.1017 19.1404 26.6759 18.6184 26.6759V26.6738ZM18.6184 27.9287H18.3666V27.3023H18.6184C18.7924 27.3023 18.9337 27.4435 18.9337 27.6175C18.9337 27.7915 18.7924 27.9287 18.6184 27.9287Z" fill="#5E29D6"/>
<path d="M23.054 26.6738L21.9199 29.8141H22.5873L22.9066 28.9359H23.8708L24.1901 29.8141H24.8575L23.7234 26.6738H23.0561H23.054ZM23.1318 28.3054L23.3836 27.5971L23.6395 28.3054H23.1297H23.1318Z" fill="#5E29D6"/>
<path d="M30.161 26.6738H29.5366V28.77L28.2818 26.6738H27.5469V29.8141H28.1733V27.7219L29.4322 29.8141H30.161V26.6738Z" fill="#5E29D6"/>
<path d="M34.3008 29.8141V28.3176L35.1196 26.6738H34.4195L33.9896 27.5438L33.5536 26.6738H32.8535L33.6744 28.3176V29.8141H34.3008Z" fill="#5E29D6"/>
<path d="M0.640625 31.3393H1.00296V32.4898H1.20562V31.3393H1.57V31.1592H0.640625V31.3393Z" fill="#5E29D6"/>
<path d="M3.03975 31.1592L2.55664 32.4898H2.76954L2.87189 32.193H3.37547L3.47783 32.4898H3.69073L3.20761 31.1592H3.03975ZM2.93125 32.0128L3.12368 31.4314H3.12778L3.3202 32.0128H2.93125Z" fill="#5E29D6"/>
<path d="M5.35598 31.947H5.62619V32.0166C5.62619 32.1005 5.59957 32.1681 5.5484 32.2192C5.49722 32.2725 5.43172 32.2991 5.35393 32.2991C5.30684 32.2991 5.2659 32.2888 5.2311 32.2684C5.1963 32.252 5.16764 32.2295 5.14717 32.2008C5.12056 32.1722 5.10418 32.1353 5.09599 32.0882C5.08576 32.0411 5.08166 31.9531 5.08166 31.8221C5.08166 31.6911 5.08576 31.6031 5.09599 31.5539C5.10418 31.5089 5.1226 31.4721 5.14717 31.4434C5.16764 31.4168 5.1963 31.3922 5.2311 31.3758C5.2659 31.3574 5.30684 31.3492 5.35393 31.3472C5.41943 31.3472 5.47266 31.3677 5.51769 31.4025C5.56068 31.4393 5.59139 31.4864 5.60776 31.5396H5.82066C5.80019 31.4291 5.74901 31.3349 5.66713 31.2592C5.58525 31.1834 5.48085 31.1466 5.35393 31.1445C5.24953 31.1445 5.1615 31.1711 5.0919 31.2203C5.02025 31.2673 4.96907 31.3226 4.93632 31.384C4.91585 31.4168 4.90152 31.4577 4.89128 31.5109C4.8831 31.5642 4.87695 31.6665 4.87695 31.8221C4.87695 31.9777 4.88105 32.078 4.89128 32.1312C4.89538 32.1599 4.90152 32.1844 4.90971 32.2029C4.9179 32.2213 4.92608 32.2397 4.93632 32.2602C4.96907 32.3216 5.02025 32.3748 5.0919 32.4219C5.1615 32.471 5.24953 32.4956 5.35393 32.4976C5.48903 32.4956 5.60162 32.4485 5.69169 32.3605C5.77972 32.2704 5.8268 32.1578 5.82885 32.0248V31.7545H5.35598V31.9449V31.947Z" fill="#5E29D6"/>
<path d="M7.38625 31.1592H7.18359V32.4898H8.03313V32.2994H7.38625V31.1592Z" fill="#5E29D6"/>
<path d="M9.54836 31.1592H9.3457V32.4898H9.54836V31.1592Z" fill="#5E29D6"/>
<path d="M11.7436 32.1049H11.7395L11.1376 31.1592H10.9473V32.4898H11.1479V31.544H11.152L11.7538 32.4898H11.9442V31.1592H11.7436V32.1049Z" fill="#5E29D6"/>
<path d="M13.3457 32.4898H14.1952V32.2994H13.5484V31.9084H14.1011V31.7283H13.5484V31.3496H14.1952V31.1592H13.3457V32.4898Z" fill="#5E29D6"/>
<path d="M17.5083 31.947H17.7785V32.0166C17.7785 32.1005 17.7519 32.1681 17.7007 32.2192C17.6496 32.2725 17.5841 32.2991 17.5063 32.2991C17.4592 32.2991 17.4182 32.2888 17.3834 32.2684C17.3486 32.252 17.32 32.2295 17.2995 32.2008C17.2729 32.1722 17.2565 32.1353 17.2483 32.0882C17.2381 32.0411 17.234 31.9531 17.234 31.8221C17.234 31.6911 17.2381 31.6031 17.2483 31.5539C17.2565 31.5089 17.2749 31.4721 17.2995 31.4434C17.32 31.4168 17.3486 31.3922 17.3834 31.3758C17.4182 31.3574 17.4592 31.3492 17.5063 31.3472C17.5697 31.3472 17.625 31.3677 17.67 31.4025C17.713 31.4393 17.7437 31.4864 17.7601 31.5396H17.973C17.9525 31.4291 17.9014 31.3349 17.8195 31.2592C17.7376 31.1834 17.6332 31.1466 17.5063 31.1445C17.4019 31.1445 17.3138 31.1711 17.2442 31.2203C17.1726 31.2673 17.1214 31.3226 17.0887 31.384C17.0682 31.4168 17.0539 31.4577 17.0436 31.5109C17.0354 31.5642 17.0293 31.6665 17.0293 31.8221C17.0293 31.9777 17.0334 32.078 17.0436 32.1312C17.0477 32.1599 17.0539 32.1844 17.062 32.2029C17.0702 32.2213 17.0784 32.2397 17.0887 32.2602C17.1214 32.3216 17.1726 32.3748 17.2442 32.4219C17.3138 32.471 17.4019 32.4956 17.5063 32.4976C17.6414 32.4956 17.754 32.4485 17.844 32.3605C17.9321 32.2704 17.9791 32.1578 17.9812 32.0248V31.7545H17.5083V31.9449V31.947Z" fill="#5E29D6"/>
<path d="M20.1835 31.387C20.1528 31.3256 20.1017 31.2703 20.0321 31.2232C19.9625 31.1741 19.8724 31.1495 19.768 31.1475C19.6636 31.1475 19.5756 31.1741 19.506 31.2232C19.4343 31.2703 19.3831 31.3256 19.3504 31.387C19.3299 31.4197 19.3156 31.4607 19.3053 31.5139C19.2972 31.5671 19.291 31.6695 19.291 31.8251C19.291 31.9806 19.2951 32.0809 19.3053 32.1342C19.3094 32.1628 19.3156 32.1874 19.3238 32.2058C19.332 32.2242 19.3401 32.2427 19.3504 32.2631C19.3831 32.3245 19.4343 32.3778 19.506 32.4249C19.5756 32.474 19.6636 32.4985 19.768 32.5006C19.8744 32.4985 19.9625 32.4719 20.0321 32.4249C20.1017 32.3778 20.1528 32.3245 20.1835 32.2631C20.2061 32.2304 20.2224 32.1874 20.2306 32.1342C20.2388 32.0809 20.2429 31.9786 20.2429 31.8251C20.2429 31.6715 20.2388 31.5671 20.2306 31.5139C20.2224 31.4607 20.2061 31.4197 20.1835 31.387ZM20.0259 32.0891C20.0157 32.1362 19.9973 32.1731 19.9727 32.2017C19.9522 32.2283 19.9256 32.2509 19.8929 32.2693C19.8581 32.2897 19.8151 32.3 19.768 32.3C19.7209 32.3 19.68 32.2897 19.6452 32.2693C19.6104 32.2529 19.5817 32.2304 19.5612 32.2017C19.5346 32.1731 19.5182 32.1362 19.5101 32.0891C19.4998 32.042 19.4957 31.954 19.4957 31.823C19.4957 31.692 19.4998 31.604 19.5101 31.5548C19.5182 31.5098 19.5367 31.473 19.5612 31.4443C19.5817 31.4177 19.6104 31.3931 19.6452 31.3767C19.68 31.3583 19.7209 31.3501 19.768 31.3481C19.8151 31.3481 19.8581 31.3583 19.8929 31.3767C19.9256 31.3952 19.9522 31.4177 19.9727 31.4443C19.9993 31.473 20.0177 31.5098 20.0259 31.5548C20.0341 31.6019 20.0402 31.692 20.0402 31.823C20.0402 31.954 20.0362 32.042 20.0259 32.0891Z" fill="#5E29D6"/>
<path d="M21.5996 32.4898H22.4491V32.2994H21.8023V31.9084H22.355V31.7283H21.8023V31.3496H22.4491V31.1592H21.5996V32.4898Z" fill="#5E29D6"/>
<path d="M24.2526 31.7298C24.1891 31.7216 24.14 31.7155 24.1032 31.7093C24.0377 31.697 23.9906 31.6745 23.9599 31.6438C23.9292 31.6131 23.9148 31.5783 23.9148 31.5394C23.9148 31.476 23.9374 31.4268 23.9824 31.3961C24.0233 31.3654 24.0745 31.349 24.138 31.349C24.2587 31.3511 24.3672 31.3859 24.4675 31.4514L24.5801 31.2856C24.4573 31.1976 24.314 31.1505 24.1482 31.1484C24.011 31.1484 23.9046 31.1853 23.8289 31.2569C23.7511 31.3286 23.7122 31.4227 23.7122 31.5374C23.7122 31.6336 23.7429 31.7155 23.8043 31.783C23.8637 31.8485 23.9517 31.8915 24.0663 31.9099C24.1298 31.9181 24.1891 31.9263 24.2424 31.9345C24.3591 31.955 24.4164 32.0143 24.4164 32.1126C24.4143 32.2334 24.3263 32.2948 24.1543 32.2968C24.009 32.2968 23.8821 32.2518 23.7756 32.1638L23.6426 32.3153C23.7838 32.436 23.9537 32.4975 24.1503 32.4975C24.4553 32.4934 24.6109 32.3644 24.617 32.1106C24.617 32.0164 24.5883 31.9345 24.529 31.8629C24.4696 31.7912 24.3775 31.7462 24.2526 31.7277V31.7298Z" fill="#5E29D6"/>
<path d="M28.2501 31.7283H27.724V31.1592H27.5234V32.4898H27.724V31.9084H28.2501V32.4898H28.4528V31.1592H28.2501V31.7283Z" fill="#5E29D6"/>
<path d="M29.8535 32.4898H30.7031V32.2994H30.0562V31.9084H30.6089V31.7283H30.0562V31.3496H30.7031V31.1592H29.8535V32.4898Z" fill="#5E29D6"/>
<path d="M32.9369 31.5298C32.9328 31.407 32.8898 31.3128 32.8038 31.2453C32.7342 31.1879 32.6442 31.1572 32.5336 31.1572H32.0137V32.4878H32.2163V31.9187H32.4743L32.7486 32.4878H32.9881L32.679 31.8983C32.8489 31.8328 32.9328 31.7099 32.9369 31.5298ZM32.2163 31.7406V31.3374H32.5316C32.595 31.3374 32.6462 31.3517 32.679 31.3783C32.722 31.409 32.7445 31.4602 32.7465 31.5298C32.7465 31.5871 32.7281 31.6362 32.6913 31.6751C32.6544 31.7181 32.5971 31.7386 32.5213 31.7406H32.2163Z" fill="#5E29D6"/>
<path d="M34.2754 32.4898H35.1249V32.2994H34.476V31.9084H35.0308V31.7283H34.476V31.3496H35.1249V31.1592H34.2754V32.4898Z" fill="#5E29D6"/>
</g>
<defs>
<clipPath id="clip0_78_2268">
<rect width="36" height="33" fill="white"/>
</clipPath>
</defs>
</svg>
