<svg width="26" height="33" viewBox="0 0 26 33" fill="none" xmlns="http://www.w3.org/2000/svg">
<g clip-path="url(#clip0_78_2058)">
<path d="M10.9737 2.37268C11.0011 2.37268 11.0307 2.37268 11.0581 2.37724C11.2201 2.38409 11.3821 2.39321 11.5509 2.4069C12.3107 2.46166 13.0453 2.57345 13.7389 2.73543V0.971852C13.0293 0.791615 12.2696 0.670697 11.4802 0.61366C11.1904 0.590845 10.8824 0.577158 10.5653 0.570312C10.4809 0.570312 10.3965 0.570312 10.3098 0.570312H10.303C8.81999 0.570312 7.29597 0.766519 5.76966 1.15209C4.03573 1.58785 2.37481 2.26089 0.951172 3.10047V20.572C2.34059 19.8123 3.91025 19.2031 5.54151 18.7925C6.83054 18.4685 8.1287 18.27 9.39948 18.2038H9.41089H9.41545C9.42686 18.2038 9.43827 18.2038 9.4474 18.2038C9.66642 18.1924 9.88316 18.1856 10.1067 18.1833V16.3946C8.46636 16.4106 6.78263 16.6342 5.10118 17.0563C4.49659 17.2091 3.91025 17.3825 3.36042 17.5696L2.73986 17.7818V4.15679L3.00678 4.02903C4.00607 3.5522 5.08293 3.16663 6.20541 2.88373C7.31649 2.60311 8.42529 2.43428 9.50215 2.37724C9.52496 2.37724 9.54321 2.37496 9.5569 2.37496C9.80558 2.36355 10.0566 2.35671 10.303 2.35671C10.3942 2.35671 10.4832 2.35671 10.5722 2.35899H10.5836C10.7136 2.36127 10.8437 2.36583 10.9737 2.37268Z" fill="#B8B8B8"/>
<path d="M15.3855 4.2191C14.9748 4.2191 14.5664 4.20543 14.174 4.17577C13.6972 4.14154 13.2226 4.08451 12.7663 4.00694C12.488 3.95903 12.2142 3.90426 11.9473 3.84266V21.118C12.9967 21.385 14.1512 21.5218 15.3855 21.5218C16.8661 21.5218 18.3924 21.3256 19.921 20.9424C21.6527 20.5043 23.3136 19.8336 24.7395 18.994V1.82812C23.3501 2.58785 21.7804 3.197 20.1515 3.60767C18.5476 4.01149 16.9437 4.21683 15.3877 4.21683L15.3855 4.2191ZM22.328 4.51798L22.9485 4.30808V17.9354L22.6816 18.0631C21.6846 18.5377 20.6078 18.9232 19.4807 19.2061C18.0958 19.5552 16.7178 19.7332 15.3855 19.7332C14.9725 19.7332 14.5618 19.7149 14.1649 19.6807L13.7359 19.6442V17.9947H13.7382V6.12871V5.62678L14.2379 5.65872C14.6006 5.68153 14.9771 5.69295 15.3855 5.69295C17.092 5.69295 18.8419 5.46936 20.5872 5.02904C21.1736 4.88074 21.7599 4.70735 22.3303 4.51571L22.328 4.51798Z" fill="#B8B8B8"/>
<path d="M2.1642 26.5423C1.98624 26.3552 1.75353 26.2617 1.46835 26.2617C1.32233 26.2617 1.18772 26.2868 1.0668 26.337C0.945885 26.3872 0.840938 26.4556 0.754242 26.5423C0.667546 26.629 0.599105 26.734 0.551194 26.8526C0.503283 26.9712 0.480469 27.1013 0.480469 27.2405V29.5744C0.480469 29.7683 0.510127 29.928 0.571726 30.0535C0.633326 30.179 0.710896 30.2817 0.806718 30.3592C0.90254 30.4391 1.00977 30.4938 1.12841 30.5258C1.24704 30.5577 1.36568 30.5737 1.47976 30.5737C1.61436 30.5737 1.73984 30.5463 1.85848 30.4938C1.97483 30.4414 2.0775 30.3684 2.1642 30.2771C2.2509 30.1858 2.31934 30.0809 2.36953 29.9645C2.41972 29.8482 2.44482 29.7227 2.44482 29.5927V29.3303H1.83794V29.5379C1.83794 29.6223 1.82654 29.6908 1.80144 29.7455C1.77862 29.8003 1.74669 29.8459 1.71247 29.8756C1.67368 29.9075 1.63033 29.9303 1.5847 29.944C1.53907 29.9577 1.49573 29.9645 1.45694 29.9645C1.31777 29.9645 1.22194 29.9235 1.16719 29.8391C1.11243 29.7547 1.08734 29.652 1.08734 29.5288V27.3614C1.08734 27.2176 1.11244 27.1013 1.16263 27.0078C1.21282 26.9142 1.31321 26.8686 1.46378 26.8686C1.57786 26.8686 1.66911 26.9119 1.73756 26.9986C1.806 27.0853 1.83794 27.1903 1.83794 27.3089V27.512H2.44482V27.2747C2.44482 27.1287 2.41972 26.9918 2.36953 26.8663C2.31934 26.7408 2.2509 26.6336 2.1642 26.5423Z" fill="#B8B8B8"/>
<path d="M5.80747 26.5176C5.70708 26.4332 5.59757 26.3716 5.47666 26.3259C5.35574 26.2826 5.23253 26.2598 5.10933 26.2598C4.98613 26.2598 4.86522 26.2826 4.74202 26.3259C4.6211 26.3693 4.51387 26.4332 4.41805 26.5176C4.31766 26.6043 4.2401 26.7138 4.18078 26.8461C4.12146 26.9761 4.0918 27.129 4.0918 27.2978V29.536C4.0918 29.7139 4.12146 29.8668 4.18078 29.9945C4.2401 30.1223 4.31994 30.2273 4.41805 30.3094C4.51387 30.3961 4.6211 30.4622 4.74202 30.5056C4.86294 30.5489 4.98613 30.5718 5.10933 30.5718C5.23253 30.5718 5.35346 30.5489 5.47666 30.5056C5.59757 30.4622 5.70708 30.3961 5.80747 30.3094C5.90329 30.225 5.98086 30.12 6.04018 29.9945C6.0995 29.8668 6.12915 29.7139 6.12915 29.536V27.2978C6.12915 27.1267 6.0995 26.9761 6.04018 26.8461C5.98086 26.7161 5.90329 26.6065 5.80747 26.5176ZM5.52228 29.536C5.52228 29.682 5.48122 29.7915 5.39909 29.8599C5.31695 29.9284 5.22113 29.9649 5.10933 29.9649C4.99754 29.9649 4.90172 29.9307 4.81959 29.8599C4.73746 29.7915 4.69867 29.682 4.69867 29.536V27.2978C4.69867 27.1518 4.73974 27.0423 4.81959 26.9739C4.90172 26.9054 4.99754 26.8689 5.10933 26.8689C5.22113 26.8689 5.31695 26.9031 5.39909 26.9739C5.48122 27.0423 5.52228 27.1518 5.52228 27.2978V29.536Z" fill="#B8B8B8"/>
<path d="M10.5955 30.5369V26.2979H10.0046L9.2312 28.5406H9.21979L8.43953 26.2979H7.85547V30.5369H8.46234V27.9589H8.47603L9.0715 29.7795H9.37493L9.97496 27.9589H9.98865V30.5369H10.5955Z" fill="#B8B8B8"/>
<path d="M14.0545 26.5958C13.9519 26.484 13.8355 26.4064 13.71 26.363C13.5822 26.3197 13.4362 26.2969 13.2697 26.2969H12.3594V30.5359H12.9662V28.8795H13.2765C13.5024 28.8795 13.6849 28.8407 13.8241 28.7632C13.9633 28.6856 14.075 28.5784 14.1572 28.4392C14.2279 28.3251 14.2758 28.2019 14.2964 28.0696C14.3192 27.9395 14.3283 27.7776 14.3283 27.5882C14.3283 27.335 14.3078 27.1319 14.269 26.9836C14.2302 26.8353 14.1572 26.7053 14.0545 26.5935V26.5958ZM13.7488 27.8871C13.742 27.9738 13.7237 28.0468 13.6918 28.1084C13.6598 28.1723 13.6096 28.2225 13.5435 28.2567C13.475 28.2932 13.3815 28.3091 13.2583 28.3091H12.9662V26.8673H13.2811C13.3997 26.8673 13.491 26.8855 13.5549 26.9197C13.6188 26.9562 13.6667 27.0064 13.6986 27.0749C13.7305 27.1433 13.7488 27.2209 13.7511 27.3099C13.7556 27.3988 13.7579 27.4924 13.7579 27.5928C13.7579 27.7 13.7556 27.7981 13.7488 27.8848V27.8871Z" fill="#B8B8B8"/>
<path d="M16.9318 26.2979H16.4253L15.4785 30.5369H16.0854L16.2633 29.6266H17.0915L17.2695 30.5369H17.8764L16.9295 26.2979H16.9318ZM16.3729 29.054L16.6694 27.5185H16.6809L16.9797 29.054H16.3729Z" fill="#B8B8B8"/>
<path d="M20.8563 28.8509H20.8426L19.9277 26.2979H19.3438V30.5369H19.9506V27.9885H19.962L20.8906 30.5369H21.4632V26.2979H20.8563V28.8509Z" fill="#B8B8B8"/>
<path d="M24.5652 26.2979L24.0769 27.9817H24.0633L23.575 26.2979H22.9316L23.7667 28.7437V30.5369H24.3735V28.7437L25.2063 26.2979H24.5652Z" fill="#B8B8B8"/>
<path d="M0.470703 31.733H0.765016V32.552H0.961219V31.733H1.25325V31.5664H0.470703V31.733Z" fill="#B8B8B8"/>
<path d="M2.93016 31.5664L2.54688 32.5497H2.75676L2.8389 32.3261H3.23358L3.31802 32.5497H3.53474L3.14005 31.5664H2.93016ZM2.89822 32.1619L3.03282 31.7968L3.16743 32.1619H2.89822Z" fill="#B8B8B8"/>
<path d="M5.36194 32.1896H5.59009V32.3151C5.51936 32.3698 5.43951 32.3972 5.3551 32.3972C5.26384 32.3972 5.19311 32.3653 5.1452 32.3037C5.09729 32.2421 5.0722 32.1554 5.0722 32.0482C5.0722 31.8291 5.16802 31.7196 5.35738 31.7196C5.47602 31.7196 5.54902 31.7721 5.58096 31.877L5.77717 31.8405C5.7361 31.6466 5.59465 31.5508 5.35738 31.5508C5.22049 31.5508 5.10641 31.5941 5.01059 31.6786C4.91477 31.763 4.86914 31.8885 4.86914 32.0573C4.86914 32.2079 4.91249 32.3311 4.9969 32.4269C5.08132 32.5227 5.2068 32.5706 5.37107 32.5706C5.53533 32.5706 5.68135 32.5204 5.79086 32.4178V32.0253H5.36194V32.1896Z" fill="#B8B8B8"/>
<path d="M8.15943 31.5664H7.96094V32.552H8.65222V32.3855H8.15943V31.5664Z" fill="#B8B8B8"/>
<path d="M10.2594 31.5664H10.0586V32.5497H10.2594V31.5664Z" fill="#B8B8B8"/>
<path d="M12.3126 32.2235L11.9088 31.5664H11.7148V32.552H11.8996V31.9086L12.2989 32.552H12.4974V31.5664H12.3126V32.2235Z" fill="#B8B8B8"/>
<path d="M14.1695 32.1162H14.6623V31.9497H14.1695V31.733H14.7011V31.5664H13.9688V32.552H14.7194V32.3855H14.1695V32.1162Z" fill="#B8B8B8"/>
<path d="M18.3581 31.9543H17.968V31.5664H17.7695V32.552H17.968V32.1208H18.3581V32.552H18.5544V31.5664H18.3581V31.9543Z" fill="#B8B8B8"/>
<path d="M20.2239 32.1162H20.7167V31.9497H20.2239V31.733H20.7555V31.5664H20.0254V32.552H20.7737V32.3855H20.2239V32.1162Z" fill="#B8B8B8"/>
<path d="M22.7562 32.1162C22.9296 32.0911 23.0163 31.9999 23.0163 31.8425C23.0163 31.7352 22.9844 31.6622 22.9205 31.6234C22.8566 31.5847 22.7608 31.5664 22.6307 31.5664H22.2109V32.5497H22.4094V32.1391H22.4482C22.5052 32.1391 22.5463 32.1459 22.5714 32.1619C22.5965 32.1756 22.6216 32.2007 22.6421 32.2326L22.8566 32.5497H23.0939L22.973 32.3581C22.8931 32.2326 22.8201 32.1505 22.7539 32.1162H22.7562ZM22.5554 31.9816H22.4071V31.733H22.5623C22.6695 31.733 22.7357 31.7421 22.7653 31.758C22.795 31.774 22.8087 31.806 22.8087 31.8562C22.8087 31.9086 22.7904 31.9429 22.7562 31.9588C22.722 31.9748 22.6535 31.9839 22.5532 31.9839L22.5554 31.9816Z" fill="#B8B8B8"/>
<path d="M24.6656 32.1162H25.1584V31.9497H24.6656V31.733H25.1972V31.5664H24.4648V32.552H25.2154V32.3855H24.6656V32.1162Z" fill="#B8B8B8"/>
</g>
<defs>
<clipPath id="clip0_78_2058">
<rect width="26" height="33" fill="white"/>
</clipPath>
</defs>
</svg>
