<svg width="31" height="32" viewBox="0 0 31 32" fill="none" xmlns="http://www.w3.org/2000/svg">
<g clip-path="url(#clip0_78_2033)">
<path d="M1.39891 29.6132C1.76997 29.6132 2.10858 29.4652 2.36001 29.226L1.96665 28.8326C1.81863 28.9685 1.6179 29.0536 1.40094 29.0536C0.936614 29.0536 0.561504 28.6826 0.561504 28.2182C0.561504 27.7539 0.936614 27.3829 1.40094 27.3829C1.6179 27.3829 1.82066 27.468 1.96665 27.6079L2.36001 27.2105C2.11061 26.9712 1.772 26.8232 1.39891 26.8232C0.630443 26.8232 0.00390625 27.4477 0.00390625 28.2182C0.00390625 28.9887 0.628415 29.6132 1.39891 29.6132Z" fill="#B8B8B8"/>
<path d="M7.42869 28.2212C7.42869 27.4527 6.80418 26.8262 6.03368 26.8262C5.26318 26.8262 4.63867 27.4507 4.63867 28.2212C4.63867 28.9917 5.26318 29.6162 6.03368 29.6162C6.80418 29.6162 7.42869 28.9917 7.42869 28.2212ZM6.03368 29.0606C5.56935 29.0606 5.19424 28.6855 5.19424 28.2212C5.19424 27.7569 5.56935 27.3858 6.03368 27.3858C6.49801 27.3858 6.86906 27.7609 6.86906 28.2212C6.86906 28.6815 6.49395 29.0606 6.03368 29.0606Z" fill="#B8B8B8"/>
<path d="M12.7231 29.6142V26.8262H12.1229L11.3098 28.8639L10.4927 26.8262H9.89453V29.6142H10.4501V28.2212L11.0077 29.6142H11.6079L12.1675 28.2212V29.6142H12.7231Z" fill="#B8B8B8"/>
<path d="M15.745 28.501H15.9741C16.4344 28.501 16.8055 28.1259 16.8055 27.6656C16.8055 27.2054 16.4344 26.8262 15.9701 26.8262H15.1895V29.6142H15.745V28.499V28.501ZM15.745 27.3858H15.9701C16.1242 27.3858 16.2499 27.5115 16.2499 27.6656C16.2499 27.8197 16.1242 27.9414 15.9701 27.9414H15.745V27.3858Z" fill="#B8B8B8"/>
<path d="M20.5002 26.8262H19.9081L18.9004 29.6142H19.4925L19.7763 28.8335H20.634L20.9179 29.6142H21.5099L20.5022 26.8262H20.5002ZM19.9771 28.2759L20.2021 27.6474L20.4312 28.2759H19.9791H19.9771Z" fill="#B8B8B8"/>
<path d="M26.222 29.6142V26.8262H25.6665V28.6875L24.5513 26.8262H23.9004V29.6142H24.456V27.7569L25.5752 29.6142H26.222Z" fill="#B8B8B8"/>
<path d="M29.2337 26.8262H28.6133L29.3412 28.2861V29.6142H29.8968V28.2861L30.6247 26.8262H30.0022L29.621 27.5987L29.2337 26.8262Z" fill="#B8B8B8"/>
<path d="M0.32442 31.9905H0.502851V30.9686H0.827272V30.8105H0V30.9686H0.32442V31.9905Z" fill="#B8B8B8"/>
<path d="M2.13299 30.8105L1.70312 31.9926H1.89373L1.98497 31.729H2.43307L2.52432 31.9926H2.71288L2.28304 30.8105H2.13299ZM2.03567 31.5688L2.20599 31.0517H2.21004L2.38036 31.5688H2.03567Z" fill="#B8B8B8"/>
<path d="M4.00293 31.0635C4.02118 31.0392 4.04754 31.0189 4.07795 31.0027C4.10837 30.9864 4.14487 30.9783 4.18745 30.9783C4.24422 30.9783 4.29288 30.9966 4.33344 31.027C4.37196 31.0615 4.39832 31.1 4.41251 31.1486H4.60311C4.58486 31.0493 4.53823 30.9662 4.46726 30.8992C4.39629 30.8323 4.30302 30.7999 4.18745 30.7979C4.09418 30.7979 4.01713 30.8202 3.95427 30.8648C3.89141 30.9074 3.84478 30.956 3.81639 31.0108C3.79814 31.0392 3.78598 31.0777 3.77584 31.1243C3.76773 31.1709 3.76367 31.2622 3.76367 31.4001C3.76367 31.5379 3.76773 31.6272 3.77584 31.6738C3.77989 31.7002 3.78598 31.7204 3.79206 31.7367C3.79814 31.7529 3.80625 31.7691 3.81639 31.7873C3.84478 31.8421 3.89141 31.8908 3.95427 31.9313C4.01713 31.9739 4.09418 31.9982 4.18745 32.0002C4.30708 31.9982 4.40846 31.9577 4.48753 31.8786C4.56661 31.7995 4.60716 31.7002 4.60919 31.5805V31.3392H4.18947V31.5096H4.43076V31.5704C4.43076 31.6454 4.40643 31.7042 4.36182 31.7488C4.31721 31.7955 4.25841 31.8198 4.18947 31.8198C4.14689 31.8198 4.1104 31.8117 4.07998 31.7934C4.04957 31.7792 4.02524 31.759 4.00496 31.7346C3.98266 31.7083 3.96643 31.6758 3.95832 31.6353C3.95021 31.5947 3.94616 31.5156 3.94616 31.4001C3.94616 31.2845 3.95021 31.2054 3.95832 31.1628C3.96643 31.1223 3.98063 31.0898 4.00496 31.0655L4.00293 31.0635Z" fill="#B8B8B8"/>
<path d="M5.81445 30.8105V31.9905H6.56873V31.8222H5.99288V30.8105H5.81445Z" fill="#B8B8B8"/>
<path d="M7.91085 30.8105H7.73242V31.9926H7.91085V30.8105Z" fill="#B8B8B8"/>
<path d="M9.86194 31.6499H9.85788L9.32259 30.8105H9.1543V31.9905H9.33476V31.1511H9.33678L9.87208 31.9905H10.0404V30.8105H9.86194V31.6499Z" fill="#B8B8B8"/>
<path d="M12.0415 30.9788V30.8105H11.2852V31.9905H12.0415V31.8222H11.4656V31.4755H11.9563V31.3153H11.4656V30.9788H12.0415Z" fill="#B8B8B8"/>
<path d="M14.7492 30.8637C14.6863 30.9063 14.6397 30.9549 14.6113 31.0097C14.5931 31.0381 14.5809 31.0766 14.5708 31.1232C14.5626 31.1699 14.5586 31.2611 14.5586 31.399C14.5586 31.5369 14.5626 31.6261 14.5708 31.6727C14.5748 31.6991 14.5809 31.7194 14.587 31.7356C14.5931 31.7518 14.6012 31.768 14.6113 31.7863C14.6397 31.841 14.6863 31.8897 14.7492 31.9302C14.812 31.9728 14.8891 31.9971 14.9824 31.9992C15.102 31.9971 15.2034 31.9566 15.2825 31.8775C15.3615 31.7984 15.4021 31.6991 15.4041 31.5795V31.3382H14.9844V31.5085H15.2257V31.5693C15.2257 31.6443 15.2014 31.7031 15.1567 31.7477C15.1121 31.7944 15.0533 31.8187 14.9844 31.8187C14.9418 31.8187 14.9053 31.8106 14.8749 31.7924C14.8445 31.7782 14.8202 31.7579 14.7999 31.7336C14.7776 31.7072 14.7614 31.6747 14.7532 31.6342C14.7451 31.5936 14.7411 31.5146 14.7411 31.399C14.7411 31.2834 14.7451 31.2043 14.7532 31.1618C14.7614 31.1212 14.7755 31.0888 14.7999 31.0644C14.8181 31.0401 14.8445 31.0198 14.8749 31.0036C14.9053 30.9874 14.9418 30.9793 14.9844 30.9793C15.0412 30.9793 15.0898 30.9975 15.1304 31.0279C15.1689 31.0624 15.1953 31.1009 15.2095 31.1496H15.4001C15.3818 31.0502 15.3352 30.9671 15.2642 30.9002C15.1932 30.8333 15.1 30.8008 14.9844 30.7988C14.8911 30.7988 14.8141 30.8211 14.7512 30.8657L14.7492 30.8637Z" fill="#B8B8B8"/>
<path d="M17.3573 31.7873C17.3775 31.759 17.3917 31.7204 17.3978 31.6738C17.4039 31.6272 17.4079 31.5359 17.4079 31.4001C17.4079 31.2642 17.4039 31.1709 17.3978 31.1243C17.3897 31.0777 17.3755 31.0412 17.3573 31.0108C17.3289 30.956 17.2843 30.9074 17.2234 30.8648C17.1606 30.8222 17.0815 30.7999 16.9882 30.7979C16.895 30.7979 16.8179 30.8202 16.7551 30.8648C16.6922 30.9074 16.6456 30.956 16.6172 31.0108C16.5989 31.0392 16.5868 31.0777 16.5766 31.1243C16.5685 31.1709 16.5645 31.2622 16.5645 31.4001C16.5645 31.5379 16.5685 31.6272 16.5766 31.6738C16.5807 31.7002 16.5868 31.7204 16.5928 31.7367C16.5989 31.7529 16.607 31.7691 16.6172 31.7873C16.6456 31.8421 16.6922 31.8908 16.7551 31.9313C16.8179 31.9739 16.895 31.9982 16.9882 32.0002C17.0815 31.9982 17.1606 31.9759 17.2234 31.9313C17.2863 31.8908 17.3309 31.8421 17.3573 31.7873ZM17.1707 31.7346C17.1525 31.759 17.1281 31.7792 17.0997 31.7934C17.0693 31.8117 17.0308 31.8198 16.9882 31.8198C16.9456 31.8198 16.9092 31.8117 16.8787 31.7934C16.8483 31.7792 16.824 31.759 16.8037 31.7346C16.7814 31.7083 16.7652 31.6758 16.7571 31.6353C16.749 31.5947 16.7449 31.5156 16.7449 31.4001C16.7449 31.2845 16.749 31.2054 16.7571 31.1628C16.7652 31.1223 16.7794 31.0898 16.8037 31.0655C16.822 31.0412 16.8483 31.0209 16.8787 31.0047C16.9092 30.9885 16.9456 30.9803 16.9882 30.9803C17.0308 30.9803 17.0673 30.9905 17.0997 31.0047C17.1302 31.0209 17.1525 31.0412 17.1707 31.0655C17.193 31.0919 17.2092 31.1243 17.2194 31.1628C17.2275 31.2054 17.2315 31.2845 17.2315 31.4001C17.2315 31.5156 17.2275 31.5947 17.2194 31.6353C17.2113 31.6758 17.195 31.7103 17.1707 31.7346Z" fill="#B8B8B8"/>
<path d="M19.3695 30.9788V30.8105H18.6152V31.9905H19.3695V31.8222H18.7937V31.4755H19.2864V31.3153H18.7937V30.9788H19.3695Z" fill="#B8B8B8"/>
<path d="M20.8838 31.8207C20.754 31.8207 20.6425 31.7802 20.5492 31.7031L20.4316 31.837C20.5574 31.9444 20.7074 31.9992 20.8838 31.9992C21.1555 31.9951 21.2934 31.8816 21.2995 31.6565C21.2995 31.5734 21.2731 31.4983 21.2204 31.4355C21.1677 31.3706 21.0866 31.3321 20.975 31.3159C20.9183 31.3098 20.8737 31.3017 20.8412 31.2976C20.7824 31.2875 20.7398 31.2672 20.7135 31.2388C20.6871 31.2104 20.6729 31.18 20.6729 31.1455C20.6729 31.0888 20.6932 31.0462 20.7317 31.0178C20.7682 30.9894 20.8149 30.9772 20.8696 30.9772C20.975 30.9793 21.0744 31.0097 21.1616 31.0685L21.2609 30.9205C21.1514 30.8414 21.0237 30.8008 20.8777 30.7988C20.7561 30.7988 20.6608 30.8313 20.5939 30.8941C20.5249 30.957 20.4904 31.0401 20.4904 31.1435C20.4904 31.2287 20.5168 31.3017 20.5715 31.3625C20.6243 31.4213 20.7013 31.4578 20.8027 31.476C20.8595 31.4842 20.9122 31.4923 20.9588 31.4983C21.0622 31.5166 21.1129 31.5693 21.1129 31.6565C21.1109 31.764 21.0338 31.8187 20.8797 31.8207H20.8838Z" fill="#B8B8B8"/>
<path d="M24.7022 31.9905V30.8105H24.5238V31.3153H24.0554V30.8105H23.877V31.9905H24.0554V31.4755H24.5238V31.9905H24.7022Z" fill="#B8B8B8"/>
<path d="M26.7036 30.9788V30.8105H25.9473V31.9905H26.7036V31.8222H26.1277V31.4755H26.6184V31.3153H26.1277V30.9788H26.7036Z" fill="#B8B8B8"/>
<path d="M28.0456 31.4848H28.2747L28.5181 31.9897H28.731L28.4572 31.4646C28.6073 31.4058 28.6843 31.2983 28.6863 31.1361C28.6823 31.0266 28.6438 30.9435 28.5687 30.8847C28.5059 30.8319 28.4268 30.8076 28.3275 30.8076H27.8672V31.9897H28.0456V31.4848ZM28.0456 30.9678H28.3254C28.3822 30.9678 28.4268 30.98 28.4572 31.0043C28.4958 31.0327 28.516 31.0773 28.516 31.1381C28.516 31.1888 28.4998 31.2334 28.4674 31.2679C28.4329 31.3064 28.3842 31.3247 28.3173 31.3267H28.0456V30.9678Z" fill="#B8B8B8"/>
<path d="M30.6293 30.9788V30.8105H29.875V31.9905H30.6293V31.8222H30.0555V31.4755H30.5461V31.3153H30.0555V30.9788H30.6293Z" fill="#B8B8B8"/>
<path d="M3.89299 9.76708V9.77721L3.88894 9.79141C3.88488 9.81168 3.88285 9.83196 3.88083 9.85021V9.85426C3.88083 9.85426 3.88083 9.86238 3.88083 9.86643C3.88083 9.8786 3.87677 9.89076 3.87677 9.90293L3.87272 9.93334V9.93943L3.87069 9.94956V9.95565V9.9597V9.96173V9.97187V9.97998V9.98606C3.86663 10.0246 3.86055 10.0631 3.8565 10.1016C3.85244 10.1361 3.84838 10.1706 3.84433 10.205C3.84433 10.2192 3.8423 10.2314 3.84027 10.2436V10.2456C3.83622 10.2882 3.83014 10.3308 3.82608 10.3713C3.82203 10.4017 3.82 10.4342 3.81797 10.4666V10.4707L3.81392 10.5011C3.81392 10.5132 3.81189 10.5254 3.80986 10.5376C3.80986 10.5497 3.80783 10.5639 3.8058 10.5761C3.8058 10.5822 3.8058 10.5903 3.8058 10.5964C3.8058 10.6065 3.8058 10.6167 3.80378 10.6268C3.80378 10.639 3.80378 10.6511 3.80175 10.6653C3.80175 10.6714 3.80175 10.6775 3.80175 10.6836C3.79769 10.7261 3.79567 10.7708 3.79161 10.8235C3.79161 10.8478 3.78958 10.8701 3.78756 10.8904C3.78756 10.9127 3.78553 10.937 3.7835 10.9593V10.9634V10.9674C3.7835 10.9674 3.7835 10.9735 3.7835 10.9776C3.7835 10.9837 3.7835 10.9877 3.7835 10.9938V10.9999V11.008C3.7835 11.0343 3.78147 11.0587 3.77945 11.085C3.77945 11.0952 3.77945 11.1073 3.77945 11.1175C3.77945 11.1641 3.77539 11.2087 3.77539 11.2533C3.77539 11.2594 3.77539 11.2675 3.77539 11.2756V11.2919C3.77539 11.3283 3.77539 11.3669 3.77539 11.4034V11.4236V11.4338V11.4723C3.77539 11.4845 3.77539 11.4946 3.77539 11.5068C3.77539 11.5149 3.77539 11.523 3.77539 11.5311C3.77539 11.5392 3.77539 11.5473 3.77539 11.5554C3.77539 11.5656 3.77539 11.5777 3.77539 11.5879V11.6548C3.80783 13.8527 4.68985 15.9148 6.25518 17.4579C7.82253 19.0049 9.89882 19.8565 12.1008 19.8565C12.4516 19.8565 12.7983 19.8342 13.141 19.7917C13.2971 19.7714 13.4512 19.7511 13.6053 19.7227C12.4658 19.0333 11.4804 18.1108 10.7058 17.0016C10.424 16.6002 10.1766 16.1784 9.96371 15.7445C9.91504 15.6472 9.87044 15.5478 9.82583 15.4485C9.82177 15.4383 9.81569 15.4262 9.81163 15.416C9.27229 14.2015 8.99045 12.8856 8.99045 11.5311C8.99045 9.56229 9.58454 7.67051 10.7078 6.06058C10.9654 5.69155 11.2472 5.3428 11.5513 5.01635C12.5368 3.95387 13.7452 3.13066 15.1078 2.60347C15.5214 2.44329 15.9411 2.31352 16.371 2.21214C17.0847 2.04385 17.8187 1.96071 18.5629 1.96071C20.3026 1.96071 21.9733 2.42301 23.4332 3.28881C23.4332 3.28881 23.4332 3.28881 23.4312 3.28678C23.419 3.27462 23.4028 3.26042 23.3906 3.24623C23.3724 3.22798 23.3542 3.21176 23.3359 3.19351C23.3298 3.18743 23.3237 3.18337 23.3197 3.17729L23.3156 3.17324L23.3136 3.16918C23.2974 3.15499 23.2791 3.13877 23.2629 3.12254C23.2447 3.10632 23.2284 3.0901 23.2102 3.07185V3.0678L23.2061 3.06374C23.2061 3.06374 23.2001 3.05766 23.196 3.05563C23.1757 3.03738 23.1554 3.01711 23.1352 2.99886L23.1311 2.9948L23.1048 2.97047C23.1048 2.97047 23.0966 2.96236 23.0906 2.95831C23.0601 2.93195 23.0318 2.90559 23.0034 2.87923C22.9689 2.84882 22.9365 2.82043 22.906 2.79407C22.8959 2.78596 22.8858 2.77582 22.8736 2.76771C22.8513 2.74946 22.829 2.72919 22.8067 2.71094L22.7621 2.67444L22.7378 2.65416L22.7195 2.63794L22.7094 2.62983C22.683 2.60753 22.6566 2.58725 22.6303 2.56495L22.6262 2.56089L22.6242 2.55684H22.6202C22.5999 2.53859 22.5816 2.52237 22.5613 2.50817C22.4985 2.45748 22.4336 2.40679 22.3687 2.35813V2.3561C22.3505 2.34191 22.3343 2.32974 22.316 2.31555L22.2937 2.29933L22.2815 2.28919C22.2815 2.28919 22.2755 2.28514 22.2734 2.28311C22.2734 2.28311 22.2734 2.28311 22.2714 2.28108L22.2694 2.27905L22.2653 2.275L22.2288 2.24864L22.2146 2.2385L22.1639 2.202C22.1639 2.202 22.1538 2.19389 22.1477 2.18984C22.1376 2.18375 22.1295 2.17564 22.1193 2.16956L22.0991 2.15537C22.0788 2.14117 22.0605 2.12698 22.0402 2.11279C22.0362 2.10873 22.0301 2.1067 22.0261 2.10265L22.02 2.09859L22.0159 2.09454C21.9673 2.06007 21.9206 2.02763 21.872 1.99316C21.8497 1.97694 21.8294 1.96274 21.8071 1.94652C21.801 1.94247 21.7969 1.93841 21.7909 1.93638C21.7584 1.91611 21.726 1.8938 21.6935 1.8715C21.6935 1.8715 21.6895 1.86947 21.6874 1.86744H21.6854H21.6814C21.6814 1.86744 21.6672 1.85731 21.6611 1.85122C21.6368 1.835 21.6144 1.82081 21.5901 1.80662H21.5861V1.80459H21.582C21.5475 1.77823 21.511 1.75795 21.4766 1.73565H21.4725V1.73362L21.4685 1.72957C21.432 1.70726 21.3955 1.68293 21.359 1.66265L21.3002 1.62818C21.3002 1.62818 21.2819 1.61602 21.2738 1.61196C21.2637 1.60588 21.2515 1.59777 21.2393 1.59169H21.2373C21.2312 1.58763 21.2231 1.58358 21.217 1.57952C21.1907 1.5633 21.1643 1.54911 21.138 1.53289L21.1177 1.52072C21.1177 1.52072 21.0994 1.51058 21.0913 1.5045C21.067 1.49031 21.0427 1.47611 21.0183 1.46192C21.0163 1.46192 21.0143 1.45989 21.0102 1.45786C20.846 1.36662 20.6797 1.2774 20.5114 1.19427C20.5074 1.19427 20.5033 1.19022 20.4993 1.18819H20.4952C20.4587 1.16791 20.4222 1.14966 20.3837 1.13142L20.2843 1.08478C20.2843 1.08478 20.2782 1.08072 20.2762 1.08072C20.2762 1.08072 20.2722 1.08072 20.2701 1.0787H20.2681C20.1505 1.02192 20.043 0.975288 19.9396 0.93068H19.9376L19.9356 0.928653H19.9335H19.9315C19.9072 0.916487 19.8808 0.906349 19.8565 0.896211L19.8464 0.892156L19.8382 0.8881L19.7936 0.869852C19.7774 0.863769 19.7612 0.857686 19.745 0.849576C19.7369 0.84552 19.7308 0.843493 19.7227 0.841465C19.6112 0.796857 19.5199 0.76036 19.4368 0.729946L19.3861 0.711697H19.38L19.3273 0.689393C19.1854 0.638702 19.0394 0.588012 18.8913 0.541376C18.8893 0.541376 18.8873 0.541376 18.8832 0.539349C18.8548 0.531238 18.8265 0.5211 18.8001 0.51299C18.7717 0.504879 18.7433 0.494741 18.7129 0.48663C18.6967 0.480547 18.6784 0.476492 18.6622 0.470409C18.5973 0.452161 18.5365 0.433912 18.4797 0.417691H18.4777H18.4757C18.4676 0.415663 18.4595 0.413636 18.4514 0.411608C18.4392 0.407553 18.425 0.405525 18.4128 0.40147H18.4047L18.3925 0.395387C18.2709 0.362945 18.1472 0.334558 18.0235 0.304144C17.9505 0.287923 17.8775 0.271702 17.8045 0.255481C17.6809 0.229122 17.5572 0.202763 17.4315 0.180459C17.3848 0.172348 17.3382 0.164238 17.2915 0.156127H17.2895C17.2429 0.148017 17.1963 0.139906 17.1496 0.133823C17.1273 0.129768 17.107 0.12774 17.0847 0.123685C17.0584 0.11963 17.03 0.115575 17.0036 0.111519C16.8698 0.0932708 16.736 0.0770498 16.6022 0.0628564C16.3426 0.0364973 16.0831 0.0182486 15.8215 0.00811051C15.6755 0.00202763 15.5316 0 15.3856 0C15.1402 0 14.8969 0.00811051 14.6516 0.0243315C14.6252 0.0243315 14.6009 0.0263591 14.5745 0.0283868C14.3049 0.0466354 14.0352 0.0750222 13.7696 0.111519C13.7209 0.117602 13.6743 0.125713 13.6256 0.131796C13.6256 0.131796 13.6236 0.131796 13.6215 0.131796L3.89299 9.76302V9.76708Z" fill="#B8B8B8"/>
<path d="M26.741 13.2793V13.2712L26.743 13.2611C26.745 13.2448 26.747 13.2286 26.7491 13.2124V13.2083V13.2023V13.1962C26.7531 13.1759 26.7572 13.1536 26.7592 13.1313V13.1171L26.7633 13.1029C26.7633 13.0968 26.7633 13.0887 26.7673 13.0826L26.7754 13.0096L26.7815 12.961C26.7876 12.9123 26.7937 12.8677 26.7977 12.8231V12.817C26.8038 12.7744 26.8079 12.7339 26.8119 12.6933C26.816 12.6589 26.818 12.6264 26.8221 12.596L26.8261 12.5636C26.8281 12.5413 26.8302 12.519 26.8322 12.4967V12.4885V12.4804C26.8363 12.452 26.8363 12.4216 26.8383 12.3932V12.3811C26.8423 12.3385 26.8464 12.2939 26.8484 12.2432V12.2391C26.8525 12.1945 26.8545 12.1499 26.8565 12.1053V12.0932V12.0749V12.0567C26.8606 12.0202 26.8606 11.9837 26.8626 11.9451C26.8626 11.8944 26.8667 11.8478 26.8667 11.7991V11.7931V11.7708C26.8667 11.7363 26.8667 11.7018 26.8667 11.6674V11.6227C26.8667 11.5923 26.8667 11.5639 26.8667 11.5335C26.8667 11.5031 26.8667 11.4707 26.8667 11.4403V11.4078C26.8342 9.20985 25.9542 7.14978 24.3889 5.60473C22.8216 4.05765 20.7453 3.20605 18.5412 3.20605C18.0323 3.20605 17.5295 3.25065 17.0367 3.3419C18.1763 4.03129 19.1637 4.95386 19.9362 6.06297C21.0596 7.67291 21.6536 9.56468 21.6536 11.5335C21.6536 13.5024 21.0596 15.3941 19.9362 17.0041C18.8393 18.5755 17.3186 19.7718 15.5363 20.4612C14.4373 20.887 13.2755 21.1039 12.0832 21.1039C10.3435 21.1039 8.67278 20.6416 7.21289 19.7779H7.21492L7.221 19.786L7.22708 19.7921C7.22708 19.7921 7.24128 19.8062 7.24736 19.8123L7.26966 19.8346C7.28791 19.8529 7.30616 19.8711 7.32644 19.8894L7.33049 19.8934L7.33455 19.8975C7.36496 19.9279 7.40146 19.9624 7.43796 19.9948L7.44404 19.9989L7.4481 20.0029C7.47243 20.0252 7.49473 20.0475 7.51906 20.0698L7.52109 20.0739C7.56367 20.1124 7.60422 20.1509 7.64883 20.1874H7.65086L7.65289 20.1915C7.68127 20.2158 7.70966 20.2422 7.73805 20.2665L7.74413 20.2706L7.76238 20.2868L7.84551 20.3578L7.86173 20.372L7.86579 20.376C7.88809 20.3943 7.91039 20.4125 7.9327 20.4308L7.94081 20.4368L7.94892 20.4449C7.9692 20.4612 7.98947 20.4794 8.0138 20.4977L8.02191 20.5037L8.03002 20.5098C8.04827 20.524 8.06449 20.5382 8.08071 20.5524L8.0868 20.5565L8.09085 20.5605C8.15168 20.6112 8.21657 20.6599 8.28145 20.7085C8.29564 20.7207 8.30984 20.7308 8.32403 20.741C8.34025 20.7531 8.35647 20.7653 8.37269 20.7775C8.38283 20.7836 8.39094 20.7896 8.39905 20.7978L8.41527 20.8099C8.44163 20.8302 8.46596 20.8484 8.49232 20.8687L8.51665 20.887C8.52882 20.8971 8.54301 20.9052 8.55518 20.9154L8.55923 20.9194L8.56532 20.9235C8.58357 20.9377 8.60384 20.9519 8.62412 20.966L8.6444 20.9802C8.69103 21.0147 8.73969 21.0472 8.78836 21.0816H8.79241L8.79647 21.0877C8.81674 21.1019 8.83905 21.1161 8.86135 21.1303L8.87757 21.1404L8.93029 21.1749L8.98706 21.2134C9.01545 21.2317 9.04586 21.2519 9.07628 21.2702C9.10669 21.2905 9.13711 21.3087 9.1655 21.327H9.23849L9.37029 21.4527C9.39056 21.4648 9.41084 21.477 9.43111 21.4892C9.47167 21.5135 9.51222 21.5358 9.55277 21.5581H9.55683L9.56088 21.5622C9.59332 21.5804 9.62374 21.5987 9.65618 21.6169C9.8265 21.7142 9.99885 21.8055 10.1732 21.8906C10.2117 21.9089 10.2503 21.9292 10.2868 21.9474C10.2929 21.9515 10.2989 21.9535 10.303 21.9555C10.3395 21.9717 10.374 21.99 10.4105 22.0062C10.5199 22.0569 10.6315 22.1076 10.7389 22.1542H10.741H10.743C10.7693 22.1664 10.7977 22.1786 10.8241 22.1887C10.8322 22.1928 10.8403 22.1948 10.8505 22.2009C10.8869 22.2151 10.9234 22.2313 10.9599 22.2455C11.0492 22.282 11.1445 22.3185 11.2458 22.357H11.2499L11.254 22.359C11.2844 22.3712 11.3168 22.3834 11.3472 22.3935H11.3513L11.3553 22.3955C11.5033 22.4503 11.6493 22.4989 11.7892 22.5435H11.7933L11.7974 22.5476C11.8257 22.5577 11.8541 22.5658 11.8825 22.576H11.8866H11.8906C11.9332 22.5902 11.9758 22.6023 12.0184 22.6165L12.0549 22.6267C12.1056 22.6409 12.1583 22.6551 12.209 22.6693C12.2373 22.6774 12.2637 22.6834 12.288 22.6916H12.2941C12.6125 22.7787 12.9369 22.8517 13.2552 22.9065H13.2593H13.2633C13.3019 22.9126 13.3444 22.9207 13.3951 22.9288H13.4012C13.4519 22.9389 13.4965 22.945 13.535 22.9511H13.5411H13.5472C13.5918 22.9592 13.6364 22.9653 13.683 22.9714H13.6871C14.2204 23.0464 14.7638 23.0849 15.3031 23.0849C15.8425 23.0849 16.3879 23.0464 16.9212 22.9734H16.9333C16.9759 22.9653 17.0185 22.9592 17.0611 22.9531H17.0672H17.0712L26.7268 13.2976C26.7268 13.2976 26.7268 13.2854 26.7288 13.2813L26.741 13.2793Z" fill="#B8B8B8"/>
</g>
<defs>
<clipPath id="clip0_78_2033">
<rect width="31" height="32" fill="white"/>
</clipPath>
</defs>
</svg>
