<svg width="25" height="33" viewBox="0 0 25 33" fill="none" xmlns="http://www.w3.org/2000/svg">
<g clip-path="url(#clip0_78_2179)">
<path d="M0.739222 32.3082H0.967874V31.0075H1.3146V30.792H0.390625V31.0075H0.739222V32.3082Z" fill="#B8B8B8"/>
<path d="M2.517 32.3081L2.68568 31.9408H3.33415L3.49346 32.3081H3.7446L3.02116 30.6963L2.27148 32.3081H2.51887H2.517ZM3.01741 31.2098L3.24232 31.7252H2.78127L3.01741 31.2098Z" fill="#B8B8B8"/>
<path d="M5.5895 30.9792C5.76755 30.9792 5.91936 31.0617 6.04493 31.2285L6.20798 31.0729C6.1124 30.9642 6.01682 30.8855 5.91749 30.8368C5.8144 30.788 5.70382 30.7637 5.58575 30.7637C5.36459 30.7637 5.17718 30.8405 5.02349 30.9942C4.86981 31.1479 4.79297 31.3334 4.79297 31.5546C4.79297 31.7757 4.86793 31.9538 5.01974 32.1075C5.17155 32.2612 5.35335 32.338 5.56514 32.338C5.77692 32.338 5.96059 32.2593 6.10303 32.1C6.16488 32.0288 6.20986 31.9538 6.2361 31.8713C6.26234 31.7832 6.27545 31.682 6.27545 31.5696V31.519H5.64948V31.7345H6.02806C6.01681 31.8413 5.96808 31.9332 5.87812 32.01C5.78816 32.0869 5.68696 32.1243 5.5745 32.1243C5.44144 32.1243 5.31962 32.0737 5.20717 31.9725C5.08535 31.8638 5.02537 31.7233 5.02537 31.5546C5.02537 31.3859 5.07972 31.2547 5.18842 31.146C5.29712 31.0354 5.43207 30.9792 5.59138 30.9792H5.5895Z" fill="#B8B8B8"/>
<path d="M7.75 30.792V32.3082H8.42472V32.0927H7.97866V30.792H7.75Z" fill="#B8B8B8"/>
<path d="M9.87513 30.792H9.64648V32.3082H9.87513V30.792Z" fill="#B8B8B8"/>
<path d="M11.2461 32.3078H11.4748V31.247L12.5805 32.3996V30.7916H12.3519V31.8449L11.2461 30.6885V32.3078Z" fill="#B8B8B8"/>
<path d="M13.9473 32.3082H14.785V32.0927H14.1759V31.5866H14.7663V31.3711H14.1759V31.0075H14.785V30.792H13.9473V32.3082Z" fill="#B8B8B8"/>
<path d="M18.1406 31.3842H17.4865V30.792H17.2578V32.3082H17.4865V31.5998H18.1406V32.3082H18.3692V30.792H18.1406V31.3842Z" fill="#B8B8B8"/>
<path d="M20.5761 31.0075V30.792H19.7383V32.3082H20.5761V32.0927H19.9688V31.5866H20.5573V31.3711H19.9688V31.0075H20.5761Z" fill="#B8B8B8"/>
<path d="M22.3944 31.6615C22.4956 31.639 22.5762 31.5903 22.638 31.5116C22.6999 31.4348 22.7299 31.3429 22.7299 31.2342C22.7299 31.0974 22.6811 30.9868 22.5837 30.9025C22.4937 30.8275 22.3494 30.79 22.1489 30.79H21.8809V32.3063H22.1095V31.6859H22.1507L22.5837 32.3063H22.8648L22.3963 31.6615H22.3944ZM22.1095 31.4872V31.0056H22.192C22.4019 31.0056 22.5087 31.0843 22.5087 31.238C22.5087 31.4029 22.4 31.4872 22.1826 31.4872H22.1095Z" fill="#B8B8B8"/>
<path d="M24.9354 31.0075V30.792H24.0977V32.3082H24.9354V32.0927H24.3263V31.5866H24.9167V31.3711H24.3263V31.0075H24.9354Z" fill="#B8B8B8"/>
<path d="M5.45312 14.4859L15.5157 4.42331V0.399414L5.45312 10.462V14.4859Z" fill="#B8B8B8"/>
<path d="M5.45312 23.2313L15.5157 13.1687V9.91699L5.45312 19.9795V23.2313Z" fill="#B8B8B8"/>
<path d="M9.8125 14.4866L19.8769 4.42402V1.04297L9.8125 11.1055V14.4866Z" fill="#B8B8B8"/>
<path d="M19.8769 9.78809L9.8125 19.8506V23.2317L19.8769 13.1691V9.78809Z" fill="#B8B8B8"/>
<path d="M0.805057 28.8575C0.934377 28.9831 1.08618 29.0805 1.26423 29.1499C1.44228 29.2192 1.6372 29.253 1.85086 29.253C2.06451 29.253 2.24444 29.2136 2.42249 29.1368C2.60241 29.0581 2.75422 28.9344 2.87792 28.7638L2.47309 28.4752C2.38125 28.5914 2.28379 28.6776 2.17884 28.7301C2.07388 28.7826 1.96519 28.8107 1.85461 28.8107C1.71217 28.8107 1.58285 28.7844 1.46665 28.732C1.35045 28.6795 1.25112 28.6083 1.16865 28.5183C1.08619 28.4283 1.02059 28.3196 0.97561 28.1959C0.930629 28.0722 0.908136 27.9354 0.908136 27.7874C0.908136 27.6505 0.930629 27.5212 0.97561 27.4013C1.02059 27.2813 1.08431 27.1782 1.16865 27.0883C1.25112 26.9983 1.35045 26.929 1.46665 26.8784C1.58285 26.8278 1.71217 26.8015 1.85461 26.8015C1.95019 26.8015 2.04578 26.8203 2.14136 26.8559C2.23694 26.8915 2.3344 26.9646 2.4356 27.0733L2.81794 26.7922C2.68112 26.6347 2.53119 26.5223 2.37188 26.4548C2.21258 26.3892 2.03828 26.3555 1.85273 26.3555C1.63907 26.3555 1.44416 26.3892 1.26611 26.4586C1.08806 26.5279 0.934373 26.6254 0.806928 26.7528C0.677608 26.8802 0.578279 27.0339 0.505185 27.2139C0.432092 27.3938 0.396484 27.5943 0.396484 27.8155C0.396484 28.0366 0.432092 28.2278 0.505185 28.404C0.578279 28.5801 0.677608 28.7319 0.806928 28.8575H0.805057Z" fill="#B8B8B8"/>
<path d="M4.25029 28.8576C4.37961 28.9832 4.53142 29.0806 4.70947 29.15C4.88752 29.2193 5.08243 29.2531 5.29609 29.2531C5.51162 29.2512 5.70841 29.2137 5.88833 29.1425C6.06825 29.0713 6.22194 28.9719 6.35126 28.8445C6.48058 28.717 6.58179 28.5652 6.65488 28.389C6.72798 28.2129 6.76359 28.0161 6.76359 27.8006C6.76359 27.585 6.72798 27.3807 6.65488 27.2008C6.58179 27.0209 6.48058 26.8691 6.35126 26.7416C6.22194 26.6142 6.06638 26.5186 5.88833 26.4511C5.70841 26.3855 5.51162 26.3537 5.29609 26.3555C5.08243 26.3555 4.88752 26.3893 4.70947 26.4586C4.53142 26.528 4.37774 26.6254 4.25029 26.7529C4.12097 26.8803 4.02164 27.034 3.94854 27.2139C3.87545 27.3939 3.83984 27.5944 3.83984 27.8155C3.83984 28.0367 3.87545 28.2279 3.94854 28.404C4.02164 28.5802 4.12097 28.732 4.25029 28.8576ZM4.42085 27.3995C4.46583 27.2795 4.52955 27.1764 4.61389 27.0865C4.69635 26.9965 4.79568 26.9272 4.91188 26.8766C5.02808 26.826 5.1574 26.7997 5.29984 26.7997C5.44228 26.7997 5.57159 26.826 5.68967 26.8766C5.80587 26.9272 5.90708 26.9965 5.98955 27.0865C6.07201 27.1764 6.1376 27.2814 6.18258 27.3995C6.22756 27.5194 6.25006 27.6469 6.25006 27.7856C6.25006 27.9336 6.22756 28.0704 6.18258 28.1941C6.1376 28.3178 6.07201 28.4265 5.98955 28.5165C5.90708 28.6065 5.80587 28.6796 5.68967 28.7302C5.57347 28.7826 5.44228 28.8089 5.29984 28.8089C5.1574 28.8089 5.02808 28.7826 4.91188 28.7302C4.79568 28.6777 4.69635 28.6065 4.61389 28.5165C4.53142 28.4265 4.46583 28.3178 4.42085 28.1941C4.37586 28.0704 4.35337 27.9336 4.35337 27.7856C4.35337 27.6487 4.37586 27.5194 4.42085 27.3995Z" fill="#B8B8B8"/>
<path d="M8.76931 26.4268H8.02148V29.1837H8.49004V26.8934H8.49755L9.33531 29.1837H9.6764L10.5142 26.8934H10.5217V29.1837H10.9883V26.4268H10.2499L9.50585 28.3572L8.76931 26.4268Z" fill="#B8B8B8"/>
<path d="M12.8837 28.0422H13.2342C13.3804 28.0422 13.5191 28.031 13.6521 28.0104C13.7852 27.9898 13.9033 27.9504 14.0045 27.8923C14.1057 27.8342 14.1863 27.7517 14.2462 27.6449C14.3062 27.5381 14.3362 27.3975 14.3362 27.2251C14.3362 27.0714 14.3081 26.944 14.2519 26.8409C14.1956 26.7378 14.1207 26.6572 14.0288 26.5954C13.9351 26.5335 13.8264 26.4904 13.7046 26.4642C13.5809 26.4379 13.4535 26.4248 13.3204 26.4248H12.3945V29.1817H12.8856V28.0404L12.8837 28.0422ZM12.8837 26.8465H13.2342C13.2998 26.8465 13.3672 26.8502 13.4366 26.8577C13.5059 26.8652 13.5697 26.8821 13.6278 26.9102C13.684 26.9383 13.7308 26.9758 13.7683 27.0264C13.8039 27.077 13.8227 27.1445 13.8227 27.2307C13.8227 27.3244 13.802 27.3975 13.7627 27.4481C13.7215 27.5006 13.6709 27.5381 13.6071 27.5643C13.5434 27.5906 13.4741 27.6055 13.3991 27.6112C13.3241 27.6168 13.251 27.6187 13.1817 27.6187H12.8856V26.8446L12.8837 26.8465Z" fill="#B8B8B8"/>
<path d="M15.7535 28.5521H16.9492L17.206 29.1837H17.7664L16.5781 26.4268H16.1546L14.9551 29.1837H15.5042L15.7535 28.5521ZM16.3532 27.0096L16.7768 28.1304H15.9203L16.3532 27.0096Z" fill="#B8B8B8"/>
<path d="M18.8535 26.4268V29.1837H19.3446V27.0677H19.352L20.7146 29.1837H21.3368V26.4268H20.8477V28.4734H20.8383L19.5039 26.4268H18.8535Z" fill="#B8B8B8"/>
<path d="M23.4037 29.1837H23.8947V28.003L24.9312 26.4268H24.3464L23.6623 27.525L22.9839 26.4268H22.3691L23.4037 28.003V29.1837Z" fill="#B8B8B8"/>
</g>
<defs>
<clipPath id="clip0_78_2179">
<rect width="25" height="33" fill="white"/>
</clipPath>
</defs>
</svg>
