<svg width="40" height="33" viewBox="0 0 40 33" fill="none" xmlns="http://www.w3.org/2000/svg">
<g clip-path="url(#clip0_78_2202)">
<path d="M4.75977 31.5679H5.05804V32.6832H5.25515V31.5679H5.55081V31.3838H4.75977V31.5679Z" fill="#5E29D6"/>
<path d="M7.23047 32.6825H7.44055L7.58579 32.3661H8.14081L8.27828 32.6825H8.49356L7.87368 31.3027L7.23047 32.6825ZM7.66879 32.182L7.87108 31.741L8.06301 32.182H7.66879Z" fill="#5E29D6"/>
<path d="M10.9367 31.5442C11.0897 31.5442 11.2194 31.6142 11.3257 31.7568L11.4658 31.622C11.3854 31.5286 11.3024 31.4612 11.2168 31.4197C11.1286 31.3782 11.0352 31.3574 10.9315 31.3574C10.7421 31.3574 10.5813 31.4223 10.4491 31.5545C10.3168 31.6868 10.252 31.845 10.252 32.0344C10.252 32.2237 10.3168 32.3767 10.4465 32.509C10.5762 32.6413 10.7318 32.7061 10.9133 32.7061C11.0949 32.7061 11.2531 32.6387 11.3724 32.5012C11.4269 32.4416 11.4632 32.3767 11.4865 32.3067C11.5099 32.2315 11.5202 32.1459 11.5202 32.0473V32.0032H10.9834V32.1874H11.3076C11.2998 32.2782 11.2557 32.3586 11.1779 32.4234C11.1001 32.4882 11.0145 32.522 10.9185 32.522C10.8044 32.522 10.7007 32.4779 10.6021 32.3923C10.4984 32.2989 10.4465 32.1796 10.4465 32.0344C10.4465 31.8891 10.4932 31.7776 10.5865 31.6842C10.6799 31.5883 10.794 31.5416 10.9315 31.5416L10.9367 31.5442Z" fill="#5E29D6"/>
<path d="M13.7637 31.3838V32.6832H14.342V32.499H13.9608V31.3838H13.7637Z" fill="#5E29D6"/>
<path d="M16.4491 31.3838H16.252V32.6832H16.4491V31.3838Z" fill="#5E29D6"/>
<path d="M19.6262 32.7603V31.3831H19.4291V32.2857L18.4824 31.2949V32.6825H18.6795V31.7721L19.6262 32.7603Z" fill="#5E29D6"/>
<path d="M22.3766 31.5679V31.3838H21.6582V32.6832H22.3766V32.499H21.8553V32.0633H22.3611V31.8792H21.8553V31.5679H22.3766Z" fill="#5E29D6"/>
<path d="M26.821 32.6832V31.3838H26.6265V31.8921H26.0663V31.3838H25.8691V32.6832H26.0663V32.0763H26.6265V32.6832H26.821Z" fill="#5E29D6"/>
<path d="M29.5713 31.5679V31.3838H28.8555V32.6832H29.5713V32.499H29.05V32.0633H29.5557V31.8792H29.05V31.5679H29.5713Z" fill="#5E29D6"/>
<path d="M32.2796 31.7651C32.2796 31.6483 32.2381 31.5524 32.1525 31.4798C32.0773 31.4149 31.9528 31.3838 31.7816 31.3838H31.5508V32.6832H31.7479V32.1515H31.7842L32.1551 32.6832H32.3937L31.9917 32.1308C32.0773 32.1126 32.1473 32.0711 32.1992 32.0037C32.2511 31.9362 32.2796 31.8584 32.2796 31.7676V31.7651ZM31.8101 31.9803H31.7479V31.5679H31.8179C31.9995 31.5679 32.0877 31.6354 32.0877 31.7676C32.0877 31.9103 31.9943 31.9803 31.8101 31.9803Z" fill="#5E29D6"/>
<path d="M34.3125 32.6832H35.0283V32.499H34.507V32.0633H35.0128V31.8792H34.507V31.5679H35.0283V31.3838H34.3125V32.6832Z" fill="#5E29D6"/>
<path d="M3.24916 29.0522C3.18432 29.1378 3.10911 29.213 3.02352 29.2804C2.93793 29.3453 2.83678 29.3971 2.72007 29.436C2.60336 29.475 2.47627 29.4957 2.33622 29.4957C2.15207 29.4957 1.98349 29.4594 1.83306 29.3868C1.68263 29.3141 1.55295 29.213 1.44402 29.0807C1.33508 28.9484 1.24948 28.798 1.18983 28.6242C1.13018 28.4505 1.10166 28.2611 1.10166 28.0536C1.10166 27.8176 1.13017 27.605 1.18723 27.413C1.24429 27.2211 1.32211 27.0655 1.42067 26.941C1.52441 26.8139 1.6489 26.7153 1.79155 26.6505C1.9342 26.5857 2.08983 26.5519 2.25582 26.5519C2.40106 26.5519 2.53074 26.5805 2.64486 26.6401C2.75898 26.6998 2.85493 26.7802 2.93792 26.8839C3.01054 26.9747 3.0754 27.0862 3.12986 27.2185C3.18433 27.3508 3.22582 27.4727 3.25435 27.5868H3.46443L3.44109 26.4275H3.2362L3.12986 26.5831C2.99759 26.5105 2.86012 26.456 2.71228 26.4171C2.56704 26.3782 2.40364 26.3574 2.22468 26.3574C1.98347 26.3574 1.75525 26.3989 1.54257 26.4819C1.3299 26.5649 1.14575 26.6816 0.990133 26.8321C0.831922 26.9851 0.710009 27.1666 0.619232 27.3793C0.531049 27.592 0.484375 27.8254 0.484375 28.0874C0.484375 28.3493 0.528458 28.5802 0.621828 28.7876C0.712605 28.9951 0.834514 29.1689 0.987537 29.3141C1.14056 29.4568 1.31952 29.5683 1.51922 29.6435C1.71893 29.7187 1.92641 29.7577 2.14428 29.7577C2.48145 29.7577 2.76935 29.6876 3.01315 29.5502C3.25695 29.4127 3.45147 29.1819 3.59931 28.8603L3.40737 28.7773C3.36587 28.8784 3.314 28.9718 3.24916 29.0574V29.0522Z" fill="#5E29D6"/>
<path d="M9.35803 28.7558C9.4514 28.5457 9.49809 28.3097 9.49809 28.0529C9.49809 27.7962 9.4514 27.5627 9.36062 27.3501C9.26985 27.1374 9.14277 26.9585 8.98196 26.8081C8.82635 26.6629 8.6396 26.5487 8.42693 26.4657C8.21166 26.3853 7.98342 26.3438 7.74221 26.3438C7.501 26.3438 7.28573 26.3826 7.07305 26.463C6.86038 26.5434 6.67105 26.6577 6.51024 26.8055C6.34685 26.9559 6.21976 27.1349 6.12639 27.3424C6.03302 27.5499 5.98633 27.7859 5.98633 28.0478C5.98633 28.2891 6.03042 28.5147 6.1186 28.7274C6.20679 28.94 6.32869 29.119 6.48172 29.2668C6.63733 29.4173 6.82148 29.5366 7.03675 29.6196C7.25202 29.7052 7.48544 29.7467 7.73961 29.7467C7.97823 29.7467 8.20388 29.7077 8.41396 29.6273C8.62405 29.5469 8.81077 29.4353 8.96898 29.2875C9.13238 29.1397 9.26208 28.9608 9.35545 28.7507L9.35803 28.7558ZM8.80818 28.6418C8.76409 28.8181 8.69406 28.9738 8.5981 29.1138C8.50473 29.2513 8.38543 29.3576 8.2376 29.4354C8.08976 29.5106 7.92376 29.5494 7.74221 29.5494C7.54769 29.5494 7.3791 29.5106 7.23905 29.4354C7.09899 29.3602 6.98229 29.2538 6.88892 29.1215C6.79295 28.984 6.72293 28.8258 6.67883 28.6495C6.63474 28.4731 6.6114 28.2734 6.6114 28.0529C6.6114 27.8532 6.63214 27.6639 6.67364 27.4849C6.71514 27.306 6.77998 27.1478 6.86557 27.0129C6.95634 26.8728 7.07305 26.7614 7.21829 26.6758C7.36354 26.5928 7.53731 26.5487 7.74221 26.5487C7.92636 26.5487 8.08976 26.5849 8.22981 26.6576C8.37246 26.7302 8.49176 26.8314 8.58513 26.9611C8.6785 27.0934 8.75113 27.2515 8.80041 27.4382C8.84969 27.625 8.87302 27.8299 8.87302 28.0529C8.87302 28.276 8.85227 28.4654 8.80818 28.6418Z" fill="#5E29D6"/>
<path d="M12.4951 29.2046C12.4718 29.2928 12.4329 29.3576 12.3706 29.4017C12.3239 29.4354 12.2591 29.4614 12.1735 29.4769C12.0879 29.4925 12.0075 29.5055 11.9297 29.5106V29.674H13.4029V29.5106C13.3665 29.5106 13.2887 29.4951 13.172 29.464C13.0527 29.4354 12.9749 29.4043 12.9386 29.3732C12.8841 29.3317 12.8426 29.2591 12.8167 29.1631C12.7908 29.0645 12.7778 28.9219 12.7778 28.7352V26.7951H12.8115L13.9968 29.6222H14.1265L15.3714 26.8548H15.4103V29.2176C15.4103 29.2746 15.3973 29.3213 15.374 29.3576C15.3481 29.3939 15.3092 29.4277 15.2573 29.4562C15.2236 29.4717 15.1587 29.4847 15.068 29.4951C14.9772 29.5055 14.902 29.5106 14.8423 29.5106V29.674H16.4555V29.5106C16.4089 29.5106 16.3466 29.5029 16.2688 29.4899C16.191 29.4769 16.1339 29.464 16.1054 29.4484C16.0483 29.4199 16.0068 29.3888 15.9861 29.3524C15.9653 29.3161 15.955 29.272 15.955 29.2176V26.8755C15.955 26.8263 15.9653 26.7796 15.9861 26.7355C16.0068 26.694 16.0457 26.6629 16.1054 26.6447C16.1391 26.6343 16.1936 26.6214 16.2688 26.611C16.344 26.598 16.4037 26.5928 16.453 26.5902V26.4268H15.2625C15.2625 26.4554 15.2495 26.5098 15.2262 26.5902C15.2028 26.6732 15.1743 26.7511 15.1432 26.8263L14.251 28.8674L13.2057 26.4294H11.9608V26.5928C12.036 26.5954 12.1138 26.6084 12.189 26.6266C12.2643 26.6447 12.3317 26.6758 12.3836 26.7173C12.4328 26.7562 12.4692 26.8055 12.4951 26.8652C12.521 26.9274 12.534 27.0052 12.534 27.1012V28.7637C12.534 28.9712 12.5236 29.119 12.5003 29.2072L12.4951 29.2046Z" fill="#5E29D6"/>
<path d="M21.7358 27.677C21.811 27.5473 21.8473 27.3969 21.8473 27.2283C21.8473 26.9845 21.741 26.7925 21.5283 26.6447C21.3156 26.4995 21.0407 26.4268 20.7009 26.4268H19.0332V26.5902C19.0799 26.5928 19.1344 26.598 19.1992 26.6084C19.264 26.6162 19.3289 26.6317 19.3937 26.6499C19.456 26.6706 19.4975 26.7044 19.5156 26.7459C19.5338 26.7874 19.5416 26.8366 19.5416 26.8911V29.2357C19.5416 29.2954 19.5312 29.3447 19.5078 29.3836C19.4845 29.4225 19.4482 29.451 19.3963 29.4717C19.3652 29.4847 19.3107 29.4951 19.2329 29.5003C19.1551 29.5081 19.0955 29.5132 19.054 29.5158V29.6792H20.6205V29.5158C20.5557 29.5158 20.483 29.5081 20.4052 29.5003C20.3274 29.4899 20.273 29.4821 20.2418 29.4717C20.1796 29.451 20.1381 29.4199 20.1199 29.3784C20.0992 29.3369 20.0914 29.2902 20.0914 29.2383V28.2528H20.5012C20.675 28.2528 20.841 28.232 20.9966 28.1931C21.1522 28.1542 21.2948 28.0919 21.4271 28.0064C21.5594 27.9208 21.6631 27.8118 21.7384 27.6822L21.7358 27.677ZM21.1807 27.5525C21.1626 27.6303 21.1237 27.7081 21.064 27.7807C21.0044 27.8559 20.9188 27.9208 20.802 27.9726C20.6853 28.0245 20.5349 28.0504 20.3508 28.0504H20.0888V26.6136H20.4519C20.5972 26.6136 20.7191 26.6343 20.8176 26.6732C20.9162 26.7121 20.994 26.7692 21.0536 26.8392C21.1107 26.9067 21.1496 26.9845 21.1729 27.0752C21.1963 27.166 21.2067 27.2542 21.2067 27.3398C21.2067 27.402 21.1963 27.4721 21.1781 27.5525H21.1807Z" fill="#5E29D6"/>
<path d="M27.7803 29.511C27.7362 29.511 27.6843 29.5006 27.6221 29.4877C27.5598 29.4721 27.5079 29.4565 27.4664 29.4332C27.4094 29.3969 27.3627 29.3632 27.329 29.3269C27.2953 29.2906 27.2667 29.2413 27.2408 29.1816L26.0244 26.3779H25.8195C25.6457 26.7748 25.4486 27.2286 25.2281 27.737C25.0077 28.2453 24.8054 28.7044 24.6213 29.1116C24.5849 29.192 24.5486 29.2542 24.5097 29.2983C24.4708 29.3424 24.419 29.3865 24.3489 29.428C24.3048 29.4514 24.2504 29.4721 24.1855 29.4877C24.1207 29.5032 24.0636 29.511 24.0195 29.5136V29.677H25.3941V29.5136C25.2593 29.5084 25.1374 29.4877 25.0285 29.454C24.9195 29.4202 24.8676 29.3736 24.8676 29.3113C24.8676 29.2854 24.8728 29.2516 24.8806 29.2102C24.8884 29.1687 24.904 29.1168 24.9273 29.0493C24.9506 28.9819 24.9792 28.9093 25.0077 28.8289C25.0388 28.7485 25.0777 28.6551 25.1244 28.5488H26.4057L26.7091 29.2776C26.7169 29.2931 26.7221 29.3113 26.7247 29.3295C26.7273 29.3502 26.7299 29.3658 26.7299 29.3787C26.7299 29.4125 26.6858 29.441 26.5976 29.4643C26.5094 29.4877 26.3979 29.5032 26.2656 29.511V29.6744H27.7829V29.511H27.7803ZM25.2126 28.3465L25.7573 27.086L26.3097 28.3465H25.2126Z" fill="#5E29D6"/>
<path d="M33.1733 29.7057V27.3274C33.1733 27.1614 33.1836 27.0239 33.2044 26.915C33.2251 26.8061 33.2666 26.7334 33.3289 26.6945C33.373 26.6712 33.443 26.6453 33.5415 26.6245C33.6401 26.6012 33.7153 26.5882 33.762 26.5882V26.4248H32.2785V26.5882C32.3355 26.5908 32.4185 26.6064 32.5274 26.6349C32.6364 26.6634 32.7142 26.6894 32.7635 26.7205C32.8153 26.7542 32.8542 26.8216 32.8828 26.9228C32.9113 27.0239 32.9243 27.1692 32.9243 27.3585V28.9043L30.8727 26.4274H29.8301V26.5908C29.8949 26.5934 29.9805 26.6141 30.0869 26.6504C30.1932 26.6868 30.2762 26.7283 30.3384 26.7801C30.3851 26.819 30.4214 26.8735 30.45 26.9435C30.4785 27.0136 30.4915 27.0836 30.4915 27.1536V28.7539C30.4915 28.9665 30.4811 29.117 30.4577 29.2026C30.4344 29.2907 30.3955 29.3556 30.3332 29.3971C30.3047 29.4178 30.2373 29.4438 30.1284 29.4697C30.0194 29.4956 29.9416 29.5112 29.8949 29.5138V29.6772H31.3914V29.5138C31.3525 29.5138 31.2695 29.4982 31.1476 29.4671C31.0231 29.4386 30.9427 29.4075 30.9038 29.3737C30.8494 29.3322 30.8079 29.2596 30.7819 29.1585C30.756 29.0573 30.743 28.9147 30.743 28.7253V27.0499L32.9554 29.7083H33.1784L33.1733 29.7057Z" fill="#5E29D6"/>
<path d="M38.03 26.4248V26.5882C38.0793 26.5934 38.1338 26.596 38.1908 26.6012C38.2479 26.6038 38.3023 26.6141 38.3542 26.6245C38.4035 26.6375 38.4398 26.653 38.4709 26.6738C38.4994 26.6945 38.515 26.7231 38.515 26.7594C38.515 26.8009 38.445 26.9306 38.3023 27.1484C38.1597 27.3637 37.9548 27.6645 37.6877 28.051C37.5528 27.8331 37.4438 27.6594 37.3583 27.5245C37.2753 27.3896 37.1923 27.2548 37.1119 27.1173C37.0833 27.0706 37.0548 27.0213 37.0237 26.9695C36.9926 26.9176 36.9666 26.8735 36.9433 26.832C36.9251 26.7957 36.9096 26.7672 36.8992 26.7464C36.8888 26.7257 36.8836 26.7075 36.8836 26.6997C36.8836 26.666 36.9199 26.6401 36.9926 26.6219C37.0652 26.6038 37.1871 26.5934 37.3635 26.5908V26.4274H35.8047V26.5908C35.8514 26.5934 35.9032 26.6012 35.9603 26.6141C36.0174 26.6271 36.0666 26.6427 36.1081 26.666C36.1652 26.6997 36.2145 26.7386 36.2586 26.7827C36.3027 26.8268 36.3519 26.8917 36.409 26.9798C36.5024 27.1277 36.6113 27.3014 36.7358 27.5089C36.8603 27.7138 36.9744 27.9058 37.0781 28.0847C37.1248 28.1651 37.1637 28.2351 37.1975 28.3C37.2312 28.3648 37.2467 28.4089 37.2467 28.4349V29.2259C37.2467 29.283 37.2364 29.3322 37.213 29.3737C37.1897 29.4126 37.1482 29.4438 37.0859 29.4671C37.047 29.4801 36.9822 29.4931 36.8862 29.5008C36.7903 29.5086 36.7176 29.5138 36.6709 29.519V29.6824H38.3801V29.519C38.3231 29.519 38.2479 29.5086 38.1571 29.4905C38.0637 29.4723 37.9989 29.4593 37.9652 29.4464C37.9055 29.423 37.8614 29.3893 37.8381 29.3478C37.8121 29.3063 37.8018 29.2596 37.8018 29.2052V28.5853C37.8018 28.4712 37.8121 28.3856 37.8329 28.3259C37.8536 28.2663 37.8951 28.1885 37.96 28.0899C38.1286 27.8254 38.2712 27.6049 38.3853 27.4337C38.4995 27.26 38.6214 27.0914 38.7562 26.9228C38.8237 26.8398 38.8703 26.7879 38.8963 26.7672C38.9196 26.7464 38.9663 26.7179 39.0337 26.6816C39.0623 26.6634 39.1064 26.6453 39.1712 26.6245C39.2334 26.6064 39.2801 26.596 39.3113 26.5934V26.43H38.043L38.03 26.4248Z" fill="#5E29D6"/>
<path d="M39.5548 7.55082H27.5075L33.5325 0.760742H6.25025L12.2752 7.55082H0.230469L6.90125 15.0723L13.8703 22.9284L19.8952 16.1383L25.9202 22.9284L32.4769 15.5366L32.4847 15.5288L39.5626 7.55082H39.5548ZM18.3183 2.18204L13.8651 7.20068L9.41187 2.18204H18.3157H18.3183ZM36.3906 8.97212L31.9374 13.9908L27.4868 8.97212H36.3906ZM13.8677 9.34301L18.2976 14.3409H9.4352L13.8677 9.34301ZM15.442 8.97212H24.3433L19.8927 13.9908L15.442 8.97212ZM25.915 9.34301L30.3449 14.3383H21.4825L25.9124 9.34301H25.915ZM15.4602 7.54823L19.8901 2.55292L24.32 7.54823H15.4576H15.4602ZM25.915 7.20068L21.4618 2.18204H30.3657L25.9124 7.20068H25.915ZM12.2934 8.97212L7.84273 13.9908L3.39208 8.97212H12.2934ZM18.3183 15.7622L13.8651 20.7809L9.41187 15.7622H18.3157H18.3183ZM30.3657 15.7622L25.9124 20.7809L21.4592 15.7622H30.3631H30.3657Z" fill="#5E29D6"/>
</g>
<defs>
<clipPath id="clip0_78_2202">
<rect width="40" height="33" fill="white"/>
</clipPath>
</defs>
</svg>
