<svg width="30" height="33" viewBox="0 0 30 33" fill="none" xmlns="http://www.w3.org/2000/svg">
<g clip-path="url(#clip0_78_2131)">
<path d="M9.46752 8.27757H9.89328V8.70333V15.2509L11.8175 13.3288V6.35547H5.088L5.08594 20.0582L7.01011 18.1361V8.70333V8.27757H7.4338H9.46752Z" fill="#B8B8B8"/>
<path d="M17.0511 15.8607H17.4748V16.2865V18.3181V18.7439H17.0511H8.59594L6.67383 20.668L19.399 20.666V13.9365H13.4053L11.4812 15.8607H17.0511Z" fill="#B8B8B8"/>
<path d="M23.5212 7.96554V8.3913H23.0954H18.9495L17.0273 10.3134H25.4433V1.89746L23.5212 3.81957V7.96554Z" fill="#B8B8B8"/>
<path d="M22.9109 2.23266L24.835 0.310547H15.4395V9.70408L17.3616 7.78197V2.65841V2.23266H17.7873H22.9109Z" fill="#B8B8B8"/>
<path d="M0.609375 31.1736H0.966928V32.3H1.16534V31.1736H1.52083V30.998H0.609375V31.1736Z" fill="#B8B8B8"/>
<path d="M3.34506 32.0086H3.83902L3.94029 32.3H4.14904L3.67575 30.998H3.5104L3.03711 32.3H3.24585L3.34506 32.0086ZM3.59101 31.2646H3.59514L3.78322 31.8329H3.40293L3.59101 31.2646Z" fill="#B8B8B8"/>
<path d="M6.11795 31.2787C6.13862 31.2519 6.16549 31.2291 6.20062 31.2126C6.23369 31.196 6.27296 31.1857 6.3205 31.1857C6.38457 31.1857 6.43623 31.2043 6.4817 31.2395C6.52304 31.2767 6.55404 31.3201 6.56851 31.3738H6.77725C6.75659 31.2643 6.70698 31.1733 6.62638 31.0989C6.54784 31.0266 6.4445 30.9894 6.31843 30.9873C6.21509 30.9873 6.13035 31.0121 6.06215 31.0596C5.99188 31.1072 5.94227 31.1609 5.91127 31.2209C5.89267 31.2519 5.87614 31.2932 5.86787 31.3449C5.8596 31.3965 5.85547 31.4978 5.85547 31.6487C5.85547 31.7996 5.8596 31.8988 5.86787 31.9504C5.872 31.9794 5.8782 32.0021 5.88647 32.0207C5.89474 32.0393 5.903 32.0579 5.91334 32.0765C5.94434 32.1364 5.99601 32.1902 6.06421 32.2356C6.13242 32.2832 6.21716 32.308 6.3205 32.31C6.45277 32.308 6.56438 32.2625 6.65118 32.1757C6.73799 32.0868 6.78345 31.9794 6.78552 31.8471V31.5825H6.32256V31.7685H6.58711V31.8368C6.58711 31.9174 6.56024 31.9835 6.51064 32.0331C6.46104 32.0848 6.39697 32.1116 6.3205 32.1116C6.27503 32.1116 6.23369 32.1013 6.20062 32.0827C6.16755 32.0662 6.13862 32.0434 6.11795 32.0166C6.09315 31.9876 6.07455 31.9525 6.06628 31.907C6.05595 31.8616 6.05181 31.7747 6.05181 31.6466C6.05181 31.5185 6.05595 31.4317 6.06628 31.3841C6.07455 31.3407 6.09108 31.3035 6.11795 31.2767V31.2787Z" fill="#B8B8B8"/>
<path d="M9.11914 30.998V32.3H9.95205V32.114H9.31755V30.998H9.11914Z" fill="#B8B8B8"/>
<path d="M11.9815 30.998H11.7852V32.3H11.9815V30.998Z" fill="#B8B8B8"/>
<path d="M14.6754 31.9239L14.0864 30.998H13.9004V32.3H14.0988V31.3741H14.1029L14.6899 32.3H14.878V30.998H14.6796V31.9239H14.6754Z" fill="#B8B8B8"/>
<path d="M17.6297 31.184V30.998H16.7988V32.3H17.6297V32.114H16.9972V31.7317H17.5387V31.556H16.9972V31.184H17.6297Z" fill="#B8B8B8"/>
<path d="M21.7316 32.3V30.998H21.5353V31.556H21.0186V30.998H20.8223V32.3H21.0186V31.7317H21.5353V32.3H21.7316Z" fill="#B8B8B8"/>
<path d="M24.4851 31.184V30.998H23.6543V32.3H24.4851V32.114H23.8506V31.7317H24.3921V31.556H23.8506V31.184H24.4851Z" fill="#B8B8B8"/>
<path d="M26.9674 31.7203C27.1328 31.6563 27.2175 31.5384 27.2196 31.3607C27.2155 31.2408 27.1721 31.1478 27.0914 31.0838C27.0212 31.0279 26.9344 30.999 26.8248 30.999H26.3164V32.3011H26.5128V31.7431H26.7649L27.0336 32.3011H27.2692L26.9674 31.7224V31.7203ZM26.5128 31.5674V31.1726H26.8228C26.8868 31.1726 26.9344 31.185 26.9674 31.2119C27.0108 31.2408 27.0315 31.2904 27.0336 31.3586C27.0336 31.4144 27.015 31.462 26.9798 31.5012C26.9426 31.5426 26.8868 31.5632 26.8145 31.5653H26.5148L26.5128 31.5674Z" fill="#B8B8B8"/>
<path d="M29.0762 32.3H29.9091V32.114H29.2746V31.7317H29.8161V31.556H29.2746V31.184H29.9091V30.998H29.0762V32.3Z" fill="#B8B8B8"/>
<path d="M2.48797 28.5696C2.38669 28.766 2.22342 28.8652 1.99814 28.8652C1.77286 28.8652 1.59718 28.7949 1.46904 28.6544C1.3409 28.5138 1.27683 28.3257 1.27683 28.0922C1.27683 27.8586 1.3409 27.6706 1.46904 27.53C1.59718 27.3895 1.77493 27.3192 1.99814 27.3192C2.22135 27.3192 2.38669 27.4184 2.48797 27.6127H3.26921C3.17827 27.3316 3.015 27.1125 2.78352 26.9555C2.55204 26.7984 2.28542 26.7178 1.98781 26.7178C1.60338 26.7178 1.27683 26.848 1.01022 27.1063C0.743602 27.3647 0.611328 27.6933 0.611328 28.0922C0.611328 28.4911 0.743602 28.8176 1.01022 29.0781C1.27683 29.3364 1.60338 29.4666 1.98781 29.4666C2.28542 29.4666 2.55204 29.3881 2.78352 29.2289C3.015 29.0718 3.17827 28.8507 3.26921 28.5717H2.48797V28.5696Z" fill="#B8B8B8"/>
<path d="M7.81143 28.0922C7.81143 27.6954 7.67916 27.3668 7.41461 27.1063C7.15006 26.848 6.82558 26.7178 6.43909 26.7178C6.0526 26.7178 5.72605 26.848 5.45944 27.1063C5.19282 27.3647 5.06055 27.6933 5.06055 28.0922C5.06055 28.4911 5.19282 28.8197 5.45944 29.0781C5.72605 29.3385 6.0526 29.4687 6.43702 29.4687C6.82145 29.4687 7.148 29.3385 7.41255 29.0781C7.67709 28.8176 7.80937 28.489 7.80937 28.0922H7.81143ZM6.95372 28.6544C6.82558 28.7949 6.65197 28.8652 6.43702 28.8652C6.22208 28.8652 6.04847 28.7949 5.92033 28.6544C5.79219 28.5138 5.72812 28.3257 5.72812 28.0922C5.72812 27.8586 5.79219 27.6706 5.92033 27.53C6.04847 27.3895 6.22208 27.3192 6.43702 27.3192C6.65197 27.3192 6.82558 27.3895 6.95372 27.53C7.08186 27.6706 7.14593 27.8586 7.14593 28.0922C7.14593 28.3257 7.08186 28.5138 6.95372 28.6544Z" fill="#B8B8B8"/>
<path d="M12.8039 26.7568H12.0557L11.2869 28.6066L10.5139 26.7568H9.76367V29.4416H10.4188V27.9266L11.0409 29.4416H11.5266L12.1508 27.9266V29.4416H12.8039V26.7568Z" fill="#B8B8B8"/>
<path d="M15.5615 28.398H15.9666C16.1526 28.398 16.3138 28.3711 16.4503 28.3153C16.5867 28.2595 16.69 28.1892 16.7582 28.1024C16.8884 27.935 16.9525 27.7593 16.9525 27.5775C16.9525 27.3501 16.8657 27.1558 16.6921 26.9967C16.5185 26.8355 16.2766 26.7549 15.9646 26.7549H14.9043V29.4396H15.5574V28.3959L15.5615 28.398ZM15.5615 27.255H15.9666C16.0638 27.255 16.1402 27.286 16.2002 27.346C16.258 27.408 16.289 27.4865 16.289 27.5816C16.289 27.6767 16.2601 27.7552 16.2022 27.8131C16.1444 27.8709 16.0658 27.9019 15.9666 27.9019H15.5615V27.255Z" fill="#B8B8B8"/>
<path d="M20.3548 26.748H19.5591L18.627 29.4411H19.3235L19.4723 28.9884H20.4354L20.5863 29.4411H21.2848L20.3569 26.748H20.3548ZM19.6355 28.4924L19.9538 27.5376L20.2721 28.4924H19.6376H19.6355Z" fill="#B8B8B8"/>
<path d="M25.5364 29.4411V26.748H24.8833V28.4428L23.7899 26.748H23.1348V29.4411H23.7899V27.7463L24.8833 29.4411H25.5364Z" fill="#B8B8B8"/>
<path d="M28.6708 27.968L28.1541 26.7568H27.4121L28.3422 28.5777V29.4416H28.9953V28.5777L29.9253 26.7568H29.1833L28.6708 27.968Z" fill="#B8B8B8"/>
</g>
<defs>
<clipPath id="clip0_78_2131">
<rect width="30" height="33" fill="white"/>
</clipPath>
</defs>
</svg>
