<svg width="750" height="530" viewBox="0 0 750 530" fill="none" xmlns="http://www.w3.org/2000/svg">
<path d="M124.18 433.423H515.631C519.799 433.423 523.188 430.035 523.188 425.869V111.389C523.188 107.224 519.799 103.835 515.631 103.835H124.184C120.017 103.835 116.627 107.224 116.627 111.389V425.869C116.627 430.035 120.017 433.423 124.184 433.423H124.18ZM515.631 104.823C519.251 104.823 522.2 107.767 522.2 111.389V425.869C522.2 429.487 519.255 432.435 515.631 432.435H124.184C120.564 432.435 117.615 429.491 117.615 425.869V111.389C117.615 107.771 120.56 104.823 124.184 104.823H515.631Z" fill="white"/>
<path d="M117.121 134.284H522.694V135.276H117.121V134.284Z" fill="white"/>
<path d="M510.998 113.033L511.699 113.734L497.154 128.272L496.453 127.571L510.998 113.033Z" fill="white"/>
<path d="M497.157 113.037L511.702 127.575L511.001 128.276L496.456 113.738L497.157 113.037Z" fill="white"/>
<path d="M473.931 128.415H489.464V112.89H473.931V128.415ZM488.476 127.423H474.923V113.878H488.476V127.423Z" fill="white"/>
<path d="M452.841 127.427H468.833V128.419H452.841V127.427Z" fill="white"/>
<path d="M410.615 227.637C408.47 227.135 406.233 226.706 403.916 226.346C406.21 226.748 408.436 227.173 410.577 227.629C410.592 227.629 410.604 227.633 410.619 227.637H410.615Z" fill="#EFE6C9"/>
<path d="M403.912 226.346C362.961 219.187 299.651 220.213 299.651 220.213C299.651 220.213 263.912 209.887 232.085 209.627C200.258 209.37 207.114 229.034 207.114 229.034C207.114 229.034 205.103 242.997 235.674 249.306C235.674 249.306 252.115 247.174 265.989 243.219C279.196 239.455 357.671 219.175 403.916 226.346H403.912Z" fill="#EFE6C9"/>
<path d="M137.932 266.478C132.519 258.078 93.1573 197.594 93.1573 197.594L97.9952 194.818C97.9952 194.818 92.4219 183.998 84.6384 173.983C76.8548 163.967 58.4839 160.77 46.1154 171.82L81.1641 224.773C81.1641 224.773 104.61 261.213 112.019 271.899C119.427 282.584 123.1 285.398 137.997 289.889C152.893 294.38 187.935 305.238 187.935 305.238L227.718 317.98C227.718 317.98 172.774 290.785 158.877 284.349C144.984 277.914 143.34 274.881 137.932 266.481V266.478Z" fill="#EFE6C9"/>
<path d="M428.48 233.096C423.815 230.933 417.659 229.134 410.573 227.629C393.634 224.317 377.163 225.875 351.02 232.537C324.858 239.207 288.672 251.194 270.929 256.979C253.187 262.764 249.98 263.488 244.579 262.959C239.182 262.431 184.185 255.593 184.185 255.593L177.232 253.977C177.232 253.977 148.852 219.574 134.89 203.976C120.928 188.378 107.246 189.772 97.999 194.814L93.1611 197.59C93.1611 197.59 132.523 258.074 137.935 266.474C143.348 274.874 144.987 277.906 158.88 284.342C172.774 290.778 227.722 317.972 227.722 317.972C227.722 317.972 244.12 326.364 260.449 323.96C276.778 321.556 286.99 319.205 333.768 314.033C380.546 308.86 416.257 327.115 442.205 351.315C468.152 375.52 755 609 755 609L617.314 352.062C505.323 275.237 459.698 247.564 428.48 233.096Z" fill="#EFE6C9"/>
<path d="M270.929 256.979C288.672 251.194 324.858 239.207 351.02 232.537C377.159 225.872 393.634 224.317 410.572 227.629C408.431 227.173 406.209 226.748 403.911 226.346C357.666 219.172 279.191 239.452 265.984 243.219C252.114 247.174 235.669 249.306 235.669 249.306L184.184 255.597C184.184 255.597 239.182 262.435 244.579 262.963C249.976 263.491 253.186 262.768 270.929 256.983V256.979Z" fill="#EFE6C9"/>
<path d="M100.772 280.701C97.1373 277.584 45.0544 234.796 45.0544 234.796C45.0544 234.796 26.7026 231.293 20.9876 250.44L100.611 291.371L187.938 305.234C187.938 305.234 123.207 288.557 115.585 286.451C107.962 284.346 104.407 283.813 100.772 280.701Z" fill="#EFE6C9"/>
<path d="M112.022 271.899C104.614 261.213 81.1681 224.773 81.1681 224.773C81.1681 224.773 55.772 203.57 41.879 192.283C27.982 180.997 8.97527 183.638 0.425659 198.298L45.0544 234.792C45.0544 234.792 97.1373 277.58 100.772 280.697C104.407 283.813 107.962 284.346 115.585 286.447C123.207 288.553 187.938 305.231 187.938 305.231C187.938 305.231 152.897 294.373 138.001 289.882C123.104 285.391 119.434 282.573 112.022 271.891V271.899Z" fill="#EFE6C9"/>
<path d="M410.615 229.888C408.47 229.386 406.233 228.957 403.916 228.598C406.21 229 408.436 229.425 410.577 229.88C410.592 229.88 410.604 229.884 410.619 229.888H410.615Z" fill="#FF61F5"/>
<path d="M403.912 228.598C362.961 221.438 299.651 222.464 299.651 222.464C299.651 222.464 263.912 212.138 232.085 211.878C200.258 211.622 207.114 231.285 207.114 231.285C207.114 231.285 205.103 245.248 235.674 251.558C235.674 251.558 252.115 249.425 265.989 245.47C279.196 241.707 357.671 221.427 403.916 228.598H403.912Z" fill="#FF61F5"/>
<path d="M137.932 268.733C132.519 260.333 93.1573 199.849 93.1573 199.849L97.9952 197.073C97.9952 197.073 92.4219 186.253 84.6384 176.238C76.8548 166.222 58.4839 163.025 46.1154 174.075L81.1641 227.028C81.1641 227.028 104.61 263.468 112.019 274.154C119.427 284.839 123.1 287.653 137.997 292.144C152.893 296.635 187.935 307.493 187.935 307.493L227.718 320.235C227.718 320.235 172.774 293.04 158.877 286.604C144.984 280.169 143.34 277.136 137.932 268.736V268.733Z" fill="#FF61F5"/>
<path d="M428.48 235.351C423.815 233.188 417.659 231.389 410.573 229.884C393.634 226.572 377.163 228.13 351.02 234.792C324.858 241.462 288.672 253.449 270.929 259.234C253.187 265.019 249.98 265.743 244.579 265.214C239.182 264.686 184.185 257.848 184.185 257.848L177.232 256.232C177.232 256.232 148.852 221.829 134.89 206.231C120.928 190.633 107.246 192.027 97.999 197.069L93.1611 199.845C93.1611 199.845 132.523 260.329 137.935 268.729C143.348 277.129 144.987 280.161 158.88 286.597C172.774 293.033 227.722 320.227 227.722 320.227C227.722 320.227 244.12 328.619 260.449 326.215C276.778 323.811 286.99 321.46 333.768 316.288C380.546 311.115 416.257 329.37 442.205 353.57C468.152 377.775 756.5 619.5 756.5 619.5L617.314 354.313C505.323 277.489 459.698 249.816 428.48 235.347V235.351Z" fill="#FF61F5"/>
<path d="M270.929 259.234C288.672 253.449 324.858 241.462 351.02 234.792C377.159 228.127 393.634 226.572 410.572 229.884C408.431 229.428 406.209 229.003 403.911 228.601C357.666 221.427 279.191 241.707 265.984 245.474C252.114 249.429 235.669 251.561 235.669 251.561L184.184 257.852C184.184 257.852 239.182 264.69 244.579 265.218C249.976 265.746 253.186 265.023 270.929 259.238V259.234Z" fill="#FF61F5"/>
<path d="M100.772 282.956C97.1373 279.839 45.0544 237.051 45.0544 237.051C45.0544 237.051 26.7026 233.548 20.9876 252.695L100.611 293.626L187.938 307.489C187.938 307.489 123.207 290.812 115.585 288.706C107.962 286.601 104.407 286.069 100.772 282.956Z" fill="#FF61F5"/>
<path d="M112.022 274.154C104.614 263.468 81.1681 227.028 81.1681 227.028C81.1681 227.028 55.772 205.825 41.879 194.538C27.982 183.252 8.97527 185.893 0.425659 200.553L45.0544 237.047C45.0544 237.047 97.1373 279.835 100.772 282.952C104.407 286.068 107.962 286.601 115.585 288.702C123.207 290.808 187.938 307.486 187.938 307.486C187.938 307.486 152.897 296.628 138.001 292.137C123.104 287.646 119.434 284.828 112.022 274.146V274.154Z" fill="#FF61F5"/>
<path d="M137.932 266.478C132.519 258.078 93.1573 197.594 93.1573 197.594L97.9952 194.818C97.9952 194.818 92.4219 183.998 84.6384 173.983C76.8548 163.967 58.4839 160.77 46.1154 171.82L81.1641 224.773C81.1641 224.773 104.61 261.213 112.019 271.899C119.427 282.584 123.1 285.398 137.997 289.889C152.893 294.38 187.935 305.238 187.935 305.238L227.718 317.98C227.718 317.98 172.774 290.785 158.877 284.349C144.984 277.914 143.34 274.881 137.932 266.481V266.478Z" fill="#EFE6C9"/>
<path d="M428.48 233.096C423.815 230.933 417.659 229.134 410.573 227.629C393.634 224.317 377.163 225.875 351.02 232.537C324.858 239.207 288.672 251.194 270.929 256.979C253.187 262.764 249.98 263.488 244.579 262.959C239.182 262.431 184.185 255.593 184.185 255.593L177.232 253.977C177.232 253.977 148.852 219.574 134.89 203.976C120.928 188.378 107.246 189.772 97.999 194.814L93.1611 197.59C93.1611 197.59 132.523 258.074 137.935 266.474C143.348 274.874 144.987 277.906 158.88 284.342C172.774 290.778 227.722 317.972 227.722 317.972C227.722 317.972 244.12 326.364 260.449 323.96C276.778 321.556 286.99 319.205 333.768 314.033C380.546 308.86 416.257 327.115 442.205 351.315C468.152 375.52 755 620.5 755 620.5L617.314 352.062C505.323 275.237 459.698 247.564 428.48 233.096Z" fill="#EFE6C9"/>
<path d="M100.772 280.701C97.1373 277.584 45.0544 234.796 45.0544 234.796C45.0544 234.796 26.7026 231.293 20.9876 250.44L100.611 291.371L187.938 305.234C187.938 305.234 123.207 288.557 115.585 286.451C107.962 284.346 104.407 283.813 100.772 280.701Z" fill="#EFE6C9"/>
<path d="M112.022 271.899C104.614 261.213 81.1681 224.773 81.1681 224.773C81.1681 224.773 55.772 203.57 41.879 192.283C27.982 180.997 8.97527 183.638 0.425659 198.298L45.0544 234.792C45.0544 234.792 97.1373 277.58 100.772 280.697C104.407 283.813 107.962 284.346 115.585 286.447C123.207 288.553 187.938 305.231 187.938 305.231C187.938 305.231 152.897 294.373 138.001 289.882C123.104 285.391 119.434 282.573 112.022 271.891V271.899Z" fill="#EFE6C9"/>
<path d="M137.932 268.733C132.519 260.333 93.1573 199.849 93.1573 199.849L97.9952 197.073C97.9952 197.073 92.4219 186.253 84.6384 176.238C76.8548 166.222 58.4839 163.025 46.1154 174.075L81.1641 227.028C81.1641 227.028 104.61 263.468 112.019 274.154C119.427 284.839 123.1 287.653 137.997 292.144C152.893 296.635 187.935 307.493 187.935 307.493L227.718 320.235C227.718 320.235 172.774 293.04 158.877 286.604C144.984 280.169 143.34 277.136 137.932 268.736V268.733Z" fill="#FF61F5"/>
<path d="M428.48 235.351C423.815 233.188 417.659 231.389 410.573 229.884C393.634 226.572 377.163 228.13 351.02 234.792C324.858 241.462 288.672 253.449 270.929 259.234C253.187 265.019 249.98 265.743 244.579 265.214C239.182 264.686 184.185 257.848 184.185 257.848L177.232 256.232C177.232 256.232 148.852 221.829 134.89 206.231C120.928 190.633 107.246 192.027 97.999 197.069L93.1611 199.845C93.1611 199.845 132.523 260.329 137.935 268.729C143.348 277.129 144.987 280.161 158.88 286.597C172.774 293.033 227.722 320.227 227.722 320.227C227.722 320.227 244.12 328.619 260.449 326.215C276.778 323.811 286.99 321.46 333.768 316.288C380.546 311.115 416.257 329.37 442.205 353.57C468.152 377.775 754 611.5 754 611.5L761 399.5C649.009 322.676 459.698 249.816 428.48 235.347V235.351Z" fill="#FF61F5"/>
<path d="M100.772 282.956C97.1373 279.839 45.0544 237.051 45.0544 237.051C45.0544 237.051 26.7026 233.548 20.9876 252.695L100.611 293.626L187.938 307.489C187.938 307.489 123.207 290.812 115.585 288.706C107.962 286.601 104.407 286.069 100.772 282.956Z" fill="#FF61F5"/>
<path d="M112.022 274.154C104.614 263.468 81.1681 227.028 81.1681 227.028C81.1681 227.028 55.772 205.825 41.879 194.538C27.982 183.252 8.97527 185.893 0.425659 200.553L45.0544 237.047C45.0544 237.047 97.1373 279.835 100.772 282.952C104.407 286.068 107.962 286.601 115.585 288.702C123.207 290.808 187.938 307.486 187.938 307.486C187.938 307.486 152.897 296.628 138.001 292.137C123.104 287.646 119.434 284.828 112.022 274.146V274.154Z" fill="#FF61F5"/>
<path d="M227.717 320.579C227.844 320.579 227.966 320.507 228.028 320.384C228.112 320.212 228.043 320.005 227.871 319.921C227.449 319.714 185.548 299.09 165.062 289.143C146.653 280.203 145.163 278.136 140.218 271.282C139.624 270.463 138.954 269.533 138.211 268.526C131.393 259.337 93.8311 200.258 93.4518 199.661C93.3484 199.5 93.1339 199.45 92.973 199.554C92.8121 199.657 92.7623 199.872 92.8658 200.032C93.245 200.63 130.818 259.728 137.652 268.939C138.395 269.939 139.065 270.869 139.655 271.688C144.677 278.652 146.19 280.754 164.76 289.767C185.241 299.71 227.143 320.334 227.564 320.541C227.614 320.564 227.668 320.576 227.717 320.576V320.579Z" fill="black"/>
<path d="M187.938 307.838C188.087 307.838 188.221 307.742 188.271 307.593C188.329 307.409 188.225 307.218 188.041 307.16C187.723 307.061 156.076 297.298 138.104 291.811C122.142 286.941 119.028 282.814 114.309 276.566C113.673 275.727 113.018 274.858 112.298 273.94C107.808 268.223 99.0252 254.402 90.5292 241.033C87.2963 235.948 84.2434 231.147 81.4625 226.84C81.3591 226.679 81.1446 226.633 80.9837 226.737C80.8228 226.84 80.7769 227.055 80.8803 227.215C83.6612 231.519 86.7141 236.32 89.9431 241.404C98.4468 254.785 107.242 268.625 111.754 274.364C112.474 275.28 113.125 276.145 113.757 276.983C118.557 283.339 121.725 287.539 137.901 292.474C155.873 297.96 187.52 307.723 187.838 307.823C187.873 307.834 187.907 307.838 187.942 307.838H187.938Z" fill="black"/>
<path d="M182.073 305.943C182.227 305.943 182.368 305.839 182.411 305.682C182.457 305.499 182.345 305.307 182.158 305.261C181.575 305.116 123.965 290.571 112.723 287.577C103.457 285.111 101.534 283.431 96.8877 279.376C95.8841 278.499 94.7427 277.504 93.3828 276.374C87.2234 271.259 72.2081 258.924 56.3155 245.861L45.276 236.787C45.1266 236.664 44.9083 236.687 44.7896 236.833C44.6708 236.978 44.69 237.2 44.8355 237.319L55.8749 246.393C71.7675 259.456 86.783 271.792 92.9424 276.907C94.2984 278.032 95.4322 279.024 96.4358 279.897C101.028 283.909 103.128 285.739 112.547 288.247C123.793 291.241 181.411 305.786 181.989 305.931C182.016 305.939 182.047 305.943 182.073 305.943Z" fill="black"/>
<path d="M235.712 251.803C254.65 248.598 270.787 244.881 284.071 241.668C286.443 241.094 288.794 240.504 291.066 239.934C304.396 236.584 318.182 233.119 350.174 229.237L350.113 228.747C318.09 232.633 304.289 236.098 290.943 239.455C288.672 240.026 286.324 240.615 283.953 241.19C270.676 244.402 254.55 248.116 235.628 251.316L235.712 251.803Z" fill="black"/>
<path d="M291.905 433.423H515.631C519.799 433.423 523.188 430.035 523.188 425.869V268.629H522.196V425.869C522.196 429.487 519.251 432.436 515.627 432.436H291.905V433.423Z" fill="white"/>
<path d="M126.867 154.815C98.3521 126.314 98.3521 80.1057 126.867 51.6051C155.381 23.1044 201.613 23.1044 230.127 51.6051C258.642 80.1057 258.642 126.314 230.127 154.815C201.613 183.316 155.381 183.316 126.867 154.815Z" fill="#00CBF3"/>
<path d="M137.247 155.426C137.416 155.426 137.585 155.353 137.699 155.207C137.899 154.958 137.857 154.595 137.608 154.396C121.949 141.88 112.966 123.223 112.966 103.207C112.966 67.0885 142.365 37.7079 178.498 37.7079C178.816 37.7079 179.076 37.4514 179.076 37.1298C179.076 36.8082 178.816 36.5517 178.498 36.5517C141.725 36.5517 111.809 66.453 111.809 103.207C111.809 123.576 120.949 142.561 136.884 155.295C136.991 155.38 137.117 155.422 137.244 155.422L137.247 155.426Z" fill="#FFF1D0"/>
<path d="M148.895 124.379C155.809 122.362 163.171 117.557 163.623 109.636C163.726 107.794 163.416 105.841 162.347 104.299C161.133 102.541 159.126 101.592 157.153 100.952C154.69 100.156 148.443 98.2723 147.684 102.277C147.37 103.935 148.672 105.508 149.799 106.557C151.07 107.744 152.503 108.778 153.993 109.67C156.981 111.462 160.309 112.679 163.749 113.242C167.231 113.813 171.123 113.881 174.421 112.48C176.11 111.764 177.631 110.593 178.439 108.908C179.132 107.461 179.266 105.753 179.148 104.172C179.025 102.568 178.611 100.922 177.784 99.5319C176.941 98.1154 175.493 96.9974 174.137 96.09C172.218 94.8075 169.817 93.8082 167.468 94.2102C166.748 94.3327 166.017 94.5931 165.45 95.0678C164.354 95.9828 164.343 97.5564 164.485 98.8696C164.852 102.243 166.936 105.225 169.334 107.515C173.969 111.94 180.255 114.548 186.605 115.122C189.731 115.405 192.903 115.199 195.959 114.471C199.223 113.694 203.72 112.358 204.478 108.59C205.245 104.792 202.031 101.492 198.212 102.174C194.144 102.905 192.979 107.515 193.998 111.002C195.075 114.682 197.875 117.882 200.59 120.478C203.502 123.262 206.842 125.566 210.331 127.565C212.04 128.541 213.79 129.449 215.56 130.306C215.709 130.379 215.583 130.609 215.434 130.532C211.262 128.503 207.198 126.217 203.536 123.357C200.07 120.65 196.714 117.32 194.684 113.368C193.098 110.286 192.596 106.117 195.247 103.433C197.446 101.205 201.479 101.301 203.521 103.705C205.639 106.201 205.137 110.003 202.613 111.99C201.065 113.208 199.077 113.881 197.204 114.418C195.507 114.9 193.765 115.222 192.006 115.382C184.817 116.041 177.374 114.05 171.571 109.731C168.794 107.664 166.247 105.011 164.952 101.745C164.113 99.6277 163.351 96.0479 165.68 94.5931C167.38 93.5325 169.636 93.7737 171.437 94.4169C174.302 95.443 177.378 97.6598 178.569 100.527C179.734 103.338 179.975 107.216 178.213 109.839C176.083 113.005 171.843 113.824 168.284 113.855C164.419 113.885 160.562 113.066 157.023 111.519C155.127 110.692 153.326 109.651 151.668 108.418C150.362 107.449 149.017 106.381 148.136 104.992C147.382 103.801 147.067 102.285 147.929 101.056C148.757 99.8765 150.3 99.5855 151.652 99.5855C153.595 99.5855 155.56 100.145 157.387 100.749C159.264 101.37 161.148 102.273 162.378 103.877C164.553 106.714 164.186 110.838 162.86 113.95C161.29 117.645 158.252 120.463 154.755 122.331C152.92 123.311 150.971 124.043 148.975 124.625C148.814 124.67 148.745 124.422 148.906 124.372L148.895 124.379Z" fill="black"/>
<path d="M188.119 167.608H168.875C157.02 167.608 147.398 177.225 147.398 189.075V208.31C147.398 220.159 157.02 229.777 168.875 229.777H188.119C199.975 229.777 209.597 220.159 209.597 208.31V189.075C209.597 177.225 199.975 167.608 188.119 167.608Z" fill="black"/>
<path d="M209.597 190.461C209.597 168.914 215.228 166.766 219.621 163.519H176.8V190.48L209.597 190.461Z" fill="#00CBF3"/>
<path d="M147.275 190.461C147.275 168.914 141.644 166.766 137.25 163.519H180.071V190.48L147.275 190.461Z" fill="#00CBF3"/>
<path d="M193.931 190.48H194.337C194.337 176.372 196.191 156.49 205.02 141.907C210.283 133.212 215.596 130.517 215.646 130.49L215.465 130.126C215.412 130.153 209.996 132.902 204.671 141.696C199.772 149.79 193.931 164.821 193.931 190.48Z" fill="black"/>
<path d="M162.079 190.48H162.485C162.485 175.051 161.321 153.262 155.782 137.09C152.457 127.385 149.171 124.353 149.033 124.23L148.761 124.533C148.795 124.563 152.128 127.653 155.418 137.286C160.923 153.4 162.079 175.108 162.079 190.48Z" fill="black"/>
<path d="M178.497 242.174C172.25 242.174 167.186 237.112 167.186 230.868H189.812C189.812 237.112 184.749 242.174 178.501 242.174H178.497Z" fill="black"/>
<path d="M147.397 197.008H179.236L147.397 194.665V197.008Z" fill="#FFF1D0"/>
<path d="M147.397 203.539H179.236L147.397 201.196V203.539Z" fill="#FFF1D0"/>
<path d="M147.397 210.067H179.236L147.397 207.724V210.067Z" fill="#FFF1D0"/>
<path d="M65.1375 108.483L60.9509 98.0656L66.2714 107.955C69.5235 114 77.0886 116.807 83.4472 114.318L93.4639 110.397L84.0333 115.57C78.0501 118.855 75.3572 126.458 77.916 132.825L82.1027 143.243L76.7822 133.354C73.5301 127.308 65.9649 124.502 59.6064 126.991L49.5897 130.911L59.0203 125.739C65.0035 122.454 67.6963 114.85 65.1375 108.483Z" fill="#FF61F5"/>
</svg>
