<svg width="839" height="530" viewBox="0 0 839 530" fill="none" xmlns="http://www.w3.org/2000/svg">
<path d="M213.181 433.423H604.632C608.799 433.423 612.189 430.035 612.189 425.869V111.389C612.189 107.224 608.799 103.835 604.632 103.835H213.185C209.018 103.835 205.628 107.224 205.628 111.389V425.869C205.628 430.035 209.018 433.423 213.185 433.423H213.181ZM604.632 104.823C608.252 104.823 611.201 107.767 611.201 111.389V425.869C611.201 429.487 608.256 432.435 604.632 432.435H213.185C209.565 432.435 206.616 429.491 206.616 425.869V111.389C206.616 107.771 209.561 104.823 213.185 104.823H604.632Z" fill="white"/>
<path d="M206.122 134.284H611.695V135.276H206.122V134.284Z" fill="white"/>
<path d="M600 113.033L600.701 113.734L586.156 128.272L585.455 127.571L600 113.033Z" fill="white"/>
<path d="M586.158 113.037L600.703 127.575L600.002 128.276L585.457 113.738L586.158 113.037Z" fill="white"/>
<path d="M562.932 128.415H578.465V112.89H562.932V128.415ZM577.477 127.423H563.924V113.878H577.477V127.423Z" fill="white"/>
<path d="M541.842 127.427H557.834V128.419H541.842V127.427Z" fill="white"/>
<path d="M499.615 227.637C497.47 227.135 495.233 226.706 492.916 226.346C495.21 226.748 497.436 227.173 499.577 227.629C499.592 227.629 499.604 227.633 499.619 227.637H499.615Z" fill="#EFE6C9"/>
<path d="M492.912 226.346C451.961 219.187 388.651 220.213 388.651 220.213C388.651 220.213 352.912 209.887 321.085 209.627C289.258 209.37 296.114 229.034 296.114 229.034C296.114 229.034 294.103 242.997 324.674 249.306C324.674 249.306 341.115 247.174 354.989 243.219C368.196 239.455 446.671 219.175 492.916 226.346H492.912Z" fill="#EFE6C9"/>
<path d="M226.933 266.478C221.52 258.078 182.158 197.594 182.158 197.594L186.996 194.818C186.996 194.818 181.423 183.998 173.639 173.983C165.856 163.967 147.485 160.77 135.116 171.82L170.165 224.773C170.165 224.773 193.611 261.213 201.02 271.899C208.428 282.584 212.101 285.398 226.998 289.889C241.894 294.38 276.936 305.238 276.936 305.238L316.719 317.98C316.719 317.98 261.775 290.785 247.878 284.349C233.985 277.914 232.341 274.881 226.933 266.481V266.478Z" fill="#EFE6C9"/>
<path d="M517.48 233.096C512.815 230.933 506.659 229.134 499.573 227.629C482.634 224.317 466.163 225.875 440.02 232.537C413.858 239.207 377.672 251.194 359.929 256.979C342.187 262.764 338.98 263.488 333.579 262.959C328.182 262.431 273.185 255.593 273.185 255.593L266.232 253.977C266.232 253.977 237.852 219.574 223.89 203.976C209.928 188.378 196.246 189.772 186.999 194.814L182.161 197.59C182.161 197.59 221.523 258.074 226.935 266.474C232.348 274.874 233.987 277.906 247.88 284.342C261.774 290.778 316.722 317.972 316.722 317.972C316.722 317.972 333.12 326.364 349.449 323.96C365.778 321.556 375.99 319.205 422.768 314.033C469.546 308.86 505.257 327.115 531.205 351.315C557.152 375.52 844 609 844 609L706.314 352.062C594.323 275.237 548.698 247.564 517.48 233.096Z" fill="#EFE6C9"/>
<path d="M359.929 256.979C377.672 251.194 413.858 239.207 440.02 232.537C466.159 225.872 482.634 224.317 499.572 227.629C497.431 227.173 495.209 226.748 492.911 226.346C446.666 219.172 368.191 239.452 354.984 243.219C341.114 247.174 324.669 249.306 324.669 249.306L273.184 255.597C273.184 255.597 328.182 262.435 333.579 262.963C338.976 263.491 342.186 262.768 359.929 256.983V256.979Z" fill="#EFE6C9"/>
<path d="M189.771 280.701C186.136 277.584 134.053 234.796 134.053 234.796C134.053 234.796 115.702 231.293 109.987 250.44L189.61 291.371L276.938 305.234C276.938 305.234 212.206 288.557 204.584 286.451C196.961 284.346 193.407 283.813 189.771 280.701Z" fill="#EFE6C9"/>
<path d="M201.021 271.899C193.613 261.213 170.167 224.773 170.167 224.773C170.167 224.773 144.771 203.57 130.878 192.283C116.981 180.997 97.9743 183.638 89.4247 198.298L134.053 234.792C134.053 234.792 186.136 277.58 189.771 280.697C193.407 283.813 196.961 284.346 204.584 286.447C212.206 288.553 276.938 305.231 276.938 305.231C276.938 305.231 241.896 294.373 227 289.882C212.103 285.391 208.433 282.573 201.021 271.891V271.899Z" fill="#EFE6C9"/>
<path d="M499.615 229.888C497.47 229.386 495.233 228.957 492.916 228.598C495.21 229 497.436 229.425 499.577 229.88C499.592 229.88 499.604 229.884 499.619 229.888H499.615Z" fill="#FF61F5"/>
<path d="M492.912 228.598C451.961 221.438 388.651 222.464 388.651 222.464C388.651 222.464 352.912 212.138 321.085 211.878C289.258 211.622 296.114 231.285 296.114 231.285C296.114 231.285 294.103 245.248 324.674 251.558C324.674 251.558 341.115 249.425 354.989 245.47C368.196 241.707 446.671 221.427 492.916 228.598H492.912Z" fill="#FF61F5"/>
<path d="M226.933 268.733C221.52 260.333 182.158 199.849 182.158 199.849L186.996 197.073C186.996 197.073 181.423 186.253 173.639 176.238C165.856 166.222 147.485 163.025 135.116 174.075L170.165 227.028C170.165 227.028 193.611 263.468 201.02 274.154C208.428 284.839 212.101 287.653 226.998 292.144C241.894 296.635 276.936 307.493 276.936 307.493L316.719 320.235C316.719 320.235 261.775 293.04 247.878 286.604C233.985 280.169 232.341 277.136 226.933 268.736V268.733Z" fill="#FF61F5"/>
<path d="M517.48 235.351C512.815 233.188 506.659 231.389 499.573 229.884C482.634 226.572 466.163 228.13 440.02 234.792C413.858 241.462 377.672 253.449 359.929 259.234C342.187 265.019 338.98 265.743 333.579 265.214C328.182 264.686 273.185 257.848 273.185 257.848L266.232 256.232C266.232 256.232 237.852 221.829 223.89 206.231C209.928 190.633 196.246 192.027 186.999 197.069L182.161 199.845C182.161 199.845 221.523 260.329 226.935 268.729C232.348 277.129 233.987 280.161 247.88 286.597C261.774 293.033 316.722 320.227 316.722 320.227C316.722 320.227 333.12 328.619 349.449 326.215C365.778 323.811 375.99 321.46 422.768 316.288C469.546 311.115 505.257 329.37 531.205 353.57C557.152 377.775 845.5 619.5 845.5 619.5L706.314 354.313C594.323 277.489 548.698 249.816 517.48 235.347V235.351Z" fill="#FF61F5"/>
<path d="M359.929 259.234C377.672 253.449 413.858 241.462 440.02 234.792C466.159 228.127 482.634 226.572 499.572 229.884C497.431 229.428 495.209 229.003 492.911 228.601C446.666 221.427 368.191 241.707 354.984 245.474C341.114 249.429 324.669 251.561 324.669 251.561L273.184 257.852C273.184 257.852 328.182 264.69 333.579 265.218C338.976 265.746 342.186 265.023 359.929 259.238V259.234Z" fill="#FF61F5"/>
<path style="mix-blend-mode:multiply" d="M8.3426 332.731C3.73458 307.856 134.345 262.828 300.068 232.158C465.792 201.488 603.873 196.79 608.481 221.664C613.089 246.539 482.479 291.567 316.755 322.237C151.032 352.907 12.9506 357.605 8.3426 332.731Z" fill="url(#paint0_radial_38_46)"/>
<path d="M189.771 282.956C186.136 279.839 134.053 237.051 134.053 237.051C134.053 237.051 115.702 233.548 109.987 252.695L189.61 293.626L276.938 307.489C276.938 307.489 212.206 290.812 204.584 288.706C196.961 286.601 193.407 286.069 189.771 282.956Z" fill="#FF61F5"/>
<path d="M201.021 274.154C193.613 263.468 170.167 227.028 170.167 227.028C170.167 227.028 144.771 205.825 130.878 194.538C116.981 183.252 97.9743 185.893 89.4247 200.553L134.053 237.047C134.053 237.047 186.136 279.835 189.771 282.952C193.407 286.068 196.961 286.601 204.584 288.702C212.206 290.808 276.938 307.486 276.938 307.486C276.938 307.486 241.896 296.628 227 292.137C212.103 287.646 208.433 284.828 201.021 274.146V274.154Z" fill="#FF61F5"/>
<path d="M226.933 266.478C221.52 258.078 182.158 197.594 182.158 197.594L186.996 194.818C186.996 194.818 181.423 183.998 173.639 173.983C165.856 163.967 147.485 160.77 135.116 171.82L170.165 224.773C170.165 224.773 193.611 261.213 201.02 271.899C208.428 282.584 212.101 285.398 226.998 289.889C241.894 294.38 276.936 305.238 276.936 305.238L316.719 317.98C316.719 317.98 261.775 290.785 247.878 284.349C233.985 277.914 232.341 274.881 226.933 266.481V266.478Z" fill="#EFE6C9"/>
<path d="M517.48 233.096C512.815 230.933 506.659 229.134 499.573 227.629C482.634 224.317 466.163 225.875 440.02 232.537C413.858 239.207 377.672 251.194 359.929 256.979C342.187 262.764 338.98 263.488 333.579 262.959C328.182 262.431 273.185 255.593 273.185 255.593L266.232 253.977C266.232 253.977 237.852 219.574 223.89 203.976C209.928 188.378 196.246 189.772 186.999 194.814L182.161 197.59C182.161 197.59 221.523 258.074 226.935 266.474C232.348 274.874 233.987 277.906 247.88 284.342C261.774 290.778 316.722 317.972 316.722 317.972C316.722 317.972 333.12 326.364 349.449 323.96C365.778 321.556 375.99 319.205 422.768 314.033C469.546 308.86 505.257 327.115 531.205 351.315C557.152 375.52 844 620.5 844 620.5L706.314 352.062C594.323 275.237 548.698 247.564 517.48 233.096Z" fill="#EFE6C9"/>
<path d="M189.771 280.701C186.136 277.584 134.053 234.796 134.053 234.796C134.053 234.796 115.702 231.293 109.987 250.44L189.61 291.371L276.938 305.234C276.938 305.234 212.206 288.557 204.584 286.451C196.961 284.346 193.407 283.813 189.771 280.701Z" fill="#EFE6C9"/>
<path d="M201.021 271.899C193.613 261.213 170.167 224.773 170.167 224.773C170.167 224.773 144.771 203.57 130.878 192.283C116.981 180.997 97.9743 183.638 89.4247 198.298L134.053 234.792C134.053 234.792 186.136 277.58 189.771 280.697C193.407 283.813 196.961 284.346 204.584 286.447C212.206 288.553 276.938 305.231 276.938 305.231C276.938 305.231 241.896 294.373 227 289.882C212.103 285.391 208.433 282.573 201.021 271.891V271.899Z" fill="#EFE6C9"/>
<path d="M226.933 268.733C221.52 260.333 182.158 199.849 182.158 199.849L186.996 197.073C186.996 197.073 181.423 186.253 173.639 176.238C165.856 166.222 147.485 163.025 135.116 174.075L170.165 227.028C170.165 227.028 193.611 263.468 201.02 274.154C208.428 284.839 212.101 287.653 226.998 292.144C241.894 296.635 276.936 307.493 276.936 307.493L316.719 320.235C316.719 320.235 261.775 293.04 247.878 286.604C233.985 280.169 232.341 277.136 226.933 268.736V268.733Z" fill="#FF61F5"/>
<path d="M517.48 235.351C512.815 233.188 506.659 231.389 499.573 229.884C482.634 226.572 466.163 228.13 440.02 234.792C413.858 241.462 377.672 253.449 359.929 259.234C342.187 265.019 338.98 265.743 333.579 265.214C328.182 264.686 273.185 257.848 273.185 257.848L266.232 256.232C266.232 256.232 237.852 221.829 223.89 206.231C209.928 190.633 196.246 192.027 186.999 197.069L182.161 199.845C182.161 199.845 221.523 260.329 226.935 268.729C232.348 277.129 233.987 280.161 247.88 286.597C261.774 293.033 316.722 320.227 316.722 320.227C316.722 320.227 333.12 328.619 349.449 326.215C365.778 323.811 375.99 321.46 422.768 316.288C469.546 311.115 505.257 329.37 531.205 353.57C557.152 377.775 843 611.5 843 611.5L850 399.5C738.009 322.676 548.698 249.816 517.48 235.347V235.351Z" fill="#FF61F5"/>
<path d="M189.771 282.956C186.136 279.839 134.053 237.051 134.053 237.051C134.053 237.051 115.702 233.548 109.987 252.695L189.61 293.626L276.938 307.489C276.938 307.489 212.206 290.812 204.584 288.706C196.961 286.601 193.407 286.069 189.771 282.956Z" fill="#FF61F5"/>
<path d="M201.021 274.154C193.613 263.468 170.167 227.028 170.167 227.028C170.167 227.028 144.771 205.825 130.878 194.538C116.981 183.252 97.9743 185.893 89.4247 200.553L134.053 237.047C134.053 237.047 186.136 279.835 189.771 282.952C193.407 286.068 196.961 286.601 204.584 288.702C212.206 290.808 276.938 307.486 276.938 307.486C276.938 307.486 241.896 296.628 227 292.137C212.103 287.646 208.433 284.828 201.021 274.146V274.154Z" fill="#FF61F5"/>
<path d="M316.718 320.579C316.845 320.579 316.967 320.507 317.029 320.384C317.113 320.212 317.044 320.005 316.872 319.921C316.45 319.714 274.549 299.09 254.063 289.143C235.654 280.203 234.164 278.136 229.219 271.282C228.625 270.463 227.955 269.533 227.212 268.526C220.394 259.337 182.832 200.258 182.453 199.661C182.349 199.5 182.135 199.45 181.974 199.554C181.813 199.657 181.763 199.872 181.867 200.032C182.246 200.63 219.819 259.728 226.653 268.939C227.396 269.939 228.066 270.869 228.656 271.688C233.678 278.652 235.191 280.754 253.761 289.767C274.242 299.71 316.144 320.334 316.565 320.541C316.615 320.564 316.669 320.576 316.718 320.576V320.579Z" fill="black"/>
<path d="M276.94 307.838C277.089 307.838 277.223 307.742 277.273 307.593C277.331 307.409 277.227 307.218 277.043 307.16C276.725 307.061 245.078 297.298 227.106 291.811C211.144 286.941 208.03 282.814 203.311 276.566C202.675 275.727 202.02 274.858 201.3 273.94C196.81 268.223 188.027 254.402 179.531 241.033C176.298 235.948 173.245 231.147 170.464 226.84C170.361 226.679 170.147 226.633 169.986 226.737C169.825 226.84 169.779 227.055 169.882 227.215C172.663 231.519 175.716 236.32 178.945 241.404C187.449 254.785 196.243 268.625 200.756 274.364C201.476 275.28 202.127 276.145 202.759 276.983C207.559 283.339 210.726 287.539 226.903 292.474C244.875 297.96 276.522 307.723 276.84 307.823C276.875 307.834 276.909 307.838 276.944 307.838H276.94Z" fill="black"/>
<path d="M271.074 305.943C271.228 305.943 271.369 305.839 271.412 305.682C271.457 305.499 271.346 305.307 271.159 305.261C270.576 305.116 212.966 290.571 201.724 287.577C192.458 285.111 190.535 283.431 185.889 279.376C184.885 278.499 183.744 277.504 182.384 276.374C176.224 271.259 161.209 258.924 145.316 245.861L134.277 236.787C134.128 236.664 133.909 236.687 133.791 236.833C133.672 236.978 133.691 237.2 133.836 237.319L144.876 246.393C160.769 259.456 175.784 271.792 181.943 276.907C183.299 278.032 184.433 279.024 185.437 279.897C190.029 283.909 192.129 285.739 201.548 288.247C212.794 291.241 270.412 305.786 270.99 305.931C271.017 305.939 271.048 305.943 271.074 305.943Z" fill="black"/>
<path d="M324.712 251.803C343.65 248.598 359.787 244.881 373.071 241.668C375.443 241.094 377.794 240.504 380.066 239.934C393.396 236.584 407.182 233.119 439.174 229.237L439.113 228.747C407.09 232.633 393.289 236.098 379.943 239.455C377.672 240.026 375.324 240.615 372.953 241.19C359.676 244.402 343.55 248.116 324.628 251.316L324.712 251.803Z" fill="black"/>
<path d="M380.906 433.423H604.632C608.799 433.423 612.189 430.035 612.189 425.869V268.629H611.197V425.869C611.197 429.487 608.252 432.436 604.628 432.436H380.906V433.423Z" fill="white"/>
<path d="M215.867 154.815C187.352 126.314 187.352 80.1057 215.867 51.6051C244.381 23.1044 290.613 23.1044 319.127 51.6051C347.642 80.1057 347.642 126.314 319.127 154.815C290.613 183.316 244.381 183.316 215.867 154.815Z" fill="#00CBF3"/>
<path d="M226.247 155.426C226.416 155.426 226.585 155.353 226.699 155.207C226.899 154.958 226.857 154.595 226.608 154.396C210.949 141.88 201.966 123.223 201.966 103.207C201.966 67.0885 231.365 37.7079 267.498 37.7079C267.816 37.7079 268.076 37.4514 268.076 37.1298C268.076 36.8082 267.816 36.5517 267.498 36.5517C230.725 36.5517 200.809 66.453 200.809 103.207C200.809 123.576 209.949 142.561 225.884 155.295C225.991 155.38 226.117 155.422 226.244 155.422L226.247 155.426Z" fill="#FFF1D0"/>
<path d="M237.895 124.379C244.809 122.362 252.171 117.557 252.623 109.636C252.726 107.794 252.416 105.841 251.347 104.299C250.133 102.541 248.126 101.592 246.153 100.952C243.69 100.156 237.443 98.2723 236.684 102.277C236.37 103.935 237.672 105.508 238.799 106.557C240.07 107.744 241.503 108.778 242.993 109.67C245.981 111.462 249.309 112.679 252.749 113.242C256.231 113.813 260.123 113.881 263.421 112.48C265.11 111.764 266.631 110.593 267.439 108.908C268.132 107.461 268.266 105.753 268.148 104.172C268.025 102.568 267.611 100.922 266.784 99.5319C265.941 98.1154 264.493 96.9974 263.137 96.09C261.218 94.8075 258.817 93.8082 256.468 94.2102C255.748 94.3327 255.017 94.5931 254.45 95.0678C253.354 95.9828 253.343 97.5564 253.485 98.8696C253.852 102.243 255.936 105.225 258.334 107.515C262.969 111.94 269.255 114.548 275.605 115.122C278.731 115.405 281.903 115.199 284.959 114.471C288.223 113.694 292.72 112.358 293.478 108.59C294.245 104.792 291.031 101.492 287.212 102.174C283.144 102.905 281.979 107.515 282.998 111.002C284.075 114.682 286.875 117.882 289.59 120.478C292.502 123.262 295.842 125.566 299.331 127.565C301.04 128.541 302.79 129.449 304.56 130.306C304.709 130.379 304.583 130.609 304.434 130.532C300.262 128.503 296.198 126.217 292.536 123.357C289.07 120.65 285.714 117.32 283.684 113.368C282.098 110.286 281.596 106.117 284.247 103.433C286.446 101.205 290.479 101.301 292.521 103.705C294.639 106.201 294.137 110.003 291.613 111.99C290.065 113.208 288.077 113.881 286.204 114.418C284.507 114.9 282.765 115.222 281.006 115.382C273.817 116.041 266.374 114.05 260.571 109.731C257.794 107.664 255.247 105.011 253.952 101.745C253.113 99.6277 252.351 96.0479 254.68 94.5931C256.38 93.5325 258.636 93.7737 260.437 94.4169C263.302 95.443 266.378 97.6598 267.569 100.527C268.734 103.338 268.975 107.216 267.213 109.839C265.083 113.005 260.843 113.824 257.284 113.855C253.419 113.885 249.562 113.066 246.023 111.519C244.127 110.692 242.326 109.651 240.668 108.418C239.362 107.449 238.017 106.381 237.136 104.992C236.382 103.801 236.067 102.285 236.929 101.056C237.757 99.8765 239.3 99.5855 240.652 99.5855C242.595 99.5855 244.56 100.145 246.387 100.749C248.264 101.37 250.148 102.273 251.378 103.877C253.553 106.714 253.186 110.838 251.86 113.95C250.29 117.645 247.252 120.463 243.755 122.331C241.92 123.311 239.971 124.043 237.975 124.625C237.814 124.67 237.745 124.422 237.906 124.372L237.895 124.379Z" fill="black"/>
<path d="M277.12 167.608H257.876C246.021 167.608 236.399 177.225 236.399 189.075V208.31C236.399 220.159 246.021 229.777 257.876 229.777H277.12C288.976 229.777 298.598 220.159 298.598 208.31V189.075C298.598 177.225 288.976 167.608 277.12 167.608Z" fill="black"/>
<path d="M298.597 190.461C298.597 168.914 304.228 166.766 308.621 163.519H265.8V190.48L298.597 190.461Z" fill="#00CBF3"/>
<path d="M236.276 190.461C236.276 168.914 230.645 166.766 226.251 163.519H269.072V190.48L236.276 190.461Z" fill="#00CBF3"/>
<path d="M282.93 190.48H283.336C283.336 176.372 285.19 156.49 294.019 141.907C299.282 133.212 304.595 130.517 304.645 130.49L304.465 130.126C304.411 130.153 298.995 132.902 293.67 141.696C288.771 149.79 282.93 164.821 282.93 190.48Z" fill="black"/>
<path d="M251.08 190.48H251.486C251.486 175.051 250.322 153.262 244.783 137.09C241.458 127.385 238.172 124.353 238.034 124.23L237.762 124.533C237.796 124.563 241.129 127.653 244.419 137.286C249.924 153.4 251.08 175.108 251.08 190.48Z" fill="black"/>
<path d="M267.497 242.174C261.25 242.174 256.186 237.112 256.186 230.868H278.812C278.812 237.112 273.749 242.174 267.501 242.174H267.497Z" fill="black"/>
<path d="M236.397 197.008H268.236L236.397 194.665V197.008Z" fill="#FFF1D0"/>
<path d="M236.397 203.539H268.236L236.397 201.196V203.539Z" fill="#FFF1D0"/>
<path d="M236.397 210.067H268.236L236.397 207.724V210.067Z" fill="#FFF1D0"/>
<path d="M154.137 108.483L149.95 98.0656L155.27 107.955C158.522 114 166.088 116.807 172.446 114.318L182.463 110.397L173.032 115.57C167.049 118.855 164.356 126.458 166.915 132.825L171.102 143.243L165.781 133.354C162.529 127.308 154.964 124.502 148.605 126.991L138.589 130.911L148.019 125.739C154.003 122.454 156.695 114.85 154.137 108.483Z" fill="#FF61F5"/>
<defs>
<radialGradient id="paint0_radial_38_46" cx="0" cy="0" r="1" gradientUnits="userSpaceOnUse" gradientTransform="translate(308.534 277.248) rotate(-10.485) scale(305.253 45.7669)">
<stop stop-color="#D5B582"/>
<stop offset="0.03" stop-color="#D7B888"/>
<stop offset="0.25" stop-color="#E5D1B2"/>
<stop offset="0.46" stop-color="#F0E5D3"/>
<stop offset="0.66" stop-color="#F8F3EB"/>
<stop offset="0.84" stop-color="#FDFCFA"/>
<stop offset="1" stop-color="white"/>
</radialGradient>
</defs>
</svg>
