<svg width="220" height="43" viewBox="0 0 220 43" fill="none" xmlns="http://www.w3.org/2000/svg">
<circle cx="25" cy="21.3525" r="20" stroke="#161C31" stroke-width="1.4" stroke-linecap="round"/>
<circle cx="25" cy="21.3525" r="20" stroke="#161C31" stroke-width="1.4" stroke-linecap="round"/>
<path d="M1 24.5496C5.68233 21.8787 11.1037 20.3525 16.882 20.3525C30.7132 20.3525 42.4994 29.0971 47 41.3525" stroke="#161C31" stroke-width="1.4" stroke-linecap="round"/>
<line x1="10.7" y1="0.7" x2="10.7" y2="42.3" stroke="#161C31" stroke-width="1.4" stroke-linecap="round"/>
<path fill-rule="evenodd" clip-rule="evenodd" d="M41.709 32.5703C43.8802 29.3713 45.1487 25.5101 45.1487 21.3527C45.1487 10.3069 36.1943 1.35254 25.1486 1.35254C19.1495 1.35254 13.7674 3.99378 10.1016 8.17682V21.0071C12.1866 20.58 14.3456 20.3557 16.5569 20.3557C26.761 20.3557 35.8495 25.1317 41.709 32.5703Z" fill="#161C31"/>
<path fill-rule="evenodd" clip-rule="evenodd" d="M5.17773 22.4499C5.42732 27.0663 7.24238 31.2664 10.1014 34.5287V21.0137C8.40743 21.3624 6.76237 21.845 5.17773 22.4499Z" fill="#161C31"/>
<path d="M65.472 32.7H69.856V14.012H75.328V9.97998H60V14.012H65.472V32.7Z" fill="#161C31"/>
<path d="M78.7287 32.7H83.0167V23.612C83.0167 21.18 84.3607 19.58 86.5687 19.58C88.8087 19.58 90.1207 21.18 90.1207 23.612V32.7H94.4087V22.908C94.4087 17.852 91.5287 15.74 88.1047 15.74C85.6087 15.74 83.9447 16.86 83.0167 18.332V9.97998H78.7287V32.7Z" fill="#161C31"/>
<path d="M106.498 33.02C109.442 33.02 111.842 31.804 113.218 30.076L111.266 27.996C110.05 29.052 108.61 29.5 106.978 29.5C104.482 29.5 102.498 28.316 101.89 26.044H114.338C115.266 18.716 110.466 15.74 106.242 15.74C101.986 15.74 97.8262 18.78 97.8262 24.38C97.8262 29.916 101.922 33.02 106.498 33.02ZM101.826 22.908C102.37 20.508 104.29 19.356 106.274 19.356C108.29 19.356 110.274 20.54 110.53 22.908H101.826Z" fill="#161C31"/>
<path d="M137.869 32.7H142.541L137.229 24.444C139.853 23.324 141.421 20.956 141.421 17.692C141.421 13.052 138.221 9.97998 133.389 9.97998H125.421V32.7H129.805V25.18H133.197L137.869 32.7ZM129.805 21.372V14.012H132.941C135.341 14.012 136.973 15.068 136.973 17.692C136.973 20.348 135.341 21.372 132.941 21.372H129.805Z" fill="#161C31"/>
<path d="M152.535 33.02C155.479 33.02 157.879 31.804 159.255 30.076L157.303 27.996C156.087 29.052 154.647 29.5 153.015 29.5C150.519 29.5 148.535 28.316 147.927 26.044H160.375C161.303 18.716 156.503 15.74 152.279 15.74C148.023 15.74 143.863 18.78 143.863 24.38C143.863 29.916 147.958 33.02 152.535 33.02ZM147.863 22.908C148.407 20.508 150.327 19.356 152.311 19.356C154.327 19.356 156.311 20.54 156.567 22.908H147.863Z" fill="#161C31"/>
<path d="M171.104 33.02C174.08 33.02 176 31.388 176.416 30.46H176.512V32.7H180.8V16.06H176.512V18.3H176.416C176 17.372 174.08 15.74 171.104 15.74C167.232 15.74 163.104 18.62 163.104 24.38C163.104 30.14 167.232 33.02 171.104 33.02ZM167.328 24.38C167.328 21.276 169.568 19.58 171.968 19.58C174.368 19.58 176.608 21.244 176.608 24.38C176.608 27.516 174.368 29.18 171.968 29.18C169.568 29.18 167.328 27.484 167.328 24.38Z" fill="#161C31"/>
<path d="M185.02 32.7H189.308V9.97998H185.02V32.7Z" fill="#161C31"/>
<path d="M204.134 32.7H208.422V23.228C208.422 20.86 209.766 19.58 211.654 19.58C213.51 19.58 214.727 20.86 214.727 23.228V32.7H219.046V23.036C219.046 17.948 216.486 15.74 212.966 15.74C210.246 15.74 208.422 16.988 207.462 18.524C206.438 16.604 204.646 15.74 202.598 15.74C200.262 15.74 198.726 16.796 197.83 18.204V16.06H193.542V32.7H197.83V23.228C197.83 20.86 199.174 19.58 201.062 19.58C202.887 19.58 204.134 20.86 204.134 23.228V32.7Z" fill="#161C31"/>
</svg>
