<svg width="78" height="78" viewBox="0 0 78 78" fill="none" xmlns="http://www.w3.org/2000/svg">
<circle cx="39" cy="30" r="22" fill="#00CBF3" fill-opacity="0.18"/>
<path d="M28.5003 39.6667H21.7337C20.4269 39.6667 19.7735 39.6667 19.2743 39.921C18.8353 40.1447 18.4783 40.5016 18.2546 40.9407C18.0003 41.4398 18.0003 42.0932 18.0003 43.4V63M49.5003 39.6667H56.267C57.5738 39.6667 58.2272 39.6667 58.7263 39.921C59.1653 40.1447 59.5223 40.5016 59.746 40.9407C60.0003 41.4398 60.0003 42.0932 60.0003 43.4V63M49.5003 63V28.4667C49.5003 25.8531 49.5003 24.5463 48.9917 23.548C48.5443 22.67 47.8304 21.956 46.9523 21.5086C45.954 21 44.6472 21 42.0337 21H35.967C33.3534 21 32.0466 21 31.0484 21.5086C30.1703 21.956 29.4564 22.67 29.009 23.548C28.5003 24.5463 28.5003 25.8531 28.5003 28.4667V63M62.3337 63H15.667M36.667 30.3333H41.3337M36.667 39.6667H41.3337M36.667 49H41.3337" stroke="#713BEB" stroke-width="3.3" stroke-linecap="round" stroke-linejoin="round"/>
</svg>
