<svg width="37" height="26" viewBox="0 0 37 26" fill="none" xmlns="http://www.w3.org/2000/svg">
<path d="M9.08278 26C7.1755 26 5.5596 25.5535 4.2351 24.6606C2.96358 23.7677 2.00993 22.5859 1.37417 21.1152C0.791391 19.6444 0.5 18.0687 0.5 16.3879C0.5 13.9717 1.00331 11.6869 2.00993 9.53333C3.06954 7.3798 4.42053 5.48889 6.06291 3.86061C7.75828 2.1798 9.58609 0.89293 11.5464 0L17.0298 4.01818C15.5993 4.64849 14.2483 5.4101 12.9768 6.30303C11.7053 7.14343 10.5927 8.08889 9.63907 9.13939C8.73841 10.1899 8.04967 11.2667 7.57285 12.3697L7.9702 12.6061C8.28808 12.396 8.63245 12.2384 9.00331 12.1333C9.42715 12.0283 9.98344 11.9758 10.6722 11.9758C11.6258 11.9758 12.5795 12.2121 13.5331 12.6848C14.5397 13.1576 15.3609 13.8667 15.9967 14.8121C16.6854 15.7576 17.0298 16.9657 17.0298 18.4364C17.0298 20.0646 16.6589 21.4566 15.9172 22.6121C15.1755 23.7152 14.1954 24.5556 12.9768 25.1333C11.7583 25.7111 10.4603 26 9.08278 26ZM28.553 26C26.6457 26 25.0298 25.5535 23.7053 24.6606C22.4338 23.7677 21.4801 22.5859 20.8444 21.1152C20.2616 19.6444 19.9702 18.0687 19.9702 16.3879C19.9702 13.9717 20.4735 11.6869 21.4801 9.53333C22.5397 7.3798 23.8907 5.48889 25.5331 3.86061C27.2285 2.1798 29.0563 0.89293 31.0166 0L36.5 4.01818C35.0695 4.64849 33.7185 5.4101 32.447 6.30303C31.1755 7.14343 30.0629 8.08889 29.1093 9.13939C28.2086 10.1899 27.5199 11.2667 27.043 12.3697L27.4404 12.6061C27.7583 12.396 28.1026 12.2384 28.4735 12.1333C28.8974 12.0283 29.4536 11.9758 30.1424 11.9758C31.096 11.9758 32.0497 12.2121 33.0033 12.6848C34.0099 13.1576 34.8311 13.8667 35.4669 14.8121C36.1556 15.7576 36.5 16.9657 36.5 18.4364C36.5 20.0646 36.1291 21.4566 35.3874 22.6121C34.6457 23.7152 33.6656 24.5556 32.447 25.1333C31.2285 25.7111 29.9305 26 28.553 26Z" fill="#BEF2FF"/>
</svg>
